<svg xmlns="http://www.w3.org/2000/svg" width="1000" height="1200" viewBox="0 0 1000 1200" fill="none">
<g stroke-width="0.75">
<line x1="90" y1="20.27" x2="90" y2="865.92" stroke="#ffffff" stroke-opacity="0.069"/><line x1="270" y1="423.91" x2="270" y2="823.68" stroke="#ffffff" stroke-opacity="0.043"/><line x1="450" y1="280.28" x2="450" y2="961.96" stroke="#ffffff" stroke-opacity="0.081"/><line x1="540" y1="25.77" x2="540" y2="1137.46" stroke="#ffffff" stroke-opacity="0.044"/><line x1="630" y1="243.16" x2="630" y2="731.26" stroke="#ffffff" stroke-opacity="0.043"/><line x1="208.43" y1="270" x2="809.59" y2="270" stroke="#ffffff" stroke-opacity="0.076"/><line x1="110.32" y1="540" x2="716.1" y2="540" stroke="#ffffff" stroke-opacity="0.067"/><line x1="235.39" y1="630" x2="840.11" y2="630" stroke="#ffffff" stroke-opacity="0.047"/><line x1="2.75" y1="810" x2="627.71" y2="810" stroke="#ffffff" stroke-opacity="0.048"/><line x1="195.57" y1="900" x2="673.58" y2="900" stroke="#ffffff" stroke-opacity="0.059"/><line x1="109.29" y1="990" x2="739.84" y2="990" stroke="#ffffff" stroke-opacity="0.091"/><line x1="155.66" y1="1080" x2="773.22" y2="1080" stroke="#ffffff" stroke-opacity="0.058"/><line x1="149.81" y1="1170" x2="835.7" y2="1170" stroke="#ffffff" stroke-opacity="0.060"/><line x1="626.21" y1="228.07" x2="585" y2="194.91" stroke="#ffffff" stroke-opacity="0.341"/><line x1="626.21" y1="228.07" x2="597.81" y2="298.4" stroke="#ffffff" stroke-opacity="0.218"/><line x1="626.21" y1="228.07" x2="625.66" y2="312.4" stroke="#ffffff" stroke-opacity="0.354"/><line x1="41.61" y1="895.95" x2="92.73" y2="897.21" stroke="#ffffff" stroke-opacity="0.308"/><line x1="41.61" y1="895.95" x2="156.32" y2="911.03" stroke="#ffffff" stroke-opacity="0.306"/><line x1="41.61" y1="895.95" x2="61.09" y2="1016.76" stroke="#ffffff" stroke-opacity="0.296"/><line x1="652.34" y1="1075.64" x2="706.47" y2="1141.85" stroke="#ffffff" stroke-opacity="0.251"/><line x1="652.34" y1="1075.64" x2="694.87" y2="1158.8" stroke="#ffffff" stroke-opacity="0.471"/><line x1="652.34" y1="1075.64" x2="764.09" y2="1133.49" stroke="#ffffff" stroke-opacity="0.362"/><line x1="34.32" y1="1046.55" x2="40.28" y2="1049.91" stroke="#ffffff" stroke-opacity="0.217"/><line x1="34.32" y1="1046.55" x2="11.25" y2="1040.65" stroke="#ffffff" stroke-opacity="0.248"/><line x1="34.32" y1="1046.55" x2="61.09" y2="1016.76" stroke="#ffffff" stroke-opacity="0.196"/><line x1="282.05" y1="630.22" x2="281.61" y2="659.06" stroke="#ffffff" stroke-opacity="0.237"/><line x1="282.05" y1="630.22" x2="247.54" y2="585.88" stroke="#ffffff" stroke-opacity="0.434"/><line x1="282.05" y1="630.22" x2="289.64" y2="572.37" stroke="#ffffff" stroke-opacity="0.333"/><line x1="850.76" y1="220.02" x2="861.56" y2="279.72" stroke="#ffffff" stroke-opacity="0.308"/><line x1="850.76" y1="220.02" x2="781.55" y2="215.29" stroke="#ffffff" stroke-opacity="0.405"/><line x1="850.76" y1="220.02" x2="931.57" y2="314.35" stroke="#ffffff" stroke-opacity="0.444"/><line x1="597.81" y1="298.4" x2="625.66" y2="312.4" stroke="#ffffff" stroke-opacity="0.214"/><line x1="597.81" y1="298.4" x2="625.38" y2="320.04" stroke="#ffffff" stroke-opacity="0.320"/><line x1="597.81" y1="298.4" x2="559.95" y2="361.18" stroke="#ffffff" stroke-opacity="0.440"/><line x1="386.2" y1="645.99" x2="480.71" y2="638.87" stroke="#ffffff" stroke-opacity="0.338"/><line x1="386.2" y1="645.99" x2="472.56" y2="694.03" stroke="#ffffff" stroke-opacity="0.245"/><line x1="386.2" y1="645.99" x2="306.21" y2="705.95" stroke="#ffffff" stroke-opacity="0.320"/><line x1="781.55" y1="215.29" x2="861.56" y2="279.72" stroke="#ffffff" stroke-opacity="0.269"/><line x1="781.55" y1="215.29" x2="822.78" y2="76.23" stroke="#ffffff" stroke-opacity="0.208"/><line x1="304.48" y1="858.9" x2="344.94" y2="849.99" stroke="#ffffff" stroke-opacity="0.386"/><line x1="304.48" y1="858.9" x2="350.97" y2="902.69" stroke="#ffffff" stroke-opacity="0.321"/><line x1="304.48" y1="858.9" x2="325.47" y2="939.42" stroke="#ffffff" stroke-opacity="0.427"/><line x1="289.64" y1="572.37" x2="247.54" y2="585.88" stroke="#ffffff" stroke-opacity="0.529"/><line x1="289.64" y1="572.37" x2="281.61" y2="659.06" stroke="#ffffff" stroke-opacity="0.532"/><line x1="975.31" y1="20.54" x2="984.43" y2="64.55" stroke="#ffffff" stroke-opacity="0.491"/><line x1="975.31" y1="20.54" x2="896.04" y2="47.84" stroke="#ffffff" stroke-opacity="0.242"/><line x1="975.31" y1="20.54" x2="822.78" y2="76.23" stroke="#ffffff" stroke-opacity="0.537"/><line x1="706.47" y1="1141.85" x2="694.87" y2="1158.8" stroke="#ffffff" stroke-opacity="0.439"/><line x1="706.47" y1="1141.85" x2="764.09" y2="1133.49" stroke="#ffffff" stroke-opacity="0.363"/><line x1="835.09" y1="569.99" x2="936.05" y2="546.97" stroke="#ffffff" stroke-opacity="0.508"/><line x1="835.09" y1="569.99" x2="693.42" y2="556.07" stroke="#ffffff" stroke-opacity="0.443"/><line x1="835.09" y1="569.99" x2="972.21" y2="611.76" stroke="#ffffff" stroke-opacity="0.355"/><line x1="735.82" y1="920.43" x2="806.66" y2="921.56" stroke="#ffffff" stroke-opacity="0.375"/><line x1="735.82" y1="920.43" x2="715.66" y2="820.29" stroke="#ffffff" stroke-opacity="0.366"/><line x1="735.82" y1="920.43" x2="595.49" y2="908.97" stroke="#ffffff" stroke-opacity="0.279"/><line x1="247.54" y1="585.88" x2="281.61" y2="659.06" stroke="#ffffff" stroke-opacity="0.532"/><line x1="77.74" y1="579.12" x2="64.9" y2="527.18" stroke="#ffffff" stroke-opacity="0.426"/><line x1="77.74" y1="579.12" x2="32.91" y2="643.63" stroke="#ffffff" stroke-opacity="0.441"/><line x1="77.74" y1="579.12" x2="154.51" y2="526.15" stroke="#ffffff" stroke-opacity="0.336"/><line x1="585" y1="194.91" x2="534.36" y2="190.23" stroke="#ffffff" stroke-opacity="0.498"/><line x1="585" y1="194.91" x2="586.26" y2="100.36" stroke="#ffffff" stroke-opacity="0.460"/><line x1="213.65" y1="299.69" x2="232.39" y2="295.16" stroke="#ffffff" stroke-opacity="0.541"/><line x1="213.65" y1="299.69" x2="182.21" y2="252.79" stroke="#ffffff" stroke-opacity="0.429"/><line x1="213.65" y1="299.69" x2="142.43" y2="257.67" stroke="#ffffff" stroke-opacity="0.318"/><line x1="672.49" y1="619.77" x2="693.42" y2="556.07" stroke="#ffffff" stroke-opacity="0.257"/><line x1="672.49" y1="619.77" x2="717.09" y2="717.93" stroke="#ffffff" stroke-opacity="0.208"/><line x1="672.49" y1="619.77" x2="647.36" y2="513.77" stroke="#ffffff" stroke-opacity="0.522"/><line x1="114.06" y1="751.45" x2="148.78" y2="785.2" stroke="#ffffff" stroke-opacity="0.533"/><line x1="114.06" y1="751.45" x2="168.36" y2="721.27" stroke="#ffffff" stroke-opacity="0.195"/><line x1="114.06" y1="751.45" x2="99.64" y2="676.63" stroke="#ffffff" stroke-opacity="0.477"/><line x1="884.94" y1="880.64" x2="911.77" y2="903.66" stroke="#ffffff" stroke-opacity="0.325"/><line x1="884.94" y1="880.64" x2="929.05" y2="893.96" stroke="#ffffff" stroke-opacity="0.345"/><line x1="884.94" y1="880.64" x2="806.66" y2="921.56" stroke="#ffffff" stroke-opacity="0.230"/><line x1="61.09" y1="1016.76" x2="40.28" y2="1049.91" stroke="#ffffff" stroke-opacity="0.260"/><line x1="61.09" y1="1016.76" x2="11.25" y2="1040.65" stroke="#ffffff" stroke-opacity="0.288"/><line x1="387.3" y1="422.66" x2="421.6" y2="428.8" stroke="#ffffff" stroke-opacity="0.447"/><line x1="387.3" y1="422.66" x2="451.34" y2="395.99" stroke="#ffffff" stroke-opacity="0.220"/><line x1="387.3" y1="422.66" x2="352.87" y2="340.2" stroke="#ffffff" stroke-opacity="0.195"/><line x1="806.66" y1="921.56" x2="911.77" y2="903.66" stroke="#ffffff" stroke-opacity="0.289"/><line x1="325.47" y1="939.42" x2="350.97" y2="902.69" stroke="#ffffff" stroke-opacity="0.549"/><line x1="325.47" y1="939.42" x2="344.94" y2="849.99" stroke="#ffffff" stroke-opacity="0.279"/><line x1="32.91" y1="643.63" x2="40.95" y2="675.9" stroke="#ffffff" stroke-opacity="0.473"/><line x1="32.91" y1="643.63" x2="99.64" y2="676.63" stroke="#ffffff" stroke-opacity="0.405"/><line x1="98.56" y1="354.52" x2="86.31" y2="249.01" stroke="#ffffff" stroke-opacity="0.384"/><line x1="98.56" y1="354.52" x2="142.43" y2="257.67" stroke="#ffffff" stroke-opacity="0.359"/><line x1="366.56" y1="1114.46" x2="418.99" y2="1097.49" stroke="#ffffff" stroke-opacity="0.289"/><line x1="366.56" y1="1114.46" x2="381.76" y2="1183.66" stroke="#ffffff" stroke-opacity="0.536"/><line x1="366.56" y1="1114.46" x2="465.11" y2="1142.96" stroke="#ffffff" stroke-opacity="0.302"/><line x1="99.64" y1="676.63" x2="40.95" y2="675.9" stroke="#ffffff" stroke-opacity="0.428"/><line x1="182.21" y1="252.79" x2="185.37" y2="215.94" stroke="#ffffff" stroke-opacity="0.411"/><line x1="182.21" y1="252.79" x2="142.43" y2="257.67" stroke="#ffffff" stroke-opacity="0.335"/><line x1="264.59" y1="92.03" x2="203.7" y2="194.56" stroke="#ffffff" stroke-opacity="0.528"/><line x1="264.59" y1="92.03" x2="362.62" y2="23.89" stroke="#ffffff" stroke-opacity="0.527"/><line x1="264.59" y1="92.03" x2="185.37" y2="215.94" stroke="#ffffff" stroke-opacity="0.277"/><line x1="281.61" y1="659.06" x2="306.21" y2="705.95" stroke="#ffffff" stroke-opacity="0.517"/><line x1="465.11" y1="1142.96" x2="510.8" y2="1156.89" stroke="#ffffff" stroke-opacity="0.317"/><line x1="465.11" y1="1142.96" x2="418.99" y2="1097.49" stroke="#ffffff" stroke-opacity="0.266"/><line x1="465.11" y1="1142.96" x2="381.76" y2="1183.66" stroke="#ffffff" stroke-opacity="0.289"/><line x1="451.34" y1="395.99" x2="421.6" y2="428.8" stroke="#ffffff" stroke-opacity="0.258"/><line x1="451.34" y1="395.99" x2="352.87" y2="340.2" stroke="#ffffff" stroke-opacity="0.477"/><line x1="458.39" y1="572.91" x2="480.71" y2="638.87" stroke="#ffffff" stroke-opacity="0.493"/><line x1="458.39" y1="572.91" x2="472.56" y2="694.03" stroke="#ffffff" stroke-opacity="0.196"/><line x1="154.51" y1="526.15" x2="64.9" y2="527.18" stroke="#ffffff" stroke-opacity="0.298"/><line x1="281.96" y1="1022.24" x2="228.86" y2="974.55" stroke="#ffffff" stroke-opacity="0.317"/><line x1="281.96" y1="1022.24" x2="234.88" y2="1095.31" stroke="#ffffff" stroke-opacity="0.372"/><line x1="40.95" y1="675.9" x2="18.7" y2="761.38" stroke="#ffffff" stroke-opacity="0.430"/><line x1="627.18" y1="75.59" x2="586.26" y2="100.36" stroke="#ffffff" stroke-opacity="0.547"/><line x1="627.18" y1="75.59" x2="687.7" y2="2.3" stroke="#ffffff" stroke-opacity="0.240"/><line x1="435.96" y1="754.42" x2="441.53" y2="790.09" stroke="#ffffff" stroke-opacity="0.503"/><line x1="435.96" y1="754.42" x2="472.56" y2="694.03" stroke="#ffffff" stroke-opacity="0.232"/><line x1="435.96" y1="754.42" x2="485.48" y2="861.88" stroke="#ffffff" stroke-opacity="0.223"/><line x1="663.45" y1="762.51" x2="717.09" y2="717.93" stroke="#ffffff" stroke-opacity="0.432"/><line x1="663.45" y1="762.51" x2="715.66" y2="820.29" stroke="#ffffff" stroke-opacity="0.243"/><line x1="663.45" y1="762.51" x2="587.2" y2="780.91" stroke="#ffffff" stroke-opacity="0.480"/><line x1="936.05" y1="546.97" x2="972.21" y2="611.76" stroke="#ffffff" stroke-opacity="0.527"/><line x1="936.05" y1="546.97" x2="982.41" y2="706.88" stroke="#ffffff" stroke-opacity="0.425"/><line x1="595.49" y1="908.97" x2="565.11" y2="901.44" stroke="#ffffff" stroke-opacity="0.374"/><line x1="595.49" y1="908.97" x2="485.48" y2="861.88" stroke="#ffffff" stroke-opacity="0.354"/><line x1="595.49" y1="908.97" x2="587.2" y2="780.91" stroke="#ffffff" stroke-opacity="0.334"/><line x1="203.7" y1="194.56" x2="185.37" y2="215.94" stroke="#ffffff" stroke-opacity="0.436"/><line x1="203.7" y1="194.56" x2="147.01" y2="190.46" stroke="#ffffff" stroke-opacity="0.373"/><line x1="480.71" y1="638.87" x2="472.56" y2="694.03" stroke="#ffffff" stroke-opacity="0.506"/><line x1="565.11" y1="901.44" x2="485.48" y2="861.88" stroke="#ffffff" stroke-opacity="0.458"/><line x1="565.11" y1="901.44" x2="444.35" y2="898.67" stroke="#ffffff" stroke-opacity="0.451"/><line x1="993.49" y1="375.09" x2="931.57" y2="314.35" stroke="#ffffff" stroke-opacity="0.544"/><line x1="993.49" y1="375.09" x2="861.56" y2="279.72" stroke="#ffffff" stroke-opacity="0.414"/><line x1="232.39" y1="295.16" x2="185.37" y2="215.94" stroke="#ffffff" stroke-opacity="0.299"/><line x1="121.49" y1="1026.1" x2="151.12" y2="1014.99" stroke="#ffffff" stroke-opacity="0.289"/><line x1="121.49" y1="1026.1" x2="81.09" y2="1077.99" stroke="#ffffff" stroke-opacity="0.531"/><line x1="571.99" y1="429.17" x2="559.95" y2="361.18" stroke="#ffffff" stroke-opacity="0.280"/><line x1="571.99" y1="429.17" x2="647.36" y2="513.77" stroke="#ffffff" stroke-opacity="0.417"/><line x1="571.99" y1="429.17" x2="625.38" y2="320.04" stroke="#ffffff" stroke-opacity="0.195"/><line x1="822.78" y1="76.23" x2="896.04" y2="47.84" stroke="#ffffff" stroke-opacity="0.220"/><line x1="185.37" y1="215.94" x2="147.01" y2="190.46" stroke="#ffffff" stroke-opacity="0.336"/><line x1="503.77" y1="1008.89" x2="491.8" y2="1035.17" stroke="#ffffff" stroke-opacity="0.431"/><line x1="503.77" y1="1008.89" x2="480.28" y2="1049.06" stroke="#ffffff" stroke-opacity="0.473"/><line x1="503.77" y1="1008.89" x2="449.07" y2="981.31" stroke="#ffffff" stroke-opacity="0.194"/><line x1="84.44" y1="1166.74" x2="123.98" y2="1158.56" stroke="#ffffff" stroke-opacity="0.357"/><line x1="84.44" y1="1166.74" x2="81.09" y2="1077.99" stroke="#ffffff" stroke-opacity="0.306"/><line x1="84.44" y1="1166.74" x2="170.96" y2="1129.05" stroke="#ffffff" stroke-opacity="0.287"/><line x1="58.78" y1="59.61" x2="70.69" y2="89.6" stroke="#ffffff" stroke-opacity="0.414"/><line x1="58.78" y1="59.61" x2="47.56" y2="170.75" stroke="#ffffff" stroke-opacity="0.426"/><line x1="58.78" y1="59.61" x2="147.01" y2="190.46" stroke="#ffffff" stroke-opacity="0.476"/><line x1="693.42" y1="556.07" x2="647.36" y2="513.77" stroke="#ffffff" stroke-opacity="0.384"/><line x1="40.28" y1="1049.91" x2="11.25" y2="1040.65" stroke="#ffffff" stroke-opacity="0.208"/><line x1="148.78" y1="785.2" x2="175.73" y2="842.72" stroke="#ffffff" stroke-opacity="0.296"/><line x1="148.78" y1="785.2" x2="168.36" y2="721.27" stroke="#ffffff" stroke-opacity="0.369"/><line x1="931.57" y1="314.35" x2="861.56" y2="279.72" stroke="#ffffff" stroke-opacity="0.351"/><line x1="362.62" y1="23.89" x2="586.26" y2="100.36" stroke="#ffffff" stroke-opacity="0.506"/><line x1="86.31" y1="249.01" x2="142.43" y2="257.67" stroke="#ffffff" stroke-opacity="0.223"/><line x1="86.31" y1="249.01" x2="147.01" y2="190.46" stroke="#ffffff" stroke-opacity="0.275"/><line x1="86.31" y1="249.01" x2="47.56" y2="170.75" stroke="#ffffff" stroke-opacity="0.452"/><line x1="350.97" y1="902.69" x2="344.94" y2="849.99" stroke="#ffffff" stroke-opacity="0.264"/><line x1="625.66" y1="312.4" x2="625.38" y2="320.04" stroke="#ffffff" stroke-opacity="0.435"/><line x1="625.66" y1="312.4" x2="559.95" y2="361.18" stroke="#ffffff" stroke-opacity="0.517"/><line x1="984.43" y1="64.55" x2="896.04" y2="47.84" stroke="#ffffff" stroke-opacity="0.258"/><line x1="687.7" y1="2.3" x2="586.26" y2="100.36" stroke="#ffffff" stroke-opacity="0.434"/><line x1="715.66" y1="820.29" x2="717.09" y2="717.93" stroke="#ffffff" stroke-opacity="0.287"/><line x1="175.73" y1="842.72" x2="156.32" y2="911.03" stroke="#ffffff" stroke-opacity="0.469"/><line x1="175.73" y1="842.72" x2="92.73" y2="897.21" stroke="#ffffff" stroke-opacity="0.548"/><line x1="156.32" y1="911.03" x2="92.73" y2="897.21" stroke="#ffffff" stroke-opacity="0.531"/><line x1="156.32" y1="911.03" x2="228.86" y2="974.55" stroke="#ffffff" stroke-opacity="0.259"/><line x1="422.52" y1="885.48" x2="444.35" y2="898.67" stroke="#ffffff" stroke-opacity="0.193"/><line x1="422.52" y1="885.48" x2="485.48" y2="861.88" stroke="#ffffff" stroke-opacity="0.308"/><line x1="228.86" y1="974.55" x2="151.12" y2="1014.99" stroke="#ffffff" stroke-opacity="0.303"/><line x1="70.69" y1="89.6" x2="47.56" y2="170.75" stroke="#ffffff" stroke-opacity="0.454"/><line x1="70.69" y1="89.6" x2="147.01" y2="190.46" stroke="#ffffff" stroke-opacity="0.286"/><line x1="381.76" y1="1183.66" x2="418.99" y2="1097.49" stroke="#ffffff" stroke-opacity="0.343"/><line x1="862.11" y1="1114.06" x2="764.09" y2="1133.49" stroke="#ffffff" stroke-opacity="0.455"/><line x1="862.11" y1="1114.06" x2="946.19" y2="1182.38" stroke="#ffffff" stroke-opacity="0.342"/><line x1="862.11" y1="1114.06" x2="998.67" y2="1045.23" stroke="#ffffff" stroke-opacity="0.464"/><line x1="480.28" y1="1049.06" x2="491.8" y2="1035.17" stroke="#ffffff" stroke-opacity="0.489"/><line x1="480.28" y1="1049.06" x2="449.07" y2="981.31" stroke="#ffffff" stroke-opacity="0.260"/><line x1="579.04" y1="676.59" x2="587.2" y2="780.91" stroke="#ffffff" stroke-opacity="0.220"/><line x1="694.87" y1="1158.8" x2="764.09" y2="1133.49" stroke="#ffffff" stroke-opacity="0.355"/><line x1="911.77" y1="903.66" x2="929.05" y2="893.96" stroke="#ffffff" stroke-opacity="0.463"/><line x1="946.19" y1="1182.38" x2="998.67" y2="1045.23" stroke="#ffffff" stroke-opacity="0.217"/><line x1="946.19" y1="1182.38" x2="764.09" y2="1133.49" stroke="#ffffff" stroke-opacity="0.443"/><line x1="625.38" y1="320.04" x2="559.95" y2="361.18" stroke="#ffffff" stroke-opacity="0.336"/><line x1="534.36" y1="190.23" x2="586.26" y2="100.36" stroke="#ffffff" stroke-opacity="0.318"/><line x1="510.8" y1="1156.89" x2="418.99" y2="1097.49" stroke="#ffffff" stroke-opacity="0.348"/><line x1="491.8" y1="1035.17" x2="449.07" y2="981.31" stroke="#ffffff" stroke-opacity="0.245"/><line x1="441.53" y1="790.09" x2="485.48" y2="861.88" stroke="#ffffff" stroke-opacity="0.402"/><line x1="877.41" y1="750" x2="982.41" y2="706.88" stroke="#ffffff" stroke-opacity="0.243"/><line x1="972.21" y1="611.76" x2="982.41" y2="706.88" stroke="#ffffff" stroke-opacity="0.299"/><line x1="123.98" y1="1158.56" x2="170.96" y2="1129.05" stroke="#ffffff" stroke-opacity="0.418"/><line x1="352.87" y1="340.2" x2="421.6" y2="428.8" stroke="#ffffff" stroke-opacity="0.442"/><line x1="170.96" y1="1129.05" x2="234.88" y2="1095.31" stroke="#ffffff" stroke-opacity="0.506"/><line x1="444.35" y1="898.67" x2="485.48" y2="861.88" stroke="#ffffff" stroke-opacity="0.543"/><line x1="444.35" y1="898.67" x2="449.07" y2="981.31" stroke="#ffffff" stroke-opacity="0.484"/><line x1="257" y1="1198.71" x2="234.88" y2="1095.31" stroke="#ffffff" stroke-opacity="0.517"/><circle cx="626.21" cy="228.07" r="1.11" fill="#ffffff" fill-opacity="0.739"/><circle cx="41.61" cy="895.95" r="2.09" fill="#ffffff" fill-opacity="0.512"/><circle cx="652.34" cy="1075.64" r="2.3" fill="#ffffff" fill-opacity="0.551"/><circle cx="34.32" cy="1046.55" r="1.32" fill="#ffffff" fill-opacity="0.588"/><circle cx="282.05" cy="630.22" r="2.16" fill="#ffffff" fill-opacity="0.635"/><circle cx="850.76" cy="220.02" r="1.29" fill="#ffffff" fill-opacity="0.408"/><circle cx="597.81" cy="298.4" r="0.82" fill="#ffffff" fill-opacity="0.427"/><circle cx="386.2" cy="645.99" r="1.23" fill="#ffffff" fill-opacity="0.602"/><circle cx="781.55" cy="215.29" r="1.88" fill="#ffffff" fill-opacity="0.761"/><circle cx="304.48" cy="858.9" r="1.19" fill="#ffffff" fill-opacity="0.607"/><circle cx="289.64" cy="572.37" r="2" fill="#ffffff" fill-opacity="0.562"/><circle cx="975.31" cy="20.54" r="3.8" fill="none" stroke="#ffffff" stroke-opacity="0.360"/><circle cx="975.31" cy="20.54" r="1.59" fill="#ffffff" fill-opacity="0.900"/><circle cx="706.47" cy="1141.85" r="7.13" fill="none" stroke="#ffffff" stroke-opacity="0.360"/><circle cx="706.47" cy="1141.85" r="2.97" fill="#ffffff" fill-opacity="0.900"/><circle cx="835.09" cy="569.99" r="0.65" fill="#ffffff" fill-opacity="0.454"/><circle cx="735.82" cy="920.43" r="8.68" fill="none" stroke="#ffffff" stroke-opacity="0.360"/><circle cx="735.82" cy="920.43" r="3.62" fill="#ffffff" fill-opacity="0.900"/><circle cx="247.54" cy="585.88" r="0.95" fill="#ffffff" fill-opacity="0.443"/><circle cx="77.74" cy="579.12" r="1.64" fill="#ffffff" fill-opacity="0.762"/><circle cx="585" cy="194.91" r="1.41" fill="#ffffff" fill-opacity="0.405"/><circle cx="213.65" cy="299.69" r="1.64" fill="#ffffff" fill-opacity="0.557"/><circle cx="672.49" cy="619.77" r="1.4" fill="#ffffff" fill-opacity="0.495"/><circle cx="114.06" cy="751.45" r="5.73" fill="none" stroke="#ffffff" stroke-opacity="0.360"/><circle cx="114.06" cy="751.45" r="2.39" fill="#ffffff" fill-opacity="0.900"/><circle cx="884.94" cy="880.64" r="2.12" fill="#ffffff" fill-opacity="0.641"/><circle cx="61.09" cy="1016.76" r="2.27" fill="#ffffff" fill-opacity="0.630"/><circle cx="387.3" cy="422.66" r="0.7" fill="#ffffff" fill-opacity="0.736"/><circle cx="806.66" cy="921.56" r="6.1" fill="none" stroke="#ffffff" stroke-opacity="0.360"/><circle cx="806.66" cy="921.56" r="2.54" fill="#ffffff" fill-opacity="0.900"/><circle cx="325.47" cy="939.42" r="1.24" fill="#ffffff" fill-opacity="0.464"/><circle cx="32.91" cy="643.63" r="2.27" fill="#ffffff" fill-opacity="0.459"/><circle cx="98.56" cy="354.52" r="1.95" fill="#ffffff" fill-opacity="0.506"/><circle cx="366.56" cy="1114.46" r="5.19" fill="none" stroke="#ffffff" stroke-opacity="0.360"/><circle cx="366.56" cy="1114.46" r="2.16" fill="#ffffff" fill-opacity="0.900"/><circle cx="99.64" cy="676.63" r="1.67" fill="#ffffff" fill-opacity="0.609"/><circle cx="182.21" cy="252.79" r="1.74" fill="#ffffff" fill-opacity="0.566"/><circle cx="264.59" cy="92.03" r="4.9" fill="none" stroke="#ffffff" stroke-opacity="0.360"/><circle cx="264.59" cy="92.03" r="2.04" fill="#ffffff" fill-opacity="0.900"/><circle cx="281.61" cy="659.06" r="1.41" fill="#ffffff" fill-opacity="0.461"/><circle cx="465.11" cy="1142.96" r="1.73" fill="#ffffff" fill-opacity="0.484"/><circle cx="451.34" cy="395.99" r="1.33" fill="#ffffff" fill-opacity="0.594"/><circle cx="458.39" cy="572.91" r="5.08" fill="none" stroke="#ffffff" stroke-opacity="0.360"/><circle cx="458.39" cy="572.91" r="2.12" fill="#ffffff" fill-opacity="0.900"/><circle cx="154.51" cy="526.15" r="1.63" fill="#ffffff" fill-opacity="0.584"/><circle cx="281.96" cy="1022.24" r="1.57" fill="#ffffff" fill-opacity="0.650"/><circle cx="40.95" cy="675.9" r="0.81" fill="#ffffff" fill-opacity="0.549"/><circle cx="627.18" cy="75.59" r="1.2" fill="#ffffff" fill-opacity="0.732"/><circle cx="435.96" cy="754.42" r="0.83" fill="#ffffff" fill-opacity="0.563"/><circle cx="663.45" cy="762.51" r="5.99" fill="none" stroke="#ffffff" stroke-opacity="0.360"/><circle cx="663.45" cy="762.51" r="2.5" fill="#ffffff" fill-opacity="0.900"/><circle cx="936.05" cy="546.97" r="7.44" fill="none" stroke="#ffffff" stroke-opacity="0.360"/><circle cx="936.05" cy="546.97" r="3.1" fill="#ffffff" fill-opacity="0.900"/><circle cx="595.49" cy="908.97" r="1.05" fill="#ffffff" fill-opacity="0.459"/><circle cx="203.7" cy="194.56" r="1.09" fill="#ffffff" fill-opacity="0.668"/><circle cx="480.71" cy="638.87" r="1.87" fill="#ffffff" fill-opacity="0.466"/><circle cx="565.11" cy="901.44" r="1.35" fill="#ffffff" fill-opacity="0.714"/><circle cx="993.49" cy="375.09" r="1.2" fill="#ffffff" fill-opacity="0.407"/><circle cx="232.39" cy="295.16" r="3.98" fill="none" stroke="#ffffff" stroke-opacity="0.360"/><circle cx="232.39" cy="295.16" r="1.66" fill="#ffffff" fill-opacity="0.900"/><circle cx="472.56" cy="694.03" r="6.63" fill="none" stroke="#ffffff" stroke-opacity="0.360"/><circle cx="472.56" cy="694.03" r="2.76" fill="#ffffff" fill-opacity="0.900"/><circle cx="121.49" cy="1026.1" r="1.02" fill="#ffffff" fill-opacity="0.671"/><circle cx="571.99" cy="429.17" r="2.34" fill="#ffffff" fill-opacity="0.644"/><circle cx="822.78" cy="76.23" r="1.8" fill="#ffffff" fill-opacity="0.626"/><circle cx="185.37" cy="215.94" r="1.82" fill="#ffffff" fill-opacity="0.690"/><circle cx="503.77" cy="1008.89" r="1.62" fill="#ffffff" fill-opacity="0.519"/><circle cx="84.44" cy="1166.74" r="0.92" fill="#ffffff" fill-opacity="0.746"/><circle cx="58.78" cy="59.61" r="2.63" fill="none" stroke="#ffffff" stroke-opacity="0.360"/><circle cx="58.78" cy="59.61" r="1.1" fill="#ffffff" fill-opacity="0.900"/><circle cx="693.42" cy="556.07" r="0.98" fill="#ffffff" fill-opacity="0.722"/><circle cx="40.28" cy="1049.91" r="1.88" fill="#ffffff" fill-opacity="0.638"/><circle cx="11.25" cy="1040.65" r="1.26" fill="#ffffff" fill-opacity="0.418"/><circle cx="148.78" cy="785.2" r="2.3" fill="#ffffff" fill-opacity="0.497"/><circle cx="18.7" cy="761.38" r="1.86" fill="#ffffff" fill-opacity="0.640"/><circle cx="64.9" cy="527.18" r="0.89" fill="#ffffff" fill-opacity="0.741"/><circle cx="931.57" cy="314.35" r="1.42" fill="#ffffff" fill-opacity="0.493"/><circle cx="362.62" cy="23.89" r="1.96" fill="#ffffff" fill-opacity="0.429"/><circle cx="86.31" cy="249.01" r="5.42" fill="none" stroke="#ffffff" stroke-opacity="0.360"/><circle cx="86.31" cy="249.01" r="2.26" fill="#ffffff" fill-opacity="0.900"/><circle cx="350.97" cy="902.69" r="0.72" fill="#ffffff" fill-opacity="0.658"/><circle cx="625.66" cy="312.4" r="1.21" fill="#ffffff" fill-opacity="0.465"/><circle cx="647.36" cy="513.77" r="3.52" fill="none" stroke="#ffffff" stroke-opacity="0.360"/><circle cx="647.36" cy="513.77" r="1.47" fill="#ffffff" fill-opacity="0.900"/><circle cx="984.43" cy="64.55" r="2.29" fill="#ffffff" fill-opacity="0.653"/><circle cx="687.7" cy="2.3" r="1.14" fill="#ffffff" fill-opacity="0.660"/><circle cx="168.36" cy="721.27" r="1.24" fill="#ffffff" fill-opacity="0.570"/><circle cx="715.66" cy="820.29" r="2.16" fill="#ffffff" fill-opacity="0.529"/><circle cx="142.43" cy="257.67" r="1.42" fill="#ffffff" fill-opacity="0.457"/><circle cx="175.73" cy="842.72" r="2" fill="#ffffff" fill-opacity="0.622"/><circle cx="156.32" cy="911.03" r="0.72" fill="#ffffff" fill-opacity="0.523"/><circle cx="422.52" cy="885.48" r="1.31" fill="#ffffff" fill-opacity="0.674"/><circle cx="344.94" cy="849.99" r="2.21" fill="#ffffff" fill-opacity="0.546"/><circle cx="228.86" cy="974.55" r="1.31" fill="#ffffff" fill-opacity="0.482"/><circle cx="92.73" cy="897.21" r="0.98" fill="#ffffff" fill-opacity="0.609"/><circle cx="70.69" cy="89.6" r="1.12" fill="#ffffff" fill-opacity="0.740"/><circle cx="381.76" cy="1183.66" r="1.72" fill="#ffffff" fill-opacity="0.664"/><circle cx="861.56" cy="279.72" r="1.47" fill="#ffffff" fill-opacity="0.543"/><circle cx="862.11" cy="1114.06" r="3.44" fill="none" stroke="#ffffff" stroke-opacity="0.360"/><circle cx="862.11" cy="1114.06" r="1.43" fill="#ffffff" fill-opacity="0.900"/><circle cx="480.28" cy="1049.06" r="1.38" fill="#ffffff" fill-opacity="0.709"/><circle cx="81.09" cy="1077.99" r="2.1" fill="#ffffff" fill-opacity="0.488"/><circle cx="579.04" cy="676.59" r="0.74" fill="#ffffff" fill-opacity="0.504"/><circle cx="694.87" cy="1158.8" r="1.49" fill="#ffffff" fill-opacity="0.711"/><circle cx="911.77" cy="903.66" r="7.44" fill="none" stroke="#ffffff" stroke-opacity="0.360"/><circle cx="911.77" cy="903.66" r="3.1" fill="#ffffff" fill-opacity="0.900"/><circle cx="946.19" cy="1182.38" r="2.02" fill="#ffffff" fill-opacity="0.726"/><circle cx="625.38" cy="320.04" r="1.82" fill="#ffffff" fill-opacity="0.560"/><circle cx="764.09" cy="1133.49" r="2.31" fill="#ffffff" fill-opacity="0.720"/><circle cx="534.36" cy="190.23" r="1.18" fill="#ffffff" fill-opacity="0.417"/><circle cx="510.8" cy="1156.89" r="2.39" fill="#ffffff" fill-opacity="0.760"/><circle cx="491.8" cy="1035.17" r="1.33" fill="#ffffff" fill-opacity="0.528"/><circle cx="998.67" cy="1045.23" r="1.67" fill="#ffffff" fill-opacity="0.680"/><circle cx="929.05" cy="893.96" r="1.97" fill="#ffffff" fill-opacity="0.498"/><circle cx="441.53" cy="790.09" r="2.27" fill="#ffffff" fill-opacity="0.581"/><circle cx="717.09" cy="717.93" r="0.61" fill="#ffffff" fill-opacity="0.567"/><circle cx="147.01" cy="190.46" r="2.08" fill="#ffffff" fill-opacity="0.520"/><circle cx="896.04" cy="47.84" r="3.9" fill="none" stroke="#ffffff" stroke-opacity="0.360"/><circle cx="896.04" cy="47.84" r="1.62" fill="#ffffff" fill-opacity="0.900"/><circle cx="877.41" cy="750" r="0.71" fill="#ffffff" fill-opacity="0.512"/><circle cx="972.21" cy="611.76" r="0.85" fill="#ffffff" fill-opacity="0.669"/><circle cx="123.98" cy="1158.56" r="0.61" fill="#ffffff" fill-opacity="0.529"/><circle cx="352.87" cy="340.2" r="6.79" fill="none" stroke="#ffffff" stroke-opacity="0.360"/><circle cx="352.87" cy="340.2" r="2.83" fill="#ffffff" fill-opacity="0.900"/><circle cx="170.96" cy="1129.05" r="0.78" fill="#ffffff" fill-opacity="0.535"/><circle cx="151.12" cy="1014.99" r="1.46" fill="#ffffff" fill-opacity="0.692"/><circle cx="586.26" cy="100.36" r="5.43" fill="none" stroke="#ffffff" stroke-opacity="0.360"/><circle cx="586.26" cy="100.36" r="2.26" fill="#ffffff" fill-opacity="0.900"/><circle cx="444.35" cy="898.67" r="1.73" fill="#ffffff" fill-opacity="0.696"/><circle cx="485.48" cy="861.88" r="1.96" fill="#ffffff" fill-opacity="0.468"/><circle cx="47.56" cy="170.75" r="1.9" fill="#ffffff" fill-opacity="0.545"/><circle cx="257" cy="1198.71" r="6.49" fill="none" stroke="#ffffff" stroke-opacity="0.360"/><circle cx="257" cy="1198.71" r="2.7" fill="#ffffff" fill-opacity="0.900"/><circle cx="559.95" cy="361.18" r="1.38" fill="#ffffff" fill-opacity="0.695"/><circle cx="449.07" cy="981.31" r="3.61" fill="none" stroke="#ffffff" stroke-opacity="0.360"/><circle cx="449.07" cy="981.31" r="1.51" fill="#ffffff" fill-opacity="0.900"/><circle cx="587.2" cy="780.91" r="1.17" fill="#ffffff" fill-opacity="0.669"/><circle cx="306.21" cy="705.95" r="1.66" fill="#ffffff" fill-opacity="0.530"/><circle cx="421.6" cy="428.8" r="1.85" fill="#ffffff" fill-opacity="0.690"/><circle cx="234.88" cy="1095.31" r="5.93" fill="none" stroke="#ffffff" stroke-opacity="0.360"/><circle cx="234.88" cy="1095.31" r="2.47" fill="#ffffff" fill-opacity="0.900"/><circle cx="982.41" cy="706.88" r="1.66" fill="#ffffff" fill-opacity="0.624"/><circle cx="418.99" cy="1097.49" r="0.63" fill="#ffffff" fill-opacity="0.408"/>
</g>
</svg>
