<svg xmlns="http://www.w3.org/2000/svg" viewBox="0 0 1200 600" preserveAspectRatio="xMidYMid slice">
<defs><filter id="soft" x="-10%" y="-10%" width="120%" height="120%"><feGaussianBlur stdDeviation="2.5"/></filter></defs>
<g filter="url(#soft)" fill="none" stroke-width="16" stroke-linecap="round" stroke-linejoin="round" opacity="0.85">
<path d="M-115.1 519.5 L-118.8 516.4 L-122.4 513.3 L-126 510.2 L-129.6 507 L-133 503.9 L-136.4 500.7 L-139.8 497.5 L-143 494.3 L-146.2 491.1 L-149.3 487.8 L-152.4 484.6 L-155.4 481.3 L-158.3 478 L-161.1 474.7 L-163.8 471.4 L-166.5 468 L-169 464.6 L-171.5 461.3 L-173.9 457.9 L-176.2 454.4 L-178.3 451 L-180.4 447.6 L-182.4 444.1 L-184.3 440.6 L-186.1 437.1 L-187.7 433.6 L-189.3 430.1 L-190.7 426.6 L-192.1 423.1 L-193.3 419.5 L-194.3 416 L-195.3 412.4 L-196.1 408.8 L-196.8 405.2 L-197.4 401.6 L-197.8 398 L-198.1 394.4 L-198.2 390.8 L-198.3 387.2 L-198.1 383.6 L-197.9 380.1 L-197.4 376.5 L-196.9 372.9 L-196.2 369.3 L-195.3 365.7 L-194.3 362.1 L-193.1 358.6 L-191.8 355.1 L-190.4 351.5 L-188.8 348 L-187 344.5 L-185.1 341.1 L-183.1 337.6 L-180.9 334.2 L-178.6 330.8 L-176.1 327.4 L-173.5 324 L-170.7 320.7 L-167.8 317.4 L-164.8 314.1 L-161.6 310.9 L-158.3 307.7 L-154.9 304.6 L-151.3 301.4 L-147.6 298.3 L-143.8 295.3 L-139.9 292.3 L-135.9 289.3 L-131.7 286.3 L-127.4 283.4 L-123 280.6 L-118.6 277.8 L-114 275 L-109.3 272.3 L-104.5 269.6 L-99.6 266.9 L-94.6 264.3 L-89.6 261.8 L-84.4 259.2 L-79.2 256.8 L-73.9 254.3 L-68.5 251.9 L-63.1 249.6 L-57.6 247.3 L-52 245 L-46.3 242.8 L-40.6 240.6 L-34.9 238.4 L-29.1 236.3 L-23.2 234.2 L-17.3 232.1 L-11.4 230.1 L-5.4 228.1 L0.6 226.1 L6.6 224.1 L12.7 222.2 L18.8 220.2 L24.9 218.3 L31 216.4 L37.1 214.5 L43.2 212.6 L49.3 210.7 L55.4 208.8 L61.5 206.9 L67.6 204.9 L73.6 203 L79.6 201 L85.5 198.9 L91.4 196.9 L97.2 194.7 L103 192.6 L108.6 190.3 L114.1 188 L119.5 185.6 L124.8 183.2 L129.9 180.6 L134.7 178 L139.4 175.2 L143.8 172.4 L148 169.5 L151.9 166.4 L155.4 163.3 L158.6 160.1 L161.4 156.7 L163.8 153.3 L165.7 149.9 L167.2 146.4 L168.3 142.8 L168.9 139.2 L169.1 135.6 L168.8 132 L168 128.4 L166.8 124.9 L165.2 121.4 L163.2 117.9 L160.8 114.5 L158 111.2 L155 108 L151.6 104.8 L147.9 101.7 L144 98.7 L139.8 95.7 L135.4 92.9 L130.8 90.1 L126.1 87.4 L121.1 84.8 L116.1 82.2 L110.8 79.7 L105.5 77.3 L94.5 72.7 L88.9 70.4 L83.3 68.2 L77.5 66 L71.6 64 L65.6 61.9 L59.6 60 L53.5 58.1 L47.3 56.2 L41.1 54.4 L34.8 52.7 L28.4 51 L22 49.4 L15.5 47.8 L9 46.3 L2.4 44.8 L-4.2 43.4 L-10.9 42.1 L-17.6 40.8 L-24.4 39.6 L-31.2 38.4 L-38.1 37.3 L-45 36.3 L-51.9 35.3 L-58.9 34.4 L-65.9 33.6 L-73 32.9 L-80 32.2 L-87.2 31.7 L-94.3 31.2 L-101.4 30.8 L-108.6 30.5 L-115.8 30.3 L-123 30.1 L-130.2 30.1 L-137.4 30.1 L-144.6 30.3 L-151.8 30.5 L-158.9 30.9 L-166.1 31.3 L-173.2 31.9 L-180.3 32.5 L-187.4 33.2 L-194.4 34 L-201.3 34.9 L-208.3 35.9 L-215.2 37 L-222 38.1 L-228.8 39.3 L-235.5 40.6 L-242.1 42 L-248.8 43.4 L-255.3 44.9 L-261.8 46.4 L-268.3 48 L-274.7 49.7 L-281 51.4 L-287.3 53.1 L-293.6 54.9 L-299.8 56.7 L-306 58.5 L-312.2 60.4 L-318.3 62.3 L-324.4 64.2 L-330.5 66.1 L-336.5 68.1 L-342.5 70.1 L-348.5 72 L-354.6 74" stroke="#d6b3c0"/>
<path d="M216.3 678.5 L210.1 676.7 L203.8 674.9 L197.6 673 L191.5 671.2 L185.3 669.3 L179.2 667.4 L173.1 665.5 L167.1 663.5 L161.1 661.5 L155.1 659.5 L149.2 657.5 L143.2 655.4 L137.3 653.4 L131.5 651.3 L125.7 649.2 L119.9 647 L114.1 644.9 L108.4 642.7 L102.7 640.5 L97.1 638.2 L91.4 636 L85.9 633.7 L80.3 631.4 L74.8 629.1 L69.3 626.8 L63.9 624.4 L58.5 622 L53.1 619.6 L47.8 617.2 L42.5 614.8 L37.2 612.3 L32 609.8 L26.8 607.3 L21.6 604.8 L16.5 602.3 L11.5 599.7 L6.4 597.2 L1.4 594.6 L-3.5 592 L-8.4 589.3 L-13.3 586.7 L-18.1 584 L-22.9 581.3 L-27.7 578.6 L-32.4 575.9 L-37 573.1 L-41.7 570.4 L-46.2 567.6 L-50.8 564.8 L-55.3 562 L-59.7 559.2 L-64.1 556.3 L-68.4 553.4 L-72.7 550.5 L-77 547.6 L-81.2 544.7 L-85.3 541.8 L-89.4 538.8 L-93.5 535.8 L-97.5 532.8 L-101.4 529.8 L-105.3 526.8 L-109.1 523.7 L-112.9 520.7 L-116.6 517.6 L-120.2 514.5 L-123.8 511.4 L-127.3 508.2 L-130.7 505 L-134.1 501.9 L-137.4 498.7 L-140.7 495.5 L-143.8 492.2 L-146.9 489 L-149.9 485.7 L-152.8 482.4 L-155.7 479.1 L-158.4 475.8 L-161.1 472.4 L-163.7 469.1 L-166.1 465.7 L-168.5 462.3 L-170.8 458.9 L-173 455.4 L-175.1 452 L-177 448.5 L-178.9 445.1 L-180.6 441.6 L-182.3 438.1 L-183.8 434.5 L-185.2 431 L-186.4 427.5 L-187.6 423.9 L-188.5 420.3 L-189.4 416.8 L-190.1 413.2 L-190.7 409.6 L-191.1 406 L-191.4 402.4 L-191.5 398.8 L-191.5 395.2 L-191.3 391.6 L-190.9 388 L-190.4 384.4 L-189.7 380.8 L-188.9 377.3 L-187.9 373.7 L-186.7 370.1 L-185.3 366.6 L-183.8 363.1 L-182.1 359.6 L-180.2 356.1 L-178.1 352.7 L-175.9 349.3 L-173.4 345.9 L-170.8 342.5 L-168.1 339.2 L-165.1 335.9 L-162 332.7 L-158.6 329.5 L-155.1 326.3 L-151.5 323.2 L-147.6 320.2 L-143.6 317.2 L-139.4 314.3 L-135.1 311.4 L-130.5 308.6 L-125.8 305.9 L-121 303.2 L-116 300.6 L-110.8 298.1 L-105.4 295.7 L-100 293.4 L-94.3 291.1 L-88.5 289 L-82.6 286.9 L-76.6 285 L-70.4 283.2 L-64.1 281.4 L-57.6 279.8 L-51.1 278.3 L-44.4 276.9 L-37.7 275.7 L-30.8 274.6 L-23.9 273.6 L-16.9 272.8 L-9.8 272.1 L-2.7 271.5 L4.4 271.1 L18.8 270.7 L26 270.6 L33.2 270.7 L40.4 271 L47.5 271.5 L54.6 272.1 L61.6 272.9 L68.6 273.8 L75.4 275 L82.1 276.3 L88.6 277.9 L95 279.6 L101.1 281.4 L107 283.5 L112.7 285.7 L118 288.1 L123.1 290.7 L127.9 293.4 L132.4 296.2 L136.5 299.1 L140.2 302.2 L143.6 305.4 L146.7 308.6 L149.4 312 L151.8 315.4 L153.9 318.8 L155.6 322.3 L157 325.8 L158.2 329.4 L159.1 333 L159.7 336.6 L160.2 340.1 L160.4 343.7 L160.5 347.3 L160.4 350.9 L160.2 354.5 L159.9 358.1 L159.4 361.7 L158.9 365.3 L158.4 368.9 L157.8 372.5 L157.2 376.1 L156.6 379.7 L156 383.3 L155.4 386.9 L154.9 390.4 L154.4 394 L154 397.6 L153.6 401.2 L153.3 404.8 L153.1 408.4 L153 412 L153 415.6 L153.1 419.2 L153.4 422.8 L153.7 426.4 L154.2 430 L154.7 433.6 L155.5 437.2 L156.3 440.7 L157.3 444.3 L158.4 447.9 L159.7 451.4 L161.1 454.9 L162.6 458.5 L164.3 462 L166.1 465.5 L168 468.9 L170.1 472.4 L172.3 475.8 L174.7 479.2 L177.2 482.6 L179.8 485.9 L182.5 489.3 L185.4 492.6 L188.4 495.8 L191.5 499.1 L194.7 502.3 L198.1 505.5 L201.5 508.6 L205.1 511.8 L208.8 514.9 L212.6 517.9 L216.5 520.9 L220.5 523.9 L224.6 526.9 L228.8 529.8 L233.1 532.7 L237.5 535.6 L242 538.4 L246.6 541.1 L251.3 543.9 L256 546.6 L260.9 549.2 L265.9 551.8 L270.9 554.4 L276 556.9 L281.2 559.4 L286.5 561.9 L291.9 564.3 L297.3 566.6 L302.8 568.9 L308.4 571.2 L314.1 573.4 L319.8 575.6 L325.7 577.7 L331.5 579.8 L337.5 581.8 L343.5 583.8 L349.6 585.7 L355.8 587.6 L362 589.4 L368.3 591.1 L374.6 592.9 L381 594.5 L387.5 596.1 L394 597.6 L400.5 599.1 L407.1 600.5 L413.8 601.9 L420.5 603.2 L427.3 604.4 L434.1 605.6 L440.9 606.7 L447.8 607.8 L454.7 608.8 L461.7 609.7 L468.7 610.6 L475.7 611.4 L482.8 612.1 L489.8 612.8 L496.9 613.3 L504.1 613.9 L511.2 614.3 L518.4 614.7 L525.5 615 L532.7 615.3 L539.9 615.4 L547.1 615.5 L554.3 615.6 L561.5 615.5 L568.7 615.4 L575.9 615.2 L583.1 615 L590.2 614.6 L597.4 614.2 L604.5 613.7 L611.6 613.1 L618.7 612.5 L625.8 611.8" stroke="#aab6d2"/>
<path d="M-64.2 256.7 L-58.5 254.6 L-52.6 252.5 L-46.7 250.4 L-40.7 248.4 L-34.6 246.5 L-28.5 244.6 L-22.3 242.8 L-16 241 L-9.7 239.3 L-3.3 237.7 L3.2 236.1 L9.7 234.5 L16.3 233.1 L22.9 231.6 L29.5 230.3 L36.2 228.9 L43 227.7 L49.8 226.5 L56.6 225.3 L63.4 224.2 L70.3 223.2 L77.2 222.2 L84.2 221.2 L91.1 220.3 L98.1 219.4 L105.1 218.6 L112.2 217.9 L119.2 217.2 L126.3 216.5 L133.4 215.9 L140.5 215.3 L147.6 214.7 L154.8 214.3 L161.9 213.8 L169.1 213.4 L176.2 213 L183.4 212.7 L190.6 212.4 L197.7 212.1 L204.9 211.9 L212.1 211.7 L219.3 211.6 L226.5 211.5 L233.7 211.5 L240.9 211.4 L248.1 211.5 L255.3 211.5 L262.5 211.6 L269.7 211.8 L276.9 212 L284.1 212.2 L291.3 212.5 L298.4 212.8 L305.6 213.2 L312.7 213.6 L319.9 214.1 L327 214.6 L334.1 215.2 L341.2 215.8 L348.2 216.5 L355.3 217.3 L362.3 218.2 L369.3 219.1 L376.2 220 L383.1 221.1 L389.9 222.2 L396.7 223.5 L403.4 224.8 L410 226.2 L416.5 227.7 L422.9 229.3 L429.3 231.1 L435.4 232.9 L441.5 234.9 L447.4 236.9 L453.1 239.1 L458.6 241.5 L463.8 243.9 L468.9 246.5 L473.6 249.2 L478.1 252 L482.2 255 L485.9 258.1 L489.3 261.2 L492.3 264.5 L494.9 267.9 L497 271.3 L498.6 274.8 L499.7 278.4 L500.4 282 L500.5 285.6 L500.1 289.2 L499.2 292.7 L497.8 296.3 L495.9 299.7 L493.5 303.1 L490.6 306.4 L487.3 309.6 L483.7 312.7 L479.6 315.7 L475.2 318.6 L470.5 321.3 L465.5 323.9 L460.3 326.4 L454.9 328.7 L449.2 331 L443.4 333.1 L437.5 335.1 L431.4 337 L425.2 338.9 L418.9 340.7 L412.6 342.4 L406.2 344 L399.7 345.6 L393.2 347.1 L386.7 348.7 L380.1 350.1 L373.6 351.6 L367 353.1 L360.4 354.6 L353.9 356 L347.3 357.5 L340.8 359.1 L334.3 360.6 L327.8 362.2 L321.4 363.8 L315 365.5 L308.7 367.2 L302.4 368.9 L296.2 370.8 L290.1 372.7 L284 374.6 L278.1 376.7 L272.3 378.8 L266.6 381 L261 383.2 L255.5 385.6 L250.2 388 L245 390.5 L240.1 393.1 L235.2 395.8 L230.6 398.6 L226.2 401.4 L222 404.3 L218 407.3 L214.2 410.4 L210.7 413.5 L207.4 416.7 L204.4 420 L198.8 426.6 L196.3 430 L194.1 433.4 L192.1 436.9 L190.5 440.4 L189.1 443.9 L188 447.5 L187.2 451.1 L186.7 454.7 L186.4 458.3 L186.4 461.9 L186.7 465.5 L187.2 469.1 L188 472.6 L189 476.2 L190.2 479.7 L191.7 483.3 L193.4 486.8 L195.4 490.2 L197.5 493.7 L199.8 497.1 L202.3 500.5 L205 503.8 L207.9 507.1 L210.9 510.4 L214.1 513.6 L217.4 516.8 L221 519.9 L224.6 523 L228.4 526.1 L232.3 529.1 L236.4 532.1 L240.5 535 L244.8 537.9 L249.2 540.7 L253.7 543.5 L258.4 546.3 L263.1 549 L267.9 551.7 L272.9 554.3 L277.9 556.9 L283 559.4 L288.3 561.9 L293.6 564.3 L299 566.7 L304.4 569 L310 571.3 L315.6 573.6 L321.4 575.8 L327.2 577.9 L333 580 L339 582 L345 584 L351.1 585.9 L357.2 587.8 L363.4 589.6 L369.7 591.4 L376 593.1 L382.4 594.7 L388.9 596.3 L395.4 597.9 L402 599.3 L408.6 600.8 L415.3 602.1 L422 603.4 L428.7 604.6 L435.5 605.8 L442.4 606.9 L449.3 608 L456.2 608.9 L463.2 609.9 L470.2 610.7 L477.2 611.5 L484.3 612.2 L491.3 612.9 L498.4 613.4 L505.6 614 L512.7 614.4 L519.9 614.8 L527.1 615.1 L534.2 615.3 L541.4 615.5 L548.6 615.5 L555.8 615.6 L563 615.5 L570.2 615.4 L577.4 615.2 L584.6 614.9 L591.8 614.5 L598.9 614.1 L606 613.6 L613.1 613 L620.2 612.3 L627.3 611.6 L634.3 610.8 L641.2 609.9 L648.2 608.9 L655 607.8 L661.9 606.7 L668.6 605.4 L675.3 604.1 L682 602.8 L688.6 601.3 L695.1 599.7 L701.5 598.1 L707.8 596.4 L714.1 594.6 L720.2 592.7 L726.2 590.8 L732.2 588.7 L738 586.6 L743.7 584.4 L749.3 582.1 L754.8 579.8 L760.1 577.4 L765.3 574.9 L770.3 572.3 L775.3 569.7 L780 567 L784.7 564.2 L789.1 561.4 L793.5 558.5 L797.6 555.6 L801.6 552.6 L805.5 549.6 L809.2 546.5 L812.8 543.4 L816.2 540.2 L819.5 537 L822.6 533.7 L825.5 530.5 L828.4 527.2 L831.1 523.8 L833.6 520.5 L836.1 517.1 L838.4 513.7 L840.5 510.2 L842.6 506.8 L844.6 503.3 L846.4 499.8 L848.2 496.3 L849.8 492.8 L851.3 489.3 L852.8 485.8 L854.2 482.3 L855.4 478.7 L856.6 475.2 L857.8 471.6 L858.8 468 L859.8 464.5" stroke="#b0cdbf"/>
<path d="M887.1 747 L879.9 747 L872.7 746.9 L865.5 746.9 L858.3 746.8 L851.1 746.7 L843.9 746.6 L836.7 746.4 L829.5 746.3 L822.3 746.2 L815.1 746 L807.9 745.8 L800.7 745.7 L793.5 745.5 L786.3 745.3 L779.2 745.1 L772 744.9 L764.8 744.7 L757.6 744.5 L750.4 744.3 L743.2 744.1 L736 743.8 L728.8 743.6 L721.7 743.3 L714.5 743.1 L707.3 742.8 L700.1 742.5 L692.9 742.3 L685.8 742 L678.6 741.7 L671.4 741.4 L664.2 741 L657.1 740.7 L649.9 740.4 L642.7 740 L635.6 739.7 L628.4 739.3 L621.3 738.9 L614.1 738.5 L607 738.1 L599.8 737.6 L592.7 737.2 L585.5 736.7 L578.4 736.2 L571.3 735.8 L564.1 735.2 L557 734.7 L549.9 734.2 L542.8 733.6 L535.7 733 L528.6 732.4 L521.5 731.8 L514.4 731.2 L507.3 730.5 L500.3 729.8 L493.2 729.1 L486.1 728.4 L479.1 727.6 L472.1 726.9 L465 726.1 L458 725.2 L451 724.4 L444 723.5 L437.1 722.6 L430.1 721.7 L423.2 720.8 L416.2 719.8 L409.3 718.8 L402.4 717.8 L395.5 716.8 L388.6 715.7 L381.8 714.6 L374.9 713.5 L368.1 712.3 L361.3 711.1 L354.5 709.9 L347.8 708.7 L341 707.5 L334.3 706.2 L327.6 704.9 L320.9 703.5 L314.2 702.1 L307.6 700.7 L301 699.3 L294.4 697.9 L287.8 696.4 L281.3 694.9 L274.8 693.3 L268.3 691.8 L261.9 690.2 L255.4 688.5 L249 686.9 L242.7 685.2 L236.4 683.5 L230.1 681.7 L223.8 680 L217.6 678.2 L211.4 676.3 L205.2 674.5 L199.1 672.6 L193 670.7 L186.9 668.7 L180.9 666.7 L175 664.7 L169.1 662.6 L163.2 660.5 L157.4 658.4 L151.6 656.3 L145.9 654.1 L140.3 651.8 L134.7 649.6 L129.2 647.3 L123.7 644.9 L118.3 642.5 L113 640.1 L107.8 637.6 L102.7 635.1 L97.6 632.5 L92.7 629.9 L87.8 627.2 L83.1 624.5 L78.5 621.8 L74 618.9 L69.7 616.1 L65.5 613.1 L61.5 610.1 L57.6 607.1 L54 604 L50.6 600.8 L47.4 597.6 L44.4 594.3 L41.7 591 L39.3 587.6 L37.2 584.1 L35.5 580.6 L34.1 577.1 L33.1 573.5 L32.6 570 L32.5 566.4 L32.8 562.8 L33.7 559.2 L35.1 555.7 L37 552.2 L39.5 548.8 L42.5 545.5 L46.1 542.4 L50.2 539.5 L54.9 536.7 L60 534.2 L65.6 531.9 L77.5 527.9 L83.9 526.2 L90.5 524.8 L97.3 523.6 L104.3 522.8 L111.5 522.3 L118.6 522.1 L125.8 522.1 L133 522.4 L140.1 523 L147.2 523.7 L154.1 524.7 L160.9 525.8 L167.7 527.1 L174.3 528.6 L180.7 530.1 L187.1 531.8 L193.4 533.6 L199.6 535.4 L205.7 537.3 L211.7 539.3 L217.6 541.3 L223.5 543.4 L229.4 545.5 L235.2 547.6 L241 549.8 L246.8 551.9 L252.5 554.1 L258.3 556.2 L264 558.4 L269.8 560.6 L275.6 562.7 L281.4 564.8 L287.2 566.9 L293.1 569 L299 571.1 L304.9 573.2 L310.8 575.2 L316.8 577.2 L322.9 579.1 L329 581.1 L335.1 582.9 L341.3 584.8 L347.5 586.6 L353.8 588.4 L360.1 590.1 L366.5 591.8 L372.9 593.4 L379.4 595 L385.9 596.5 L392.4 598 L399 599.4 L405.7 600.8 L412.4 602.1 L419.1 603.4 L425.9 604.6 L432.7 605.8 L439.6 606.9 L446.5 607.9 L453.4 608.9 L460.4 609.8 L467.4 610.6 L474.4 611.4 L481.4 612.1 L488.5 612.8 L495.6 613.4 L502.7 613.9 L509.9 614.4 L517.1 614.8 L524.2 615.1 L531.4 615.3 L538.6 615.5 L545.8 615.6 L553 615.6 L560.2 615.6 L567.4 615.5 L574.6 615.3 L581.8 615.1 L588.9 614.7 L596.1 614.3 L603.2 613.8 L610.3 613.3 L617.4 612.6 L624.5 611.9 L631.5 611.1 L638.5 610.3 L645.4 609.3 L652.3 608.3 L659.2 607.2 L666 606 L672.7 604.7 L679.4 603.3 L686 601.9 L692.5 600.4 L698.9 598.8 L705.3 597.1 L711.6 595.3 L717.8 593.5 L723.9 591.6 L729.8 589.6 L735.7 587.5 L741.5 585.3 L747.1 583.1 L752.6 580.8 L758 578.4 L763.2 575.9 L768.4 573.4 L773.3 570.8 L778.2 568.1 L782.8 565.4 L787.4 562.6 L791.8 559.7 L796 556.8 L800.1 553.8 L804 550.8 L807.8 547.7 L811.4 544.6 L814.8 541.5 L818.2 538.3 L821.3 535 L824.4 531.8 L827.3 528.5 L830 525.2 L832.6 521.8 L835.1 518.4 L837.5 515 L839.7 511.6 L841.8 508.2 L843.8 504.7 L845.7 501.2 L847.5 497.7 L849.2 494.2 L850.7 490.7 L852.2 487.2 L853.6 483.7 L854.9 480.1 L856.2 476.6 L857.3 473 L858.4 469.5 L859.4 465.9 L860.4 462.3 L861.2 458.8 L862 455.2 L862.8 451.6 L863.5 448 L864.1 444.4 L864.7 440.8 L865.3 437.3 L865.8 433.7 L866.2 430.1" stroke="#d6cab2"/>
<path d="M406.3 -179.8 L404.3 -176.3 L402.5 -172.8 L400.8 -169.3 L399.3 -165.8 L398 -162.3 L396.8 -158.7 L395.8 -155.2 L394.9 -151.6 L394.2 -148 L393.7 -144.4 L393.3 -140.8 L393.1 -137.2 L393.1 -133.6 L393.2 -130 L393.5 -126.4 L393.9 -122.8 L394.5 -119.2 L395.3 -115.7 L396.2 -112.1 L397.2 -108.5 L398.3 -105 L399.6 -101.4 L401 -97.9 L402.5 -94.4 L404.1 -90.9 L405.7 -87.4 L407.5 -83.9 L409.3 -80.4 L411.1 -76.9 L413 -73.4 L414.9 -69.9 L416.7 -66.5 L418.6 -63 L420.5 -59.5 L422.3 -56 L424 -52.5 L425.7 -49 L427.3 -45.5 L428.7 -42 L430 -38.5 L431.2 -34.9 L432.1 -31.3 L432.9 -27.8 L433.4 -24.2 L433.7 -20.6 L433.7 -17 L433.4 -13.4 L432.8 -9.8 L431.8 -6.2 L430.5 -2.7 L428.9 0.8 L426.8 4.3 L424.4 7.7 L421.6 11 L418.4 14.2 L414.9 17.3 L411 20.4 L406.7 23.3 L402.1 26 L397.2 28.7 L391.9 31.1 L386.4 33.5 L380.7 35.6 L374.7 37.6 L368.5 39.5 L362.2 41.2 L355.7 42.7 L349 44.1 L342.2 45.3 L328.5 47.5 L321.5 48.4 L314.5 49.2 L307.4 49.9 L300.3 50.4 L293.2 50.8 L286 51.1 L278.8 51.3 L271.6 51.4 L264.4 51.4 L257.2 51.3 L250 51.1 L242.8 50.8 L235.7 50.5 L228.5 50.1 L221.4 49.6 L214.3 49.1 L207.2 48.5 L200.1 47.9 L193 47.2 L185.9 46.5 L178.9 45.7 L171.9 44.9 L164.9 44.1 L157.9 43.2 L150.9 42.3 L144 41.4 L137 40.5 L130.1 39.5 L123.1 38.5 L116.2 37.5 L109.3 36.5 L102.4 35.5 L95.5 34.5 L88.6 33.5 L81.7 32.5 L74.8 31.4 L67.9 30.4 L61 29.4 L54.1 28.4 L47.1 27.4 L40.2 26.4 L33.3 25.5 L26.3 24.5 L19.4 23.6 L12.4 22.7 L5.4 21.8 L-1.6 21 L-8.6 20.2 L-15.7 19.5 L-22.7 18.8 L-29.8 18.1 L-36.9 17.5 L-44 16.9 L-51.2 16.4 L-58.3 16 L-65.5 15.6 L-72.6 15.3 L-79.8 15.1 L-87 14.9 L-94.2 14.8 L-101.4 14.8 L-108.6 14.9 L-115.8 15 L-123 15.3 L-130.2 15.6 L-137.3 16 L-144.4 16.5 L-151.5 17.1 L-158.6 17.8 L-165.6 18.6 L-172.6 19.4 L-179.6 20.4 L-186.5 21.4 L-193.3 22.5 L-200.1 23.7 L-206.9 25 L-213.5 26.3 L-220.2 27.7 L-226.7 29.2 L-233.2 30.8 L-239.7 32.4 L-246 34 L-252.4 35.8 L-258.6 37.5 L-264.9 39.3 L-271 41.2 L-277.1 43.1 L-283.2 45 L-289.3 47 L-295.3 49 L-301.2 51 L-307.2 53 L-313.1 55.1 L-319 57.2 L-324.8 59.3 L-330.7 61.4 L-336.5 63.5 L-342.3 65.6 L-348.1 67.7 L-354 69.8 L-359.8 71.9" stroke="#c8bcd2"/>
<path d="M-6.1 590.7 L-11 588 L-15.8 585.4 L-20.6 582.7 L-25.4 580 L-30.1 577.3 L-34.8 574.5 L-39.5 571.8 L-44.1 569 L-48.7 566.3 L-53.2 563.4 L-57.7 560.6 L-62.1 557.8 L-66.5 554.9 L-70.8 552.1 L-75.1 549.2 L-79.3 546.3 L-83.5 543.3 L-87.7 540.4 L-91.8 537.4 L-95.8 534.5 L-99.8 531.5 L-103.7 528.4 L-107.6 525.4 L-111.5 522.4 L-115.2 519.3 L-118.9 516.2 L-122.6 513.1 L-126.2 510 L-129.7 506.8 L-133.2 503.7 L-136.6 500.5 L-139.9 497.3 L-143.1 494.1 L-146.3 490.9 L-149.4 487.6 L-152.5 484.4 L-155.5 481.1 L-158.3 477.8 L-161.1 474.5 L-163.9 471.1 L-166.5 467.8 L-169 464.4 L-171.5 461 L-173.9 457.6 L-176.1 454.2 L-178.3 450.8 L-180.4 447.3 L-182.4 443.9 L-184.2 440.4 L-186 436.9 L-187.6 433.4 L-189.2 429.9 L-190.6 426.4 L-191.9 422.8 L-193.1 419.3 L-194.1 415.7 L-195 412.1 L-195.8 408.6 L-196.5 405 L-197 401.4 L-197.4 397.8 L-197.7 394.2 L-197.8 390.6 L-197.8 387 L-197.6 383.4 L-197.3 379.8 L-196.9 376.2 L-196.3 372.6 L-195.5 369 L-194.6 365.5 L-193.6 361.9 L-192.4 358.4 L-191 354.8 L-189.5 351.3 L-187.8 347.8 L-186 344.3 L-184.1 340.9 L-182 337.4 L-179.7 334 L-177.3 330.6 L-174.8 327.2 L-172.1 323.9 L-169.3 320.6 L-166.3 317.3 L-163.2 314 L-160 310.8 L-156.6 307.7 L-153.1 304.5 L-149.4 301.4 L-145.7 298.3 L-141.8 295.3 L-137.7 292.3 L-133.6 289.4 L-129.3 286.5 L-125 283.6 L-120.5 280.8 L-115.9 278 L-111.2 275.3 L-106.4 272.6 L-101.5 270 L-96.5 267.4 L-91.4 264.9 L-86.2 262.4 L-80.9 259.9 L-75.5 257.5 L-70.1 255.2 L-64.5 252.9 L-58.9 250.6 L-53.3 248.4 L-47.5 246.2 L-41.7 244.1 L-35.8 242 L-29.9 240 L-23.9 238 L-17.8 236 L-11.7 234.1 L-5.6 232.3 L0.6 230.4 L6.9 228.6 L13.1 226.9 L19.4 225.1 L25.8 223.4 L32.2 221.7 L38.6 220.1 L45 218.5 L51.4 216.9 L57.9 215.3 L64.3 213.7 L70.8 212.1 L77.3 210.5 L83.8 208.9 L90.2 207.4 L96.7 205.8 L103.1 204.2 L109.6 202.6 L116 200.9 L122.3 199.2 L128.6 197.5 L134.9 195.7 L141.1 193.9 L147.2 192 L153.3 190.1 L159.2 188 L165 185.9 L170.7 183.7 L176.2 181.4 L181.6 178.9 L186.7 176.4 L191.6 173.8 L200.8 168.2 L205.1 165.3 L209.1 162.4 L212.7 159.2 L216 156 L218.8 152.7 L221.2 149.3 L223.1 145.9 L224.5 142.3 L225.5 138.8 L225.9 135.2 L225.8 131.6 L225.2 128 L224.1 124.4 L222.6 120.9 L220.5 117.4 L218.1 114.1 L215.3 110.7 L212.1 107.5 L208.6 104.4 L204.7 101.3 L200.6 98.4 L196.2 95.5 L191.7 92.7 L186.9 90.1 L181.9 87.5 L176.8 84.9 L171.5 82.5 L166.1 80.1 L160.5 77.8 L154.9 75.6 L149.2 73.4 L143.3 71.3 L137.4 69.2 L131.5 67.2 L125.4 65.2 L119.3 63.3 L113.2 61.4 L107 59.6 L100.8 57.8 L94.5 56.1 L88.1 54.3 L81.8 52.7 L75.4 51 L68.9 49.4 L62.4 47.9 L55.9 46.3 L49.4 44.8 L42.8 43.4 L36.2 42 L29.5 40.6 L22.8 39.3 L16.1 38 L9.3 36.7 L2.6 35.5 L-4.3 34.4 L-11.1 33.3 L-18 32.2 L-24.9 31.2 L-31.9 30.3 L-38.9 29.4 L-45.9 28.6 L-52.9 27.8 L-60 27.1 L-67.1 26.5 L-74.2 26 L-81.3 25.5 L-88.5 25.1 L-95.7 24.8 L-102.8 24.6 L-110 24.4 L-117.2 24.4 L-124.4 24.4 L-131.6 24.5 L-138.8 24.8 L-146 25.1 L-153.1 25.5 L-160.3 26 L-167.4 26.6 L-174.4 27.2 L-181.5 28 L-188.5 28.9 L-195.4 29.8 L-202.3 30.8 L-209.2 32 L-216 33.1 L-222.7 34.4 L-229.4 35.7 L-236 37.2 L-242.6 38.6 L-249.1 40.2 L-255.6 41.7 L-262 43.4 L-268.3 45.1 L-274.6 46.8 L-280.9 48.6 L-287.1 50.4 L-293.3 52.3 L-299.4 54.2 L-305.5 56.1 L-311.6 58 L-317.6 60 L-323.6 62 L-329.6 64 L-335.6 66 L-341.5 68 L-347.5 70 L-353.4 72.1 L-359.3 74.1" stroke="#d6b3c0"/>
<path d="M-193.5 365.1 L-192.3 361.5 L-191.1 358 L-189.6 354.5 L-188 350.9 L-186.3 347.5 L-184.4 344 L-182.4 340.5 L-180.2 337.1 L-177.8 333.7 L-175.3 330.3 L-172.7 327 L-169.9 323.7 L-166.9 320.4 L-163.9 317.1 L-160.6 313.9 L-157.3 310.7 L-153.7 307.6 L-150.1 304.5 L-146.3 301.4 L-142.4 298.4 L-138.4 295.4 L-134.2 292.5 L-129.9 289.6 L-125.5 286.7 L-120.9 283.9 L-116.3 281.2 L-111.5 278.5 L-106.6 275.9 L-101.6 273.3 L-96.5 270.7 L-91.3 268.2 L-86 265.8 L-80.6 263.4 L-75.1 261.1 L-69.5 258.8 L-63.9 256.6 L-58.1 254.4 L-52.3 252.3 L-46.3 250.3 L-40.3 248.3 L-34.3 246.4 L-28.1 244.5 L-21.9 242.7 L-15.6 240.9 L-9.3 239.2 L-2.9 237.6 L3.6 236 L10.1 234.5 L16.7 233 L23.3 231.6 L30 230.2 L36.7 228.9 L43.4 227.6 L50.2 226.4 L57 225.3 L63.9 224.2 L70.8 223.1 L77.7 222.1 L84.6 221.2 L91.6 220.3 L98.6 219.4 L105.6 218.6 L112.6 217.9 L119.7 217.2 L126.8 216.5 L133.9 215.9 L141 215.3 L148.1 214.8 L155.2 214.3 L162.4 213.8 L169.5 213.4 L176.7 213.1 L183.9 212.7 L191 212.5 L198.2 212.2 L205.4 212 L212.6 211.8 L219.8 211.7 L227 211.6 L234.2 211.6 L241.4 211.6 L248.6 211.6 L255.8 211.7 L263 211.8 L270.2 212 L277.4 212.2 L284.6 212.5 L291.7 212.8 L298.9 213.1 L306.1 213.5 L313.2 214 L320.3 214.5 L327.4 215 L334.5 215.6 L341.6 216.3 L348.6 217.1 L355.7 217.9 L362.6 218.8 L369.6 219.7 L376.5 220.8 L383.3 221.9 L390.1 223.1 L396.8 224.4 L403.4 225.8 L410 227.3 L416.4 229 L422.7 230.7 L428.9 232.5 L435 234.5 L440.8 236.6 L446.5 238.8 L452 241.1 L457.3 243.6 L462.2 246.1 L467 248.9 L471.4 251.7 L475.4 254.7 L479.1 257.8 L482.4 261 L485.3 264.3 L487.8 267.7 L489.8 271.1 L491.2 274.6 L492.2 278.2 L492.7 281.8 L492.7 285.4 L492.1 289 L491 292.5 L489.5 296.1 L487.4 299.5 L484.8 302.9 L481.9 306.2 L478.5 309.3 L474.7 312.4 L470.5 315.3 L466 318.1 L461.3 320.8 L456.2 323.4 L450.9 325.9 L445.5 328.2 L439.8 330.4 L434 332.5 L428 334.6 L422 336.5 L415.8 338.4 L409.6 340.2 L403.2 341.9 L396.9 343.6 L390.5 345.2 L377.5 348.4 L371.1 350 L364.6 351.5 L358.1 353.1 L351.6 354.6 L345.1 356.1 L338.6 357.7 L332.1 359.3 L325.6 360.9 L319.2 362.5 L312.9 364.2 L306.5 365.9 L300.3 367.7 L294.1 369.5 L287.9 371.4 L281.9 373.4 L275.9 375.4 L270.1 377.5 L264.3 379.6 L258.7 381.9 L253.2 384.2 L247.8 386.6 L242.6 389.1 L237.5 391.6 L232.7 394.3 L228 397 L223.4 399.8 L219.1 402.7 L215.1 405.7 L211.2 408.7 L207.6 411.8 L204.2 415 L201 418.2 L198.1 421.5 L195.5 424.9 L193.1 428.3 L191 431.7 L189.2 435.2 L187.7 438.7 L186.4 442.3 L185.4 445.8 L184.6 449.4 L184.2 453 L184 456.6 L184 460.2 L184.3 463.8 L184.9 467.4 L185.7 471 L186.7 474.5 L188 478.1 L189.5 481.6 L191.2 485.1 L193.1 488.6 L195.2 492 L197.5 495.4 L200 498.8 L202.7 502.1 L205.5 505.4 L208.5 508.7 L211.7 511.9 L215 515.1 L218.5 518.3 L222.1 521.4 L225.8 524.5 L229.7 527.5 L233.7 530.5 L237.8 533.5 L242.1 536.4 L246.5 539.2 L250.9 542 L255.5 544.8 L260.2 547.5 L265 550.2 L269.9 552.9 L274.9 555.5 L280 558 L285.2 560.5 L290.4 563 L295.8 565.4 L301.2 567.7 L306.7 570.1 L312.3 572.3 L318 574.5 L323.8 576.7 L329.6 578.8 L335.5 580.9 L341.5 582.9 L347.5 584.8 L353.6 586.7 L359.8 588.6 L366 590.4 L372.3 592.1 L378.7 593.8 L385.1 595.4 L391.6 597 L398.2 598.5 L404.7 600 L411.4 601.3 L418.1 602.7 L424.8 603.9 L431.6 605.1 L438.4 606.3 L445.3 607.4 L452.2 608.4 L459.1 609.3 L466.1 610.2 L473.1 611.1 L480.2 611.8 L487.2 612.5 L494.3 613.1 L501.4 613.7 L508.6 614.1 L515.7 614.6 L522.9 614.9 L530.1 615.2 L537.3 615.4 L544.5 615.5 L551.7 615.6 L558.9 615.5 L566.1 615.5 L573.3 615.3 L580.4 615.1 L587.6 614.7 L594.8 614.4 L601.9 613.9 L609 613.3 L616.1 612.7 L623.2 612 L630.2 611.2 L637.2 610.4 L644.2 609.5 L651.1 608.4 L657.9 607.3 L664.7 606.2 L671.5 604.9 L678.2 603.6 L684.8 602.1 L691.3 600.6 L697.8 599.1 L704.2 597.4 L710.5 595.6 L716.7 593.8 L722.8 591.9 L728.8 589.9 L734.6 587.8 L740.4 585.7 L746.1 583.5 L751.6 581.2 L757 578.8 L762.3 576.3" stroke="#aab6d2"/>
<path d="M333.6 212.6 L340.8 213 L347.9 213.5 L355.1 214 L362.2 214.5 L369.3 215.1 L376.4 215.7 L383.5 216.4 L390.5 217.1 L397.6 217.8 L404.6 218.6 L411.6 219.5 L418.5 220.4 L425.5 221.3 L432.4 222.4 L439.3 223.4 L446.1 224.6 L452.9 225.8 L459.6 227 L466.3 228.3 L473 229.7 L479.6 231.2 L486.1 232.7 L492.6 234.3 L499 235.9 L505.3 237.7 L511.5 239.5 L517.7 241.3 L523.7 243.3 L529.7 245.3 L535.6 247.4 L541.3 249.5 L547 251.8 L552.5 254.1 L558 256.4 L563.3 258.8 L568.5 261.3 L573.5 263.9 L578.4 266.5 L583.2 269.2 L587.9 272 L592.4 274.8 L596.8 277.6 L601 280.5 L605.1 283.5 L609 286.5 L612.8 289.6 L616.4 292.7 L619.9 295.8 L623.3 299 L626.4 302.3 L629.5 305.5 L632.3 308.8 L635.1 312.2 L637.6 315.5 L640 318.9 L642.2 322.4 L644.3 325.8 L646.2 329.3 L647.9 332.8 L649.5 336.3 L650.9 339.8 L652.1 343.4 L653.1 346.9 L654 350.5 L654.7 354.1 L655.1 357.7 L655.4 361.3 L655.4 364.9 L655.3 368.5 L654.9 372.1 L654.3 375.7 L653.5 379.2 L652.4 382.8 L651 386.3 L649.5 389.8 L647.6 393.3 L645.5 396.8 L643.1 400.2 L640.5 403.5 L637.6 406.8 L634.3 410 L630.9 413.2 L627.1 416.2 L623 419.2 L618.7 422.1 L614.2 424.9 L609.3 427.5 L604.3 430.1 L599 432.5 L593.5 434.9 L587.7 437 L581.8 439.1 L575.8 441.1 L569.5 442.9 L563.2 444.5 L556.7 446.1 L550.1 447.6 L543.4 448.9 L536.6 450.1 L529.8 451.2 L522.9 452.2 L515.9 453.2 L508.9 454 L501.9 454.8 L494.9 455.5 L487.8 456.2 L480.7 456.8 L473.6 457.4 L466.5 458 L459.4 458.6 L452.3 459.1 L445.1 459.7 L438 460.2 L430.9 460.8 L423.8 461.5 L416.8 462.1 L409.7 462.9 L402.7 463.7 L395.8 464.6 L388.8 465.6 L382 466.7 L375.2 467.9 L368.5 469.3 L362 470.8 L355.5 472.4 L349.3 474.2 L343.2 476.1 L337.4 478.2 L331.7 480.4 L326.4 482.9 L321.4 485.5 L316.7 488.2 L312.4 491.1 L308.5 494.1 L305.1 497.3 L302 500.5 L299.4 503.9 L297.3 507.3 L295.7 510.8 L294.6 514.4 L293.9 518 L293.7 521.6 L294 525.2 L294.7 528.8 L295.8 532.3 L297.4 535.8 L299.3 539.3 L301.6 542.7 L304.3 546 L310.2 552.6 L313.5 555.8 L317.2 558.9 L321.1 561.9 L325.2 564.9 L329.6 567.7 L334.3 570.5 L339.1 573.1 L344.1 575.7 L349.4 578.2 L354.7 580.6 L360.3 582.9 L365.9 585.1 L371.7 587.3 L377.6 589.3 L383.7 591.3 L389.8 593.2 L396 595 L402.4 596.7 L408.8 598.3 L415.2 599.9 L421.8 601.4 L428.4 602.8 L435.1 604.1 L441.9 605.4 L448.7 606.6 L455.5 607.7 L462.4 608.7 L469.4 609.6 L476.3 610.5 L483.4 611.3 L490.4 612.1 L497.5 612.7 L504.6 613.3 L511.7 613.8 L518.9 614.2 L526 614.6 L533.2 614.9 L540.4 615.1 L547.6 615.2 L554.8 615.3 L562 615.2 L569.2 615.1 L576.4 615 L583.6 614.7 L590.7 614.4 L597.9 614 L605 613.5 L612.1 612.9 L619.2 612.3 L626.3 611.6 L633.3 610.8 L640.3 609.9 L647.2 608.9 L654.1 607.9 L660.9 606.8 L667.7 605.5 L674.5 604.3 L681.1 602.9 L687.7 601.4 L694.2 599.9 L700.6 598.3 L707 596.6 L713.2 594.8 L719.4 592.9 L725.5 591 L731.4 589 L737.3 586.9 L743 584.7 L748.6 582.4 L754.1 580.1 L759.4 577.7 L764.6 575.2 L769.7 572.6 L774.6 570 L779.4 567.3 L784.1 564.6 L788.6 561.8 L792.9 558.9 L797.1 556 L801.1 553 L805 550 L808.8 546.9 L812.3 543.8 L815.8 540.6 L819.1 537.4 L822.2 534.1 L825.2 530.9 L828 527.6 L830.7 524.2 L833.3 520.9 L835.8 517.5 L838.1 514.1 L840.3 510.6 L842.4 507.2 L844.3 503.7 L846.2 500.3 L847.9 496.8 L849.6 493.3 L851.2 489.7 L852.6 486.2 L854 482.7 L855.3 479.1 L856.5 475.6 L857.6 472 L858.7 468.5 L859.7 464.9 L860.6 461.3 L861.5 457.8 L862.3 454.2 L863 450.6 L863.7 447 L864.3 443.4 L864.9 439.9 L865.4 436.3 L865.9 432.7 L866.3 429.1 L866.7 425.5 L867.1 421.9 L867.4 418.3 L867.7 414.7 L867.9 411.1 L868.1 407.5 L868.3 403.9 L868.4 400.3 L868.5 396.7 L868.6 393.1 L868.6 389.5 L868.6 385.9 L868.6 382.3 L868.5 378.7 L868.4 375.1 L868.3 371.5 L868.2 367.9 L868 364.3 L867.8 360.7 L867.6 357.1 L867.3 353.5 L867.1 349.9 L866.7 346.3 L866.4 342.7 L866 339.1 L865.6 335.5 L865.2 331.9 L864.8 328.3 L864.3 324.7 L863.8 321.2 L863.2 317.6 L862.7 314 L862 310.4" stroke="#b0cdbf"/>
<path d="M-189.8 354.9 L-188.3 351.3 L-186.6 347.8 L-184.7 344.4 L-182.7 340.9 L-180.5 337.5 L-178.2 334.1 L-175.7 330.7 L-173.1 327.3 L-170.3 324 L-167.4 320.7 L-164.3 317.5 L-161.1 314.3 L-157.7 311.1 L-154.2 307.9 L-150.6 304.8 L-146.9 301.7 L-143 298.7 L-138.9 295.7 L-134.8 292.8 L-130.5 289.9 L-126.1 287 L-121.6 284.2 L-117 281.5 L-112.2 278.8 L-107.3 276.1 L-102.4 273.5 L-97.3 271 L-92.1 268.5 L-86.8 266 L-81.4 263.6 L-76 261.3 L-70.4 259 L-64.7 256.8 L-59 254.6 L-53.2 252.5 L-47.2 250.4 L-41.3 248.4 L-35.2 246.5 L-29.1 244.6 L-22.9 242.8 L-16.6 241 L-10.3 239.3 L-3.9 237.6 L2.5 236 L9 234.5 L15.6 233 L22.2 231.5 L28.8 230.1 L35.5 228.8 L42.3 227.5 L49 226.3 L55.8 225.1 L62.7 224 L69.5 222.9 L76.4 221.9 L83.4 220.9 L90.3 220 L97.3 219.1 L104.3 218.3 L111.3 217.5 L118.4 216.7 L125.4 216 L132.5 215.3 L139.6 214.7 L146.7 214.1 L153.8 213.6 L160.9 213.1 L168.1 212.6 L175.2 212.2 L182.4 211.8 L189.5 211.4 L196.7 211.1 L203.9 210.8 L211.1 210.5 L218.2 210.3 L225.4 210 L232.6 209.9 L239.8 209.7 L247 209.6 L254.2 209.5 L261.4 209.4 L268.6 209.4 L275.8 209.4 L283 209.4 L290.2 209.4 L297.4 209.4 L304.6 209.5 L311.8 209.6 L319 209.7 L326.2 209.8 L333.4 210 L340.6 210.1 L347.8 210.3 L355 210.5 L362.2 210.7 L369.3 210.9 L376.5 211.2 L383.7 211.4 L390.9 211.6 L398.1 211.9 L405.3 212.1 L412.5 212.3 L419.6 212.6 L426.8 212.8 L434 213 L441.2 213.2 L448.4 213.3 L455.6 213.4 L462.8 213.5 L470 213.5 L477.2 213.5 L484.4 213.4 L491.6 213.2 L498.8 212.9 L505.9 212.6 L513.1 212.1 L520.2 211.5 L527.2 210.8 L534.2 209.9 L541.1 208.9 L547.9 207.7 L554.5 206.3 L561 204.7 L567.2 202.9 L573.2 200.8 L578.8 198.6 L584.1 196.2 L589 193.6 L593.5 190.7 L597.5 187.7 L601 184.6 L603.9 181.3 L606.2 177.9 L608 174.4 L609.2 170.9 L609.7 167.3 L609.7 163.7 L609.1 160.1 L608 156.5 L606.3 153 L604.1 149.6 L601.5 146.2 L598.4 143 L594.9 139.9 L591 136.8 L586.7 133.9 L582.1 131.1 L577.3 128.5 L572.2 125.9 L561.5 121.1 L555.9 118.8 L550.2 116.7 L544.2 114.6 L538.2 112.7 L532 110.9 L525.6 109.2 L519.2 107.5 L512.7 106 L506.1 104.5 L499.5 103.1 L492.8 101.8 L486.1 100.5 L479.3 99.3 L472.5 98.2 L465.6 97 L458.7 96 L451.9 94.9 L444.9 93.9 L438 92.9 L431.1 91.9 L424.1 91 L417.2 90.1 L410.2 89.1 L403.3 88.2 L396.3 87.3 L389.3 86.4 L382.4 85.5 L375.4 84.6 L368.4 83.7 L361.4 82.8 L354.5 81.9 L347.5 81 L340.6 80.1 L333.6 79.1 L326.6 78.2 L319.7 77.3 L312.8 76.3 L305.8 75.3 L298.9 74.4 L292 73.4 L285.1 72.4 L278.1 71.4 L271.2 70.3 L264.4 69.3 L257.5 68.2 L250.6 67.2 L243.7 66.1 L236.9 65 L230 63.9 L223.2 62.8 L216.3 61.6 L209.5 60.5 L202.7 59.4 L195.9 58.2 L189 57 L182.2 55.8 L175.4 54.7 L168.7 53.5 L161.9 52.3 L155.1 51.1 L148.3 49.8 L141.5 48.6 L134.8 47.4 L128 46.2 L121.2 45 L114.4 43.7 L107.7 42.5 L100.9 41.3 L94.1 40.1 L87.3 38.9 L80.5 37.7 L73.7 36.5 L66.9 35.4 L60.1 34.2 L53.3 33.1 L46.4 32 L39.6 30.9 L32.7 29.8 L25.8 28.7 L18.9 27.7 L12 26.7 L5 25.8 L-1.9 24.9 L-8.9 24 L-15.9 23.1 L-22.9 22.3 L-30 21.6 L-37.1 20.9 L-44.2 20.3 L-51.3 19.7 L-58.4 19.2 L-65.5 18.8 L-72.7 18.4 L-79.9 18.1 L-87 17.8 L-94.2 17.7 L-101.4 17.6 L-108.6 17.6 L-115.8 17.7 L-123 17.9 L-130.2 18.2 L-137.4 18.5 L-144.5 19 L-151.6 19.5 L-158.7 20.1 L-165.8 20.8 L-172.8 21.6 L-179.8 22.5 L-186.7 23.5 L-193.6 24.6 L-200.4 25.7 L-207.2 26.9 L-213.9 28.2 L-220.6 29.6 L-227.2 31.1 L-233.7 32.6 L-240.2 34.1 L-246.6 35.7 L-253 37.4 L-259.3 39.2 L-265.6 40.9 L-271.8 42.8 L-277.9 44.6 L-284.1 46.5 L-290.1 48.4 L-296.2 50.4 L-302.2 52.4 L-308.2 54.4 L-314.1 56.4 L-320 58.5 L-325.9 60.5 L-331.8 62.6 L-337.7 64.7 L-343.5 66.8 L-349.4 68.9 L-355.2 71" stroke="#d6cab2"/>
<path d="M-129 507.4 L-132.4 504.2 L-135.8 501.1 L-139.2 497.9 L-142.4 494.7 L-145.6 491.5 L-148.8 488.2 L-151.8 484.9 L-154.8 481.7 L-157.7 478.4 L-160.5 475.1 L-163.2 471.7 L-165.8 468.4 L-168.4 465 L-170.8 461.6 L-173.2 458.2 L-175.5 454.8 L-177.7 451.4 L-179.7 447.9 L-181.7 444.5 L-183.6 441 L-185.3 437.5 L-187 434 L-188.5 430.5 L-189.9 426.9 L-191.2 423.4 L-192.4 419.9 L-193.4 416.3 L-194.4 412.7 L-195.1 409.1 L-195.8 405.6 L-196.3 402 L-196.7 398.4 L-196.9 394.8 L-197 391.2 L-197 387.6 L-196.8 384 L-196.5 380.4 L-196 376.8 L-195.4 373.2 L-194.6 369.6 L-193.6 366.1 L-192.6 362.5 L-191.3 358.9 L-189.9 355.4 L-188.4 351.9 L-186.7 348.4 L-184.8 344.9 L-182.8 341.5 L-180.6 338 L-178.3 334.6 L-175.9 331.2 L-173.2 327.9 L-170.5 324.6 L-167.6 321.3 L-164.5 318 L-161.3 314.8 L-158 311.6 L-154.5 308.4 L-150.9 305.3 L-147.1 302.3 L-143.2 299.2 L-139.2 296.2 L-135 293.3 L-130.8 290.4 L-126.4 287.6 L-121.8 284.8 L-117.2 282 L-112.5 279.3 L-107.6 276.7 L-102.6 274.1 L-97.5 271.5 L-92.3 269 L-87 266.6 L-81.6 264.2 L-76.1 261.9 L-70.6 259.6 L-64.9 257.4 L-59.1 255.2 L-53.3 253.1 L-47.4 251.1 L-41.4 249.1 L-35.3 247.1 L-29.1 245.3 L-22.9 243.5 L-16.6 241.7 L-10.3 240 L-3.8 238.4 L2.6 236.8 L9.2 235.3 L15.7 233.8 L22.4 232.4 L29 231.1 L35.8 229.8 L42.5 228.6 L49.3 227.4 L56.2 226.3 L63.1 225.2 L70 224.2 L76.9 223.2 L83.9 222.3 L90.9 221.5 L97.9 220.7 L105 220 L112 219.3 L119.1 218.6 L126.2 218.1 L133.3 217.5 L140.5 217.1 L147.6 216.6 L154.8 216.3 L162 216 L169.1 215.7 L176.3 215.5 L183.5 215.3 L190.7 215.2 L197.9 215.2 L205.1 215.2 L212.3 215.3 L219.5 215.4 L226.7 215.6 L233.9 215.9 L241 216.3 L248.2 216.7 L255.3 217.2 L262.4 217.7 L269.5 218.4 L276.6 219.1 L283.6 220 L290.5 220.9 L297.4 221.9 L304.2 223.1 L311 224.4 L317.6 225.7 L324.2 227.3 L330.5 228.9 L336.8 230.7 L342.9 232.6 L348.7 234.7 L354.4 237 L359.7 239.4 L364.8 241.9 L369.6 244.6 L374 247.5 L378 250.4 L381.6 253.6 L384.7 256.8 L387.3 260.2 L389.5 263.6 L391.1 267.1 L393.2 274.2 L393.8 277.8 L393.8 281.4 L393.3 285 L392.3 288.6 L390.8 292.1 L388.8 295.6 L386.4 299 L383.6 302.3 L380.5 305.5 L376.9 308.6 L373.1 311.7 L369 314.6 L364.6 317.5 L360.1 320.3 L355.3 323 L350.4 325.6 L345.3 328.2 L340.1 330.7 L334.9 333.1 L329.5 335.5 L324.1 337.9 L318.6 340.2 L313.1 342.5 L307.5 344.8 L302 347.1 L296.5 349.4 L290.9 351.7 L285.4 354.1 L279.9 356.4 L274.5 358.8 L269.1 361.1 L263.8 363.6 L258.5 366 L253.4 368.5 L248.3 371.1 L243.3 373.7 L238.5 376.4 L233.8 379.1 L229.2 381.8 L224.7 384.7 L220.4 387.6 L216.3 390.5 L212.3 393.5 L208.5 396.6 L204.9 399.7 L201.5 402.9 L198.3 406.1 L195.3 409.4 L192.6 412.7 L190 416.1 L187.7 419.5 L185.7 422.9 L183.9 426.4 L182.3 429.9 L181 433.5 L179.9 437 L179 440.6 L178.4 444.2 L178.1 447.8 L177.9 451.4 L178.1 455 L178.4 458.6 L179 462.2 L179.8 465.7 L180.8 469.3 L182.1 472.8 L183.5 476.4 L185.1 479.9 L187 483.4 L189 486.8 L191.2 490.2 L193.6 493.6 L196.2 497 L198.9 500.3 L201.8 503.6 L204.9 506.9 L208 510.1 L211.4 513.3 L214.9 516.5 L218.5 519.6 L222.2 522.6 L226.1 525.7 L230.1 528.7 L234.2 531.6 L238.4 534.5 L242.8 537.4 L247.2 540.2 L251.8 543 L256.5 545.8 L261.2 548.5 L266.1 551.1 L271 553.7 L276.1 556.3 L281.2 558.8 L286.4 561.3 L291.7 563.8 L297.1 566.1 L302.6 568.5 L308.1 570.8 L313.8 573 L319.5 575.2 L325.3 577.3 L331.1 579.4 L337.1 581.5 L343.1 583.5 L349.1 585.4 L355.3 587.3 L361.5 589.1 L367.7 590.9 L374.1 592.6 L380.4 594.3 L386.9 595.9 L393.4 597.4 L399.9 598.9 L406.5 600.4 L413.2 601.7 L419.9 603 L426.7 604.3 L433.5 605.5 L440.3 606.6 L447.2 607.7 L454.1 608.7 L461 609.6 L468 610.5 L475 611.3 L482.1 612 L489.2 612.7 L496.3 613.3 L503.4 613.8 L510.5 614.3 L517.7 614.7 L524.9 615 L532 615.2 L539.2 615.4 L546.4 615.5 L553.6 615.6 L560.8 615.5 L568 615.4 L575.2 615.2 L582.4 615 L589.6 614.6 L596.7 614.2 L603.9 613.7 L611 613.2 L618 612.5 L625.1 611.8 L632.1 611 L639.1 610.1 L646 609.2" stroke="#c8bcd2"/>
<path d="M-161.8 315 L-158.4 311.8 L-155 308.6 L-151.4 305.5 L-147.6 302.4 L-143.8 299.4 L-139.8 296.4 L-135.7 293.4 L-131.4 290.5 L-127 287.7 L-122.5 284.9 L-117.9 282.1 L-113.2 279.4 L-108.3 276.7 L-103.4 274.1 L-98.3 271.5 L-93.2 269 L-87.9 266.6 L-82.5 264.2 L-77.1 261.8 L-71.5 259.5 L-65.9 257.3 L-60.1 255.1 L-54.3 253 L-48.4 250.9 L-42.5 248.9 L-36.4 247 L-30.3 245.1 L-24.1 243.2 L-17.9 241.4 L-11.5 239.7 L-5.2 238.1 L1.3 236.4 L7.8 234.9 L14.3 233.4 L20.9 231.9 L27.6 230.5 L34.2 229.2 L41 227.9 L47.7 226.7 L54.5 225.5 L61.4 224.4 L68.2 223.3 L75.1 222.3 L82.1 221.3 L89 220.4 L96 219.5 L103 218.7 L110 217.9 L117.1 217.1 L124.1 216.4 L131.2 215.8 L138.3 215.2 L145.4 214.6 L152.6 214.1 L159.7 213.6 L166.8 213.1 L174 212.7 L181.1 212.3 L188.3 212 L195.5 211.7 L202.7 211.4 L209.9 211.2 L217 211 L224.2 210.9 L231.4 210.7 L238.6 210.7 L245.8 210.6 L253 210.6 L260.2 210.6 L267.4 210.7 L274.6 210.7 L281.8 210.9 L289 211 L296.2 211.2 L303.4 211.4 L310.6 211.7 L317.7 212 L324.9 212.3 L332.1 212.7 L339.2 213.1 L346.4 213.6 L353.5 214.1 L360.6 214.6 L367.7 215.2 L374.8 215.8 L381.9 216.5 L388.9 217.2 L396 218 L403 218.8 L410 219.7 L416.9 220.6 L423.8 221.6 L430.7 222.6 L437.6 223.8 L444.4 224.9 L451.2 226.2 L457.9 227.5 L464.5 228.8 L471.1 230.3 L477.6 231.8 L484.1 233.4 L490.5 235.1 L496.8 236.8 L503 238.6 L509.1 240.5 L515.2 242.5 L521.1 244.5 L526.9 246.7 L532.6 248.9 L538.1 251.2 L543.5 253.5 L548.8 256 L553.9 258.5 L558.9 261.1 L563.6 263.8 L568.3 266.6 L572.7 269.4 L576.9 272.3 L581 275.3 L584.8 278.4 L588.5 281.5 L591.9 284.6 L595 287.9 L597.9 291.2 L600.6 294.5 L603 297.9 L605.2 301.3 L607 304.8 L608.5 308.3 L609.8 311.9 L610.7 315.5 L611.3 319 L611.5 322.6 L611.4 326.2 L610.9 329.8 L610 333.4 L608.7 336.9 L607 340.4 L604.9 343.9 L602.5 347.3 L599.6 350.6 L596.2 353.8 L592.6 356.9 L588.5 359.8 L584 362.7 L579.2 365.3 L574.1 367.9 L568.7 370.3 L563.1 372.5 L551.2 376.6 L545.1 378.5 L538.8 380.2 L532.3 381.7 L525.6 383.1 L518.9 384.4 L512.1 385.5 L505.1 386.5 L498.1 387.4 L491.1 388.1 L484 388.8 L476.9 389.3 L469.8 389.8 L462.6 390.2 L455.5 390.6 L448.3 390.9 L441.1 391.2 L433.9 391.4 L426.7 391.6 L419.6 391.9 L412.4 392.1 L405.2 392.3 L398 392.6 L390.8 392.9 L383.6 393.2 L376.5 393.6 L369.3 394 L362.2 394.5 L355.1 395 L348 395.6 L340.9 396.3 L333.9 397.1 L326.9 398 L320 399 L313.1 400.1 L306.4 401.3 L299.7 402.6 L293.1 404.1 L286.6 405.6 L280.2 407.3 L274 409.1 L267.9 411.1 L262 413.1 L256.4 415.3 L250.9 417.7 L245.6 420.1 L240.6 422.7 L235.8 425.4 L231.3 428.2 L227.1 431.1 L223.2 434.1 L219.5 437.3 L216.2 440.5 L213.3 443.7 L210.6 447.1 L208.3 450.5 L206.4 454 L204.8 457.5 L203.5 461 L202.5 464.6 L201.9 468.2 L201.6 471.8 L201.6 475.4 L201.9 479 L202.6 482.5 L203.5 486.1 L204.7 489.7 L206.1 493.2 L207.8 496.7 L209.8 500.2 L212 503.6 L214.4 507 L217 510.3 L219.8 513.6 L222.9 516.9 L226.1 520.1 L229.5 523.3 L233 526.4 L236.7 529.5 L240.6 532.6 L244.6 535.5 L248.8 538.5 L253 541.4 L257.5 544.2 L262 547 L266.7 549.8 L271.4 552.5 L276.3 555.1 L281.3 557.7 L286.4 560.2 L291.6 562.7 L296.9 565.2 L302.3 567.6 L307.7 569.9 L313.3 572.2 L318.9 574.4 L324.6 576.6 L330.4 578.8 L336.3 580.8 L342.3 582.9 L348.3 584.8 L354.4 586.7 L360.6 588.6 L366.8 590.4 L373.1 592.2 L379.5 593.8 L385.9 595.5 L392.3 597 L398.9 598.6 L405.5 600 L412.1 601.4 L418.8 602.7 L425.5 604 L432.3 605.2 L439.1 606.4 L446 607.4 L452.9 608.4 L459.9 609.4 L466.8 610.3 L473.9 611.1 L480.9 611.8 L488 612.5 L495.1 613.1 L502.2 613.7 L509.3 614.2 L516.5 614.6 L523.6 614.9 L530.8 615.2 L538 615.4 L545.2 615.5 L552.4 615.6 L559.6 615.5 L566.8 615.4 L574 615.3 L581.2 615 L588.3 614.7 L595.5 614.3 L602.6 613.8 L609.8 613.3 L616.8 612.6 L623.9 611.9 L630.9 611.2 L637.9 610.3 L644.9 609.4 L651.8 608.3 L658.6 607.2 L665.4 606 L672.2 604.8 L678.8 603.4 L685.5 602" stroke="#d6b3c0"/>
<path d="M22.1 231.7 L28.8 230.3 L35.5 229 L42.2 227.7 L49 226.5 L55.8 225.3 L62.6 224.2 L69.5 223.1 L76.4 222.1 L83.3 221.1 L90.3 220.2 L97.3 219.3 L104.3 218.5 L111.3 217.7 L118.4 217 L125.4 216.3 L132.5 215.6 L139.6 215 L146.7 214.5 L153.9 214 L161 213.5 L168.1 213 L175.3 212.6 L182.5 212.2 L189.6 211.9 L196.8 211.6 L204 211.4 L211.2 211.1 L218.4 211 L225.5 210.8 L232.7 210.7 L239.9 210.6 L247.1 210.5 L254.3 210.5 L261.5 210.5 L268.7 210.6 L275.9 210.7 L283.1 210.8 L290.3 211 L297.5 211.1 L304.7 211.4 L311.9 211.6 L319.1 211.9 L326.2 212.2 L333.4 212.6 L340.5 213 L347.7 213.5 L354.8 213.9 L362 214.5 L369.1 215 L376.2 215.7 L383.2 216.3 L390.3 217 L397.3 217.8 L404.4 218.6 L411.4 219.4 L418.3 220.3 L425.3 221.3 L432.2 222.3 L439 223.4 L445.9 224.5 L452.7 225.7 L459.4 226.9 L466.1 228.3 L472.8 229.6 L479.4 231.1 L485.9 232.6 L492.4 234.2 L498.8 235.8 L505.1 237.5 L511.4 239.3 L517.5 241.2 L523.6 243.1 L529.6 245.1 L535.5 247.2 L541.2 249.3 L546.9 251.6 L552.5 253.8 L557.9 256.2 L563.3 258.6 L568.5 261.1 L573.6 263.6 L578.5 266.2 L583.4 268.9 L588.1 271.7 L592.6 274.4 L597 277.3 L601.3 280.2 L605.4 283.1 L609.4 286.1 L613.3 289.2 L617 292.2 L620.6 295.4 L624 298.5 L627.3 301.7 L630.4 305 L633.4 308.3 L636.2 311.6 L638.9 314.9 L641.5 318.3 L643.9 321.7 L646.1 325.1 L648.2 328.5 L650.2 332 L652 335.5 L653.7 339 L655.2 342.5 L656.5 346 L657.7 349.6 L658.8 353.1 L659.7 356.7 L660.4 360.3 L661 363.9 L661.4 367.5 L661.6 371.1 L661.7 374.7 L661.6 378.3 L661.3 381.9 L660.8 385.5 L660.1 389.1 L659.3 392.6 L658.2 396.2 L657 399.7 L655.5 403.3 L653.8 406.8 L652 410.2 L649.9 413.7 L647.6 417.1 L645.1 420.5 L642.3 423.8 L639.4 427.1 L636.2 430.3 L632.8 433.5 L629.2 436.6 L625.4 439.7 L621.3 442.6 L617.1 445.6 L612.7 448.4 L608.1 451.2 L603.3 453.9 L598.4 456.5 L593.3 459 L588.1 461.5 L582.7 463.9 L577.2 466.2 L571.6 468.5 L565.8 470.7 L560 472.8 L554.1 474.8 L548.2 476.9 L536.1 480.8 L530 482.7 L523.9 484.6 L517.8 486.5 L511.6 488.4 L505.5 490.2 L499.3 492.1 L493.2 494 L487.1 495.9 L481 497.8 L475 499.8 L469.1 501.9 L463.2 504 L457.5 506.2 L451.9 508.4 L446.5 510.8 L441.2 513.2 L436.2 515.8 L431.3 518.5 L426.8 521.3 L422.6 524.2 L418.7 527.2 L415.2 530.4 L412.2 533.6 L409.6 537 L407.5 540.4 L405.9 543.9 L404.8 547.5 L404.3 551.1 L404.3 554.7 L404.9 558.3 L406.1 561.8 L407.8 565.3 L410 568.8 L412.8 572.1 L416 575.3 L419.6 578.4 L423.6 581.4 L428 584.2 L432.8 587 L437.9 589.5 L443.2 591.9 L448.8 594.2 L454.6 596.3 L460.6 598.3 L466.8 600.1 L473.2 601.8 L479.6 603.4 L486.2 604.8 L493 606.1 L499.8 607.3 L506.6 608.4 L513.6 609.3 L520.6 610.2 L527.6 610.9 L534.7 611.5 L541.9 612 L549 612.4 L556.2 612.7 L563.4 612.9 L570.6 613 L577.8 613 L585 612.9 L592.2 612.7 L599.4 612.4 L606.5 612 L613.7 611.5 L620.8 611 L627.9 610.3 L634.9 609.6 L641.9 608.8 L648.9 607.9 L655.8 606.8 L662.6 605.8 L669.4 604.6 L676.2 603.3 L682.9 602 L689.5 600.5 L696 599 L702.4 597.4 L708.8 595.7 L715 593.9 L721.2 592 L727.2 590.1 L733.2 588 L739 585.9 L744.7 583.7 L750.3 581.5 L755.7 579.1 L761.1 576.7 L766.3 574.2 L771.3 571.6 L776.2 569 L781 566.3 L785.6 563.5 L790 560.7 L794.3 557.8 L798.5 554.9 L802.5 551.9 L806.3 548.8 L810 545.7 L813.5 542.6 L816.9 539.4 L820.1 536.2 L823.2 532.9 L826.2 529.7 L829 526.3 L831.6 523 L834.2 519.6 L836.6 516.2 L838.9 512.8 L841 509.4 L843.1 505.9 L845 502.5 L846.8 499 L848.5 495.5 L850.2 492 L851.7 488.5 L853.1 484.9 L854.5 481.4 L855.7 477.9 L856.9 474.3 L858 470.7 L859.1 467.2 L860 463.6 L860.9 460 L861.8 456.5 L862.5 452.9 L863.3 449.3 L863.9 445.7 L864.5 442.1 L865.1 438.5 L865.6 435 L866.1 431.4 L866.5 427.8 L866.9 424.2 L867.2 420.6 L867.5 417 L867.8 413.4 L868 409.8 L868.2 406.2 L868.3 402.6 L868.5 399 L868.5 395.4 L868.6 391.8 L868.6 388.2 L868.6 384.6 L868.6 381 L868.5 377.4 L868.4 373.8" stroke="#aab6d2"/>
<path d="M425.8 -176.6 L425.6 -173 L425.7 -169.4 L426 -165.8 L426.6 -162.2 L427.5 -158.6 L428.7 -155.1 L430.1 -151.5 L431.9 -148.1 L433.9 -144.6 L436.3 -141.2 L438.9 -137.8 L441.8 -134.5 L445 -131.3 L448.4 -128.2 L452.1 -125.1 L456 -122.1 L460.2 -119.1 L464.6 -116.3 L469.3 -113.5 L474.1 -110.9 L479.1 -108.3 L484.3 -105.8 L489.7 -103.4 L495.3 -101.1 L500.9 -98.9 L506.8 -96.8 L512.7 -94.7 L518.8 -92.8 L524.9 -90.9 L531.2 -89.2 L537.5 -87.5 L544 -85.8 L550.5 -84.3 L557 -82.8 L563.6 -81.4 L570.3 -80 L577 -78.7 L583.8 -77.5 L590.5 -76.2 L597.3 -75.1 L604.2 -73.9 L611 -72.8 L617.9 -71.7 L624.7 -70.6 L631.6 -69.5 L638.5 -68.5 L645.4 -67.4 L652.2 -66.3 L659.1 -65.2 L665.9 -64.1 L672.7 -62.9 L679.5 -61.7 L686.2 -60.4 L692.9 -59.1 L699.6 -57.7 L706.2 -56.3 L712.7 -54.7 L719.1 -53.1 L725.4 -51.3 L731.5 -49.5 L737.6 -47.5 L743.4 -45.4 L749.1 -43.2 L754.6 -40.9 L759.8 -38.4 L764.8 -35.8 L769.4 -33 L773.8 -30.2 L777.8 -27.2 L781.5 -24.1 L784.7 -20.9 L787.6 -17.6 L790 -14.2 L792.1 -10.7 L793.6 -7.2 L794.8 -3.7 L795.5 -0.1 L795.8 3.5 L795.6 7.1 L795 10.7 L794.1 14.3 L792.7 17.8 L789.2 24.8 L787 28.2 L784.5 31.6 L781.7 34.9 L778.5 38.1 L775 41.3 L771.2 44.3 L767.1 47.3 L762.8 50.2 L758.2 52.9 L753.3 55.6 L748.3 58.2 L743 60.6 L737.6 63 L731.9 65.2 L726.1 67.3 L720.1 69.4 L714 71.3 L707.8 73.1 L701.4 74.8 L695 76.3 L688.4 77.8 L681.8 79.2 L675.1 80.5 L668.3 81.7 L661.4 82.8 L654.5 83.8 L647.5 84.7 L640.5 85.5 L633.5 86.3 L626.4 87 L619.3 87.6 L612.2 88.1 L605 88.6 L597.9 89 L590.7 89.3 L583.5 89.6 L576.4 89.8 L569.2 90 L562 90.1 L554.8 90.2 L547.6 90.2 L540.4 90.2 L533.2 90.2 L526 90.1 L518.8 90 L511.6 89.8 L504.4 89.6 L497.2 89.4 L490 89.2 L482.8 88.9 L475.7 88.6 L468.5 88.2 L461.3 87.9 L454.2 87.5 L447 87 L439.9 86.6 L432.8 86.1 L425.6 85.6 L418.5 85.1 L411.4 84.6 L404.3 84 L397.2 83.4 L390.1 82.8 L383 82.2 L375.9 81.5 L368.8 80.8 L361.8 80.1 L354.7 79.4 L347.7 78.7 L340.6 77.9 L333.6 77.1 L326.6 76.3 L319.6 75.5 L312.6 74.7 L305.6 73.8 L298.6 72.9 L291.6 72 L284.7 71.1 L277.7 70.1 L270.8 69.2 L263.9 68.2 L257 67.2 L250 66.2 L243.2 65.1 L236.3 64.1 L229.4 63 L222.5 61.9 L215.7 60.9 L208.8 59.7 L202 58.6 L195.1 57.5 L188.3 56.3 L181.5 55.2 L174.7 54 L167.9 52.8 L161.1 51.7 L154.3 50.5 L147.5 49.3 L140.7 48.1 L133.9 46.9 L127.1 45.7 L120.3 44.5 L113.6 43.3 L106.8 42 L100 40.8 L93.2 39.6 L86.4 38.5 L79.6 37.3 L72.8 36.1 L66 34.9 L59.2 33.8 L52.3 32.7 L45.5 31.6 L38.6 30.5 L31.7 29.4 L24.8 28.4 L17.9 27.4 L11 26.4 L4 25.4 L-2.9 24.5 L-9.9 23.7 L-16.9 22.8 L-23.9 22.1 L-31 21.3 L-38.1 20.7 L-45.2 20 L-52.3 19.5 L-59.4 19 L-66.6 18.5 L-73.7 18.2 L-80.9 17.9 L-88.1 17.7 L-95.3 17.5 L-102.5 17.5 L-109.7 17.5 L-116.9 17.6 L-124.1 17.8 L-131.2 18.1 L-138.4 18.5 L-145.5 18.9 L-152.7 19.5 L-159.7 20.1 L-166.8 20.8 L-173.8 21.7 L-180.8 22.6 L-187.7 23.6 L-194.6 24.6 L-201.4 25.8 L-208.1 27" stroke="#b0cdbf"/>
<path d="M-188.8 429.9 L-190.2 426.4 L-191.5 422.8 L-192.6 419.3 L-193.7 415.7 L-194.6 412.1 L-195.3 408.6 L-196 405 L-196.5 401.4 L-196.8 397.8 L-197.1 394.2 L-197.1 390.6 L-197.1 387 L-196.9 383.4 L-196.5 379.8 L-196 376.2 L-195.4 372.6 L-194.6 369 L-193.6 365.5 L-192.5 361.9 L-191.2 358.4 L-189.8 354.8 L-188.3 351.3 L-186.5 347.8 L-184.7 344.3 L-182.6 340.9 L-180.5 337.5 L-178.1 334.1 L-175.7 330.7 L-173 327.3 L-170.3 324 L-167.3 320.7 L-164.3 317.5 L-161.1 314.2 L-157.7 311 L-154.2 307.9 L-150.6 304.8 L-146.8 301.7 L-142.9 298.7 L-138.9 295.7 L-134.8 292.8 L-130.5 289.9 L-126.1 287 L-121.6 284.2 L-116.9 281.5 L-112.2 278.8 L-107.3 276.1 L-102.3 273.5 L-97.2 271 L-92.1 268.5 L-86.8 266 L-81.4 263.6 L-75.9 261.3 L-70.3 259 L-64.7 256.8 L-58.9 254.6 L-53.1 252.5 L-47.2 250.4 L-41.2 248.4 L-35.2 246.5 L-29 244.6 L-22.8 242.8 L-16.6 241 L-10.2 239.3 L-3.8 237.6 L2.6 236 L9.1 234.5 L15.7 233 L22.3 231.5 L28.9 230.2 L35.6 228.8 L42.3 227.5 L49.1 226.3 L55.9 225.1 L62.7 224 L69.6 222.9 L76.5 221.9 L83.4 220.9 L90.4 220 L97.4 219.1 L104.4 218.3 L111.4 217.5 L118.4 216.8 L125.5 216 L132.6 215.4 L139.7 214.8 L146.8 214.2 L153.9 213.6 L161 213.1 L168.2 212.7 L175.3 212.2 L182.5 211.8 L189.6 211.5 L196.8 211.1 L204 210.9 L211.2 210.6 L218.3 210.4 L225.5 210.2 L232.7 210 L239.9 209.8 L247.1 209.7 L254.3 209.6 L261.5 209.6 L268.7 209.6 L275.9 209.6 L283.1 209.6 L290.3 209.6 L297.5 209.7 L304.7 209.8 L311.9 209.9 L319.1 210 L326.3 210.2 L333.5 210.4 L340.7 210.6 L347.9 210.8 L355 211.1 L362.2 211.3 L369.4 211.6 L376.6 211.9 L383.8 212.2 L390.9 212.5 L398.1 212.8 L405.3 213.1 L412.4 213.5 L419.6 213.8 L426.8 214.1 L433.9 214.4 L441.1 214.8 L448.3 215.1 L455.5 215.3 L462.7 215.6 L469.8 215.8 L477 216 L484.2 216.2 L491.4 216.3 L498.6 216.3 L505.8 216.3 L513 216.2 L520.2 215.9 L527.4 215.6 L534.5 215.2 L541.6 214.6 L548.7 213.9 L555.7 213 L562.6 212 L569.3 210.8 L575.9 209.3 L582.4 207.7 L588.5 205.9 L594.5 203.8 L605.6 199.3 L610.9 196.8 L615.7 194.1 L620.2 191.3 L624.1 188.3 L627.5 185.1 L630.4 181.8 L632.8 178.4 L634.6 174.9 L635.8 171.4 L636.4 167.8 L636.4 164.2 L635.9 160.6 L634.9 157.1 L633.3 153.5 L631.2 150.1 L628.6 146.7 L625.6 143.5 L622.1 140.3 L618.3 137.3 L614.1 134.3 L609.6 131.5 L604.8 128.8 L599.7 126.3 L594.4 123.9 L588.8 121.6 L583.1 119.4 L577.2 117.3 L571.1 115.4 L565 113.5 L558.7 111.8 L552.3 110.1 L545.8 108.6 L539.2 107.1 L532.6 105.7 L525.9 104.4 L519.1 103.1 L512.4 101.9 L505.5 100.8 L498.7 99.7 L491.8 98.6 L484.9 97.6 L478 96.6 L471 95.6 L464.1 94.7 L457.1 93.8 L450.1 92.9 L443.1 92 L436.2 91.2 L429.2 90.3 L422.2 89.5 L415.2 88.6 L408.1 87.8 L401.1 87 L394.1 86.1 L387.1 85.3 L380.1 84.5 L373.1 83.6 L366.1 82.8 L359.2 81.9 L352.2 81 L345.2 80.2 L338.2 79.3 L331.2 78.4 L324.3 77.5 L317.3 76.5 L310.4 75.6 L303.4 74.7 L296.5 73.7 L289.5 72.7 L282.6 71.7 L275.7 70.7 L268.8 69.7 L261.9 68.7 L255 67.6 L248.1 66.6 L241.3 65.5 L234.4 64.4 L227.5 63.3 L220.7 62.2 L213.8 61.1 L207 59.9 L200.2 58.8 L193.4 57.6 L186.6 56.5 L179.8 55.3 L173 54.1 L166.2 52.9 L159.4 51.7 L152.6 50.5 L145.8 49.3 L139 48.1 L132.3 46.9 L125.5 45.7 L118.7 44.4 L111.9 43.2 L105.1 42 L98.4 40.8 L91.6 39.6 L84.8 38.4 L78 37.2 L71.2 36 L64.4 34.9 L57.5 33.7 L50.7 32.6 L43.9 31.5 L37 30.4 L30.1 29.3 L23.2 28.3 L16.3 27.3 L9.4 26.3 L2.4 25.4 L-4.5 24.5 L-11.5 23.6 L-18.5 22.8 L-25.6 22 L-32.6 21.3 L-39.7 20.6 L-46.8 20 L-53.9 19.5 L-61.1 19 L-68.2 18.6 L-75.4 18.2 L-82.5 17.9 L-89.7 17.7 L-96.9 17.6 L-104.1 17.6 L-111.3 17.6 L-118.5 17.7 L-125.7 18 L-132.9 18.3 L-140 18.6 L-147.2 19.1 L-154.3 19.7 L-161.4 20.4 L-168.4 21.1 L-175.4 21.9 L-182.4 22.9 L-189.3 23.9 L-196.1 25 L-202.9 26.1 L-209.7 27.4 L-216.4 28.7 L-223 30.1 L-229.6 31.6 L-236.1 33.1 L-242.6 34.7 L-249 36.3 L-255.3 38 L-261.6 39.8" stroke="#d6cab2"/>
<path d="M-118.3 282.3 L-113.5 279.6 L-108.7 276.9 L-103.8 274.3 L-98.7 271.7 L-93.5 269.2 L-88.3 266.8 L-82.9 264.3 L-77.5 262 L-71.9 259.7 L-66.3 257.5 L-60.6 255.3 L-54.8 253.1 L-48.9 251.1 L-42.9 249.1 L-36.9 247.1 L-30.8 245.2 L-24.6 243.4 L-18.3 241.6 L-12 239.8 L-5.6 238.2 L0.8 236.6 L7.3 235 L13.8 233.5 L20.4 232 L27.1 230.6 L33.7 229.3 L40.5 228 L47.2 226.8 L54 225.6 L60.9 224.5 L67.7 223.4 L74.6 222.3 L81.6 221.4 L88.5 220.4 L95.5 219.6 L102.5 218.7 L109.5 217.9 L116.6 217.2 L123.6 216.5 L130.7 215.8 L137.8 215.2 L144.9 214.6 L152 214.1 L159.1 213.6 L166.3 213.1 L173.4 212.7 L180.6 212.3 L187.8 212 L194.9 211.7 L202.1 211.4 L209.3 211.2 L216.5 211 L223.7 210.8 L230.9 210.7 L238.1 210.6 L245.3 210.5 L252.5 210.5 L259.7 210.5 L266.9 210.6 L274.1 210.6 L281.3 210.7 L288.5 210.9 L295.7 211.1 L302.8 211.3 L310 211.5 L317.2 211.8 L324.4 212.1 L331.5 212.5 L338.7 212.9 L345.8 213.3 L353 213.8 L360.1 214.3 L367.2 214.9 L374.3 215.5 L381.4 216.1 L388.5 216.8 L395.5 217.5 L402.6 218.3 L409.6 219.1 L416.5 220 L423.5 221 L430.4 221.9 L437.3 223 L444.2 224.1 L451 225.3 L457.7 226.5 L464.5 227.8 L471.1 229.1 L477.8 230.5 L484.3 232 L490.8 233.6 L497.3 235.2 L503.6 236.9 L509.9 238.6 L516.1 240.4 L522.3 242.3 L528.3 244.3 L534.3 246.3 L540.1 248.4 L545.9 250.6 L551.5 252.8 L557 255.1 L562.5 257.5 L567.8 259.9 L573 262.4 L578.1 264.9 L583 267.5 L587.9 270.2 L592.6 272.9 L597.2 275.7 L601.6 278.5 L606 281.4 L610.2 284.3 L614.3 287.3 L618.2 290.3 L622.1 293.3 L625.8 296.4 L629.4 299.5 L632.9 302.7 L636.3 305.8 L639.6 309.1 L642.7 312.3 L645.8 315.5 L648.8 318.8 L651.7 322.1 L654.5 325.4 L657.2 328.8 L659.8 332.1 L662.4 335.5 L664.9 338.9 L667.4 342.2 L669.8 345.6 L672.2 349 L674.6 352.4 L676.9 355.8 L679.3 359.2 L681.7 362.6 L684.1 366 L686.6 369.4 L689.1 372.8 L691.7 376.1 L694.5 379.4 L697.4 382.7 L700.4 386 L703.7 389.2 L707.2 392.4 L710.9 395.4 L714.9 398.4 L719.3 401.3 L728.7 406.7 L733.7 409.3 L739.1 411.7 L744.8 413.9 L750.9 415.8 L757.4 417.4 L764.1 418.7 L771.1 419.6 L778.2 420.1 L785.4 420.2 L792.5 419.9 L799.6 419.1 L806.4 418 L812.9 416.4 L819 414.5 L824.6 412.2 L829.8 409.7 L834.4 407 L838.6 404.1 L842.4 401 L845.7 397.8 L848.6 394.5 L851.1 391.1 L853.3 387.7 L855.2 384.2 L856.8 380.7 L858.2 377.2 L859.4 373.6 L860.4 370.1 L861.2 366.5 L861.9 362.9 L862.4 359.3 L862.8 355.7 L863.1 352.1 L863.3 348.5 L863.4 344.9 L863.4 341.3 L863.4 337.7 L863.3 334.1 L863.1 330.5 L862.8 326.9 L862.5 323.3 L862.2 319.7 L861.8 316.1 L861.3 312.6 L860.8 309 L860.2 305.4 L859.6 301.8 L859 298.2 L858.3 294.6 L857.6 291 L856.8 287.5 L855.9 283.9 L855.1 280.3 L854.1 276.7 L853.1 273.2 L852.1 269.6 L851 266.1 L849.9 262.5 L848.7 259 L847.4 255.4 L846.1 251.9 L844.7 248.3 L843.3 244.8 L841.7 241.3 L840.2 237.8 L838.5 234.3 L836.8 230.8 L834.9 227.3 L833 223.8 L831 220.4 L829 216.9 L826.8 213.5 L824.5 210.1 L822.1 206.7 L819.7 203.3 L817.1 199.9 L814.4 196.6 L811.6 193.3 L808.6 190 L805.6 186.7 L802.4 183.5 L799.1 180.3 L795.6 177.2 L792 174 L788.3 170.9 L784.5 167.9 L780.5 164.9 L776.3 162 L772 159.1 L767.6 156.2 L763 153.5 L758.3 150.8 L753.4 148.1 L748.4 145.5 L743.3 143 L738 140.5 L732.6 138.2 L727 135.9 L721.4 133.6 L715.6 131.5 L709.7 129.4 L703.7 127.4 L697.6 125.5 L691.5 123.7 L685.2 121.9 L678.8 120.2 L672.4 118.6 L665.9 117 L659.3 115.6 L652.7 114.2 L646 112.8 L639.3 111.5 L632.5 110.3 L625.7 109.2 L618.8 108.1 L612 107 L605 106 L598.1 105 L591.1 104.1 L584.2 103.2 L577.2 102.3 L570.2 101.5 L563.1 100.7 L556.1 100 L549.1 99.2 L542 98.5 L534.9 97.8 L527.9 97.1 L520.8 96.4 L513.7 95.8 L506.7 95.1 L499.6 94.5 L492.5 93.8 L485.4 93.2 L478.3 92.6 L471.2 91.9 L464.1 91.3 L457.1 90.6 L450 90 L442.9 89.3 L435.8 88.7 L428.7 88 L421.7 87.4 L414.6 86.7 L407.5 86 L400.5 85.3 L393.4 84.6 L386.4 83.8 L379.3 83.1" stroke="#c8bcd2"/>
<path d="M1058.6 519.4 L1059.6 522.9 L1060.7 526.5 L1061.8 530 L1063 533.6 L1064.3 537.1 L1065.5 540.7 L1066.9 544.2 L1068.3 547.7 L1069.7 551.3 L1071.2 554.8 L1072.8 558.3 L1074.3 561.8 L1076 565.3 L1077.7 568.8 L1079.4 572.3 L1081.1 575.8 L1082.9 579.3 L1084.7 582.8 L1086.6 586.3 L1088.4 589.7 L1090.3 593.2 L1092.2 596.7 L1094 600.2 L1095.9 603.7 L1097.7 607.1 L1099.5 610.6 L1101.3 614.1 L1103 617.6 L1104.6 621.1 L1106.2 624.6 L1107.6 628.2 L1109 631.7 L1110.2 635.2 L1111.3 638.8 L1112.2 642.4 L1112.9 646 L1113.4 649.5 L1113.7 653.1 L1113.8 656.7 L1113.5 660.3 L1113 663.9 L1112.2 667.5 L1111.1 671.1 L1109.6 674.6 L1107.7 678.1 L1105.5 681.5 L1102.9 684.9 L1100 688.1 L1096.7 691.3 L1093 694.4 L1089 697.4 L1084.6 700.3 L1080 703 L1075 705.6 L1069.7 708.1 L1064.2 710.4 L1058.5 712.6 L1052.6 714.6 L1046.4 716.5 L1040.2 718.3 L1033.7 719.9 L1027.2 721.4 L1020.5 722.7 L1013.7 724 L1006.9 725.1 L1000 726.1 L993 727 L986 727.8 L979 728.6 L971.9 729.2 L964.8 729.8 L957.6 730.2 L950.5 730.6 L943.3 731 L936.1 731.2 L928.9 731.4 L921.7 731.6 L914.5 731.7 L907.3 731.7 L900.1 731.7 L892.9 731.6 L885.7 731.5 L878.6 731.3 L871.4 731.1 L864.2 730.8 L857 730.5 L849.8 730.1 L842.7 729.7 L835.6 729.3 L828.4 728.7 L821.3 728.2 L814.2 727.5 L807.2 726.9 L800.1 726.1 L793.1 725.3 L786.1 724.4 L779.2 723.5 L772.3 722.4 L765.4 721.3 L758.7 720.1 L751.9 718.8 L745.3 717.4 L738.8 715.9 L732.3 714.3 L726.1 712.5 L719.9 710.7 L713.9 708.6 L708.1 706.5 L702.6 704.2 L697.3 701.8 L692.3 699.2 L687.7 696.4 L683.4 693.5 L679.5 690.5 L676 687.3 L673.1 684.1 L670.6 680.7 L668.7 677.2 L667.3 673.7 L666.4 670.1 L666.1 666.5 L666.4 662.9 L667.1 659.3 L668.3 655.8 L670 652.3 L672.1 648.8 L674.6 645.5 L677.5 642.2 L680.6 638.9 L684 635.7 L687.7 632.6 L691.6 629.6 L695.6 626.6 L699.8 623.7 L704.1 620.8 L708.5 618 L713 615.2 L717.6 612.4 L722.2 609.6 L726.9 606.9 L731.5 604.1 L736.2 601.4 L740.9 598.7 L745.5 595.9 L750.1 593.1 L754.7 590.4 L759.2 587.6 L763.7 584.7 L768.1 581.9 L776.7 576.1 L780.9 573.2 L785.1 570.3 L789.1 567.3 L793.1 564.3 L796.9 561.2 L800.7 558.2 L804.3 555 L807.8 551.9 L811.2 548.7 L814.4 545.5 L817.6 542.3 L820.6 539 L823.5 535.7 L826.3 532.4 L828.9 529 L831.5 525.7 L833.9 522.3 L836.3 518.9 L838.5 515.5 L840.6 512 L842.6 508.6 L844.5 505.1 L846.3 501.6 L848 498.1 L849.6 494.6 L851.1 491.1 L852.5 487.5 L853.9 484 L855.2 480.5 L856.4 476.9 L857.5 473.4 L858.5 469.8 L859.5 466.2 L860.4 462.7 L861.3 459.1 L862.1 455.5 L862.9 451.9 L863.5 448.3 L864.2 444.8 L864.8 441.2 L865.3 437.6 L865.8 434 L866.2 430.4 L866.6 426.8 L867 423.2 L867.3 419.6 L867.6 416 L867.9 412.4 L868.1 408.8 L868.2 405.2 L868.4 401.6 L868.5 398 L868.6 394.4 L868.6 390.8 L868.6 387.2 L868.6 383.6 L868.6 380 L868.5 376.4 L868.4 372.8 L868.3 369.2 L868.1 365.6 L867.9 362 L867.7 358.4 L867.4 354.8 L867.2 351.2 L866.9 347.6 L866.5 344 L866.2 340.4 L865.8 336.8 L865.4 333.2 L864.9 329.7 L864.5 326.1 L864 322.5 L863.4 318.9 L862.9 315.3 L862.3 311.7 L861.6 308.1 L861 304.5 L860.3 301 L859.5 297.4 L858.8 293.8 L858 290.2 L857.1 286.6 L856.2 283.1 L855.3 279.5 L854.3 275.9 L853.3 272.4 L852.2 268.8 L851.1 265.3 L849.9 261.7 L848.6 258.2 L847.4 254.6 L846 251.1 L844.6 247.5 L843.1 244 L841.6 240.5 L839.9 237 L838.3 233.5 L836.5 230 L834.6 226.5 L832.7 223.1 L830.7 219.6 L828.6 216.2 L826.4 212.7 L824.1 209.3 L821.7 205.9 L819.2 202.6 L816.6 199.2 L813.8 195.9 L811 192.6 L808 189.3 L804.9 186 L801.7 182.8 L798.4 179.6 L794.9 176.5 L791.3 173.4 L787.5 170.3 L783.6 167.3 L779.6 164.3 L775.4 161.3 L771.1 158.5 L766.6 155.6 L762 152.9 L757.3 150.2 L752.4 147.5 L747.3 145 L742.2 142.5 L736.9 140 L731.4 137.7 L725.9 135.4 L720.2 133.2 L714.4 131 L708.5 129 L702.5 127 L696.3 125.1 L690.1 123.3 L683.8 121.5 L677.5 119.9 L671 118.3 L664.5 116.7 L657.9 115.3 L651.3 113.9 L644.6 112.5 L637.8 111.3 L631.1 110.1 L624.2 108.9 L617.4 107.8 L610.5 106.8 L603.6 105.8" stroke="#d6b3c0"/>
<path d="M1559.4 254.6 L1554.1 252.2 L1548.7 249.8 L1543.4 247.4 L1538 245 L1532.7 242.6 L1527.3 240.2 L1521.9 237.8 L1516.5 235.4 L1511.1 233 L1505.7 230.7 L1500.3 228.3 L1494.8 225.9 L1489.4 223.6 L1484 221.2 L1478.5 218.8 L1473.1 216.5 L1467.6 214.2 L1462.1 211.8 L1456.6 209.5 L1451.1 207.2 L1445.6 204.8 L1440.1 202.5 L1434.6 200.2 L1429 197.9 L1423.5 195.6 L1417.9 193.3 L1412.4 191.1 L1406.8 188.8 L1401.2 186.5 L1395.5 184.3 L1389.9 182.1 L1384.2 179.8 L1378.5 177.6 L1372.8 175.4 L1367.1 173.2 L1361.4 171.1 L1355.6 168.9 L1349.8 166.8 L1343.9 164.7 L1338.1 162.6 L1332.2 160.6 L1326.2 158.5 L1320.2 156.5 L1314.2 154.5 L1308.2 152.6 L1302.1 150.7 L1295.9 148.8 L1289.7 147 L1283.5 145.2 L1277.2 143.4 L1270.8 141.7 L1264.4 140.1 L1258 138.5 L1251.5 136.9 L1244.9 135.4 L1238.3 134 L1231.7 132.6 L1225 131.3 L1218.2 130 L1211.4 128.9 L1204.6 127.7 L1197.7 126.7 L1190.8 125.7 L1183.9 124.7 L1176.9 123.8 L1169.9 123 L1162.8 122.3 L1155.7 121.6 L1148.6 121 L1141.5 120.4 L1134.4 119.9 L1127.3 119.5 L1120.1 119.1 L1112.9 118.8 L1105.8 118.5 L1098.6 118.2 L1091.4 118 L1084.2 117.9 L1077 117.7 L1069.8 117.6 L1062.6 117.6 L1055.4 117.5 L1048.2 117.5 L1041 117.5 L1033.8 117.5 L1026.6 117.5 L1019.4 117.5 L1012.2 117.5 L997.8 117.6 L990.6 117.6 L983.4 117.6 L976.2 117.6 L969 117.6 L961.8 117.6 L954.6 117.6 L947.4 117.5 L940.2 117.5 L933 117.4 L925.8 117.3 L918.6 117.1 L911.4 117 L904.2 116.8 L897 116.6 L889.9 116.3 L882.7 116.1 L875.5 115.8 L868.3 115.5 L861.1 115.2 L854 114.8 L846.8 114.5 L839.7 114.1 L832.5 113.7 L825.3 113.3 L818.2 112.9 L811.1 112.4 L803.9 112 L796.8 111.5 L789.6 111 L782.5 110.6 L775.4 110.1 L768.2 109.6 L761.1 109.1 L754 108.6 L746.8 108.1 L739.7 107.6 L732.6 107.1 L725.4 106.7 L718.3 106.2 L711.2 105.7 L704 105.2 L696.9 104.7 L689.7 104.3 L682.6 103.8 L675.5 103.3 L668.3 102.9 L661.2 102.4 L654 102 L646.9 101.5 L639.7 101.1 L632.6 100.7 L625.4 100.2 L618.3 99.8 L611.2 99.4 L604 99 L596.9 98.5 L589.7 98.1 L582.6 97.7 L575.4 97.3 L568.3 96.8 L561.1 96.4 L554 96 L546.8 95.6 L539.7 95.1 L532.5 94.7 L525.4 94.2 L518.2 93.8 L511.1 93.3 L504 92.8 L496.8 92.3 L489.7 91.9 L482.6 91.4 L475.4 90.8 L468.3 90.3 L461.2 89.8 L454.1 89.2 L447 88.7 L439.8 88.1 L432.7 87.5 L425.6 86.9 L418.5 86.3 L411.5 85.7 L404.4 85 L397.3 84.4 L390.2 83.7 L383.2 83 L376.1 82.3 L369.1 81.6 L362 80.8 L355 80 L347.9 79.3 L340.9 78.5 L333.9 77.6 L326.9 76.8 L319.9 76 L312.9 75.1 L306 74.2 L299 73.3 L292 72.4 L285.1 71.4 L278.1 70.5 L271.2 69.5 L264.3 68.5 L257.4 67.5 L250.5 66.5 L243.6 65.4 L236.7 64.4 L229.8 63.3 L223 62.2 L216.1 61.1 L209.3 60 L202.4 58.8 L195.6 57.7 L188.8 56.6 L182 55.4 L175.2 54.2 L168.4 53 L161.6 51.9 L154.8 50.7 L148 49.5 L141.2 48.3 L134.4 47.1 L127.6 45.8 L120.8 44.6 L114.1 43.4 L107.3 42.2 L100.5 41 L93.7 39.8 L86.9 38.6 L80.1 37.4 L73.3 36.3 L66.5 35.1 L59.7 33.9 L52.8 32.8 L46 31.7 L39.1 30.6 L32.3 29.5 L25.4 28.5 L18.5 27.5 L11.5 26.5 L4.6 25.6 L-2.4 24.6 L-9.4 23.8 L-16.4 22.9 L-23.4 22.2 L-30.5 21.4 L-37.5 20.7 L-44.6 20.1 L-51.7 19.6" stroke="#aab6d2"/>
<path d="M-35.1 246.5 L-29 244.7 L-22.8 242.8 L-16.5 241.1 L-10.2 239.3 L-3.8 237.7 L2.7 236.1 L9.2 234.5 L15.7 233 L22.3 231.6 L29 230.2 L35.7 228.9 L42.4 227.6 L49.2 226.4 L56 225.2 L62.8 224.1 L69.7 223.1 L76.6 222 L83.6 221.1 L90.5 220.2 L97.5 219.3 L104.5 218.5 L111.6 217.7 L118.6 216.9 L125.7 216.3 L132.7 215.6 L139.8 215 L147 214.4 L154.1 213.9 L161.2 213.4 L168.4 213 L175.5 212.6 L182.7 212.2 L189.8 211.9 L197 211.6 L204.2 211.3 L211.4 211.1 L218.6 210.9 L225.8 210.7 L233 210.6 L240.2 210.5 L247.4 210.5 L254.6 210.4 L261.8 210.5 L269 210.5 L276.2 210.6 L283.4 210.7 L290.5 210.8 L297.7 211 L304.9 211.2 L312.1 211.5 L319.3 211.8 L326.5 212.1 L333.6 212.4 L340.8 212.8 L347.9 213.2 L355.1 213.7 L362.2 214.2 L369.3 214.8 L376.4 215.3 L383.5 216 L390.6 216.6 L397.6 217.4 L404.7 218.1 L411.7 218.9 L418.7 219.8 L425.7 220.7 L432.6 221.7 L439.5 222.7 L446.4 223.7 L453.2 224.8 L460 226 L466.8 227.2 L473.5 228.5 L480.2 229.9 L486.9 231.3 L493.4 232.7 L500 234.2 L506.4 235.8 L512.9 237.4 L519.2 239.1 L525.5 240.9 L531.7 242.7 L537.9 244.6 L543.9 246.5 L550 248.5 L555.9 250.5 L561.8 252.6 L567.6 254.7 L573.3 256.9 L579 259.1 L584.6 261.4 L590.1 263.7 L595.6 266 L601 268.4 L606.4 270.8 L611.7 273.2 L617 275.6 L622.3 278.1 L627.6 280.5 L632.9 283 L638.1 285.4 L643.4 287.9 L648.8 290.3 L654.2 292.7 L659.7 295 L665.2 297.3 L670.9 299.5 L676.7 301.6 L682.7 303.7 L688.8 305.6 L695.1 307.3 L701.5 308.9 L708.1 310.3 L714.9 311.5 L721.9 312.4 L729 313.1 L736.2 313.4 L743.4 313.4 L750.5 313.1 L757.6 312.4 L764.5 311.4 L771.1 310 L777.5 308.3 L783.5 306.3 L789.1 304 L794.3 301.5 L799 298.8 L803.3 295.9 L807.2 292.9 L810.6 289.7 L813.6 286.5 L816.3 283.1 L818.6 279.7 L820.5 276.2 L822.1 272.7 L823.4 269.2 L824.5 265.6 L825.3 262.1 L825.8 258.5 L826.1 254.9 L826.2 251.3 L826.1 247.7 L825.8 244.1 L825.3 240.5 L824.7 236.9 L823.9 233.3 L822.9 229.8 L821.7 226.2 L820.4 222.7 L817.5 215.6 L815.9 212.1 L814.1 208.6 L812.2 205.1 L810.1 201.7 L807.9 198.3 L805.5 194.9 L802.9 191.5 L800.2 188.2 L797.3 184.9 L794.3 181.6 L791.1 178.4 L787.8 175.2 L784.3 172 L780.7 168.9 L776.9 165.9 L772.9 162.9 L768.8 159.9 L764.5 157 L760 154.2 L755.4 151.4 L750.7 148.7 L745.8 146.1 L740.7 143.5 L735.5 141 L730.2 138.6 L724.7 136.3 L719.1 134 L713.4 131.8 L707.6 129.7 L701.6 127.7 L695.6 125.7 L689.4 123.9 L683.2 122.1 L676.8 120.4 L670.4 118.7 L663.9 117.2 L657.4 115.7 L650.8 114.3 L644.1 112.9 L637.4 111.6 L630.6 110.4 L623.8 109.2 L617 108.1 L610.1 107 L603.2 106 L596.3 105 L589.3 104.1 L582.3 103.2 L575.3 102.3 L568.3 101.5 L561.3 100.7 L554.3 99.9 L547.2 99.2 L540.2 98.4 L533.1 97.7 L526.1 97 L519 96.4 L511.9 95.7 L504.8 95 L497.8 94.4 L490.7 93.7 L483.6 93.1 L476.5 92.4 L469.4 91.8 L462.3 91.2 L455.2 90.5 L448.2 89.9 L441.1 89.2 L434 88.6 L426.9 87.9 L419.9 87.2 L412.8 86.5 L405.7 85.8 L398.7 85.1 L391.6 84.4 L384.6 83.7 L377.5 82.9 L370.5 82.2 L363.5 81.4 L356.4 80.6 L349.4 79.8 L342.4 79 L335.4 78.1 L328.4 77.3 L321.4 76.4 L314.4 75.5 L307.5 74.6 L300.5 73.7 L293.6 72.8 L286.6 71.8 L279.7 70.9 L272.7 69.9 L265.8 68.9 L258.9 67.9 L252 66.8 L245.1 65.8 L238.3 64.7 L231.4 63.6 L224.5 62.5 L217.7 61.4 L210.8 60.3 L204 59.2 L197.2 58.1 L190.3 56.9 L183.5 55.7 L176.7 54.6 L169.9 53.4 L163.1 52.2 L156.3 51 L149.5 49.8 L142.8 48.6 L136 47.4 L129.2 46.2 L122.4 45 L115.6 43.8 L108.9 42.5 L102.1 41.3 L95.3 40.1 L88.5 38.9 L81.7 37.7 L74.9 36.6 L68.1 35.4 L61.3 34.3 L54.4 33.1 L47.6 32 L40.7 30.9 L33.9 29.8 L27 28.8 L20.1 27.8 L13.1 26.8 L6.2 25.8 L-0.8 24.9 L-7.7 24 L-14.7 23.2 L-21.8 22.4 L-28.8 21.6 L-35.9 20.9 L-43 20.3 L-50.1 19.7 L-57.2 19.2 L-64.3 18.7 L-71.5 18.3 L-78.7 18 L-85.8 17.8 L-93 17.6 L-100.2 17.5 L-107.4 17.5 L-114.6 17.6 L-121.8 17.8" stroke="#b0cdbf"/>
<path d="M1554.8 252.9 L1549.4 250.5 L1544 248.2 L1538.5 245.8 L1533.1 243.5 L1527.6 241.1 L1522.1 238.8 L1516.6 236.5 L1511 234.2 L1505.5 231.9 L1499.9 229.6 L1494.3 227.4 L1488.6 225.2 L1482.9 222.9 L1477.2 220.8 L1471.4 218.6 L1465.6 216.5 L1459.8 214.4 L1453.9 212.3 L1447.9 210.3 L1441.9 208.3 L1435.8 206.4 L1429.7 204.5 L1423.5 202.6 L1417.3 200.8 L1411 199.1 L1404.6 197.4 L1398.1 195.9 L1391.6 194.3 L1385 192.9 L1378.3 191.6 L1371.6 190.3 L1364.7 189.2 L1357.8 188.1 L1350.9 187.2 L1343.9 186.4 L1336.8 185.7 L1329.7 185.1 L1322.6 184.7 L1315.4 184.4 L1308.2 184.2 L1301 184.2 L1293.8 184.3 L1286.6 184.6 L1279.5 185 L1272.4 185.6 L1265.3 186.3 L1258.3 187.1 L1251.4 188.1 L1244.6 189.3 L1237.8 190.6 L1231.2 192 L1224.7 193.5 L1218.3 195.1 L1212 196.9 L1205.9 198.8 L1199.9 200.8 L1194 202.9 L1188.3 205.1 L1182.7 207.3 L1177.3 209.7 L1172 212.1 L1166.8 214.7 L1161.8 217.2 L1157 219.9 L1152.2 222.6 L1147.6 225.4 L1143.2 228.2 L1138.8 231.1 L1134.6 234 L1130.5 237 L1126.6 240 L1122.7 243 L1119 246.1 L1115.4 249.2 L1111.8 252.3 L1108.4 255.5 L1105 258.7 L1101.8 261.9 L1098.6 265.1 L1095.5 268.4 L1092.4 271.6 L1089.4 274.9 L1086.5 278.2 L1083.6 281.5 L1080.8 284.8 L1078 288.1 L1075.2 291.4 L1072.4 294.8 L1069.7 298.1 L1066.9 301.4 L1064.1 304.7 L1061.3 308 L1058.4 311.3 L1055.5 314.6 L1052.4 317.9 L1049.3 321.1 L1046.1 324.3 L1042.7 327.5 L1039.1 330.7 L1035.4 333.7 L1031.4 336.7 L1027.1 339.6 L1022.6 342.4 L1017.8 345.1 L1012.6 347.6 L1007.1 349.9 L1001.2 352 L995 353.8 L988.5 355.3 L981.7 356.5 L974.7 357.3 L967.5 357.7 L960.3 357.7 L953.2 357.3 L946.2 356.4 L939.4 355.2 L932.9 353.7 L926.8 351.8 L921 349.6 L915.7 347.2 L910.7 344.6 L906.1 341.8 L901.9 338.9 L898 335.9 L894.5 332.7 L891.2 329.5 L885.2 323 L882.4 319.7 L879.9 316.3 L877.5 312.9 L875.4 309.5 L873.3 306 L871.4 302.5 L869.6 299 L867.9 295.5 L866.3 292 L864.7 288.5 L863.2 285 L861.7 281.5 L860.2 278 L858.7 274.4 L857.2 270.9 L855.8 267.4 L854.3 263.9 L852.8 260.4 L851.3 256.8 L849.7 253.3 L848.1 249.8 L846.5 246.3 L844.8 242.8 L843.1 239.3 L841.3 235.8 L839.5 232.3 L837.6 228.9 L835.6 225.4 L833.5 222 L831.4 218.5 L829.2 215.1 L826.9 211.7 L824.5 208.3 L822 204.9 L819.4 201.5 L816.7 198.2 L813.9 194.9 L811 191.6 L808 188.3 L804.8 185.1 L801.5 181.9 L798.1 178.7 L794.6 175.6 L790.9 172.5 L787.1 169.4 L783.1 166.4 L779 163.5 L774.8 160.6 L770.4 157.7 L765.9 154.9 L761.3 152.2 L756.5 149.5 L751.5 146.8 L746.4 144.3 L741.2 141.8 L735.9 139.4 L730.4 137.1 L724.8 134.8 L719.1 132.6 L713.3 130.5 L707.3 128.5 L701.3 126.5 L695.1 124.6 L688.9 122.8 L682.6 121.1 L676.2 119.4 L669.7 117.9 L663.2 116.4 L656.6 114.9 L649.9 113.5 L643.2 112.2 L636.5 111 L629.7 109.8 L622.8 108.7 L616 107.6 L609.1 106.5 L602.2 105.5 L595.2 104.6 L588.2 103.7 L581.3 102.8 L574.3 102 L567.2 101.2 L560.2 100.4 L553.2 99.6 L546.1 98.9 L539.1 98.2 L532 97.5 L524.9 96.8 L517.9 96.1 L510.8 95.5 L503.7 94.8 L496.6 94.2 L489.5 93.6 L482.4 92.9 L475.4 92.3 L468.3 91.6 L461.2 91 L454.1 90.4 L447 89.7 L439.9 89.1 L432.9 88.4 L425.8 87.7 L418.7 87.1 L411.6 86.4 L404.6 85.7 L397.5 85 L390.5 84.3 L383.4 83.5 L376.4 82.8 L369.3 82 L362.3 81.2 L355.3 80.4 L348.3 79.6 L341.2 78.8 L334.2 78 L327.3 77.1 L320.3 76.3 L313.3 75.4 L306.3 74.5 L299.4 73.5 L292.4 72.6 L285.5 71.7 L278.5 70.7 L271.6 69.7 L264.7 68.7 L257.8 67.7 L250.9 66.6 L244 65.6 L237.1 64.5 L230.2 63.5 L223.4 62.4 L216.5 61.3 L209.7 60.1 L202.9 59 L196 57.9 L189.2 56.7 L182.4 55.5 L175.6 54.4 L168.8 53.2 L162 52 L155.2 50.8 L148.4 49.6 L141.6 48.4 L134.9 47.2 L128.1 46 L121.3 44.8 L114.5 43.6 L107.7 42.3 L100.9 41.1" stroke="#d6cab2"/>
<path d="M1556.6 253.7 L1551.2 251.3 L1545.8 249 L1540.4 246.6 L1534.9 244.3 L1529.5 241.9 L1524 239.6 L1518.5 237.3 L1512.9 235 L1507.4 232.7 L1501.8 230.4 L1496.2 228.2 L1490.5 225.9 L1484.8 223.7 L1479.1 221.5 L1473.3 219.4 L1467.6 217.2 L1461.7 215.1 L1455.8 213.1 L1449.9 211 L1443.9 209 L1437.8 207.1 L1431.7 205.2 L1425.6 203.3 L1419.3 201.5 L1413 199.8 L1406.6 198.1 L1400.2 196.5 L1393.7 195 L1387.1 193.5 L1380.4 192.1 L1373.7 190.9 L1366.9 189.7 L1360 188.6 L1353.1 187.7 L1346.1 186.9 L1339 186.1 L1331.9 185.6 L1324.8 185.1 L1317.6 184.8 L1310.4 184.6 L1303.2 184.6 L1296 184.7 L1288.8 184.9 L1281.7 185.3 L1274.5 185.9 L1267.5 186.6 L1260.5 187.4 L1253.6 188.4 L1246.7 189.5 L1240 190.8 L1233.3 192.2 L1226.8 193.7 L1220.4 195.4 L1214.2 197.2 L1208 199 L1202 201 L1196.2 203.1 L1190.5 205.3 L1184.9 207.6 L1179.5 210 L1174.2 212.5 L1169.1 215 L1164.2 217.6 L1159.4 220.3 L1154.7 223 L1150.2 225.8 L1145.8 228.7 L1141.5 231.6 L1137.4 234.5 L1133.5 237.5 L1129.6 240.6 L1125.9 243.7 L1122.3 246.8 L1118.8 249.9 L1115.5 253.1 L1112.3 256.3 L1109.1 259.6 L1106.1 262.9 L1103.2 266.2 L1100.4 269.5 L1097.7 272.8 L1095.1 276.2 L1092.6 279.5 L1090.2 282.9 L1087.9 286.3 L1085.6 289.8 L1083.5 293.2 L1081.4 296.6 L1079.4 300.1 L1077.5 303.6 L1075.6 307 L1073.9 310.5 L1072.2 314 L1070.5 317.5 L1069 321.1 L1067.4 324.6 L1066 328.1 L1064.6 331.6 L1063.3 335.2 L1062 338.7 L1060.8 342.3 L1059.6 345.8 L1058.5 349.4 L1057.4 352.9 L1056.4 356.5 L1055.4 360.1 L1054.4 363.6 L1053.5 367.2 L1052.6 370.8 L1051.8 374.3 L1050.9 377.9 L1050.1 381.5 L1049.4 385.1 L1048.6 388.7 L1047.8 392.2 L1047.1 395.8 L1046.3 399.4 L1045.6 403 L1044.8 406.6 L1044 410.1 L1043.2 413.7 L1042.4 417.3 L1041.5 420.9 L1040.5 424.4 L1039.5 428 L1038.4 431.5 L1037.1 435.1 L1035.8 438.6 L1034.3 442.1 L1032.6 445.7 L1030.8 449.1 L1028.7 452.6 L1026.3 456 L1023.7 459.3 L1020.8 462.6 L1017.5 465.8 L1013.8 468.9 L1009.7 471.9 L1005.1 474.7 L1000.1 477.2 L989.2 481.9 L983.3 484 L977 485.8 L970.4 487.2 L963.5 488.3 L956.5 488.9 L949.3 489.1 L942.1 488.9 L935 488.2 L928.2 487 L921.7 485.5 L915.6 483.6 L909.9 481.4 L904.7 478.9 L900.1 476.1 L895.9 473.2 L892.3 470.1 L889 466.9 L886.2 463.5 L883.8 460.1 L881.7 456.7 L879.9 453.2 L878.4 449.7 L877.1 446.2 L876 442.6 L875 439 L874.3 435.5 L873.6 431.9 L873 428.3 L872.6 424.7 L872.2 421.1 L871.8 417.5 L871.5 413.9 L871.2 410.3 L871 406.7 L870.8 403.1 L870.6 399.5 L870.4 395.9 L870.2 392.3 L870.1 388.7 L869.9 385.1 L869.7 381.5 L869.5 377.9 L869.3 374.3 L869 370.7 L868.8 367.1 L868.5 363.5 L868.3 359.9 L868 356.3 L867.7 352.7 L867.3 349.1 L867 345.5 L866.6 341.9 L866.2 338.4 L865.8 334.8 L865.3 331.2 L864.8 327.6 L864.3 324 L863.8 320.4 L863.2 316.8 L862.6 313.2 L862 309.6 L861.3 306 L860.6 302.5 L859.9 298.9 L859.2 295.3 L858.4 291.7 L857.5 288.1 L856.6 284.6 L855.7 281 L854.7 277.4 L853.7 273.9 L852.7 270.3 L851.6 266.8 L850.4 263.2 L849.2 259.7 L847.9 256.1 L846.6 252.6 L845.2 249 L843.8 245.5 L842.2 242 L840.7 238.5 L839 235 L837.3 231.5 L835.4 228 L833.6 224.5 L831.6 221.1 L829.5 217.6 L827.3 214.2 L825.1 210.8 L822.7 207.4 L820.3 204 L817.7 200.6 L815 197.3 L812.2 194 L809.3 190.7 L806.3 187.4 L803.1 184.2 L799.8 181 L796.4 177.8 L792.8 174.7 L789.1 171.6 L785.3 168.5 L781.3 165.5 L777.2 162.6 L773 159.7 L768.5 156.8 L764 154 L759.3 151.3 L754.5 148.6 L749.5 146 L744.4 143.5 L739.1 141 L733.7 138.7 L728.2 136.3 L722.6 134.1 L716.8 131.9 L711 129.8 L705 127.8 L698.9 125.9 L692.8 124 L686.5 122.3 L680.2 120.5 L673.8 118.9 L667.3 117.4 L660.7 115.9 L654.1 114.5 L647.4 113.1 L640.7 111.8 L633.9 110.6 L627.1 109.4 L620.3 108.3 L613.4 107.2 L606.5 106.2 L599.6 105.2 L592.6 104.3 L585.7 103.4 L578.7 102.5 L571.7 101.7 L564.6 100.9 L557.6 100.1 L550.6 99.4 L543.5 98.7 L536.4 97.9 L529.4 97.3 L522.3 96.6 L515.2 95.9 L508.2 95.3 L501.1 94.6 L494 94" stroke="#c8bcd2"/>
<path d="M1559.8 254.6 L1554.5 252.2 L1549.2 249.8 L1543.9 247.4 L1538.6 244.9 L1533.2 242.5 L1527.9 240.1 L1522.6 237.7 L1517.2 235.3 L1511.9 232.8 L1506.6 230.4 L1501.3 228 L1495.9 225.6 L1490.6 223.2 L1485.3 220.7 L1480 218.3 L1474.7 215.9 L1469.4 213.4 L1464.1 211 L1458.8 208.5 L1453.5 206.1 L1448.3 203.6 L1443.1 201.1 L1437.9 198.6 L1432.7 196.1 L1427.5 193.6 L1422.4 191.1 L1417.3 188.6 L1412.2 186 L1407.2 183.5 L1402.2 180.9 L1397.2 178.3 L1392.3 175.6 L1387.4 173 L1382.5 170.3 L1377.7 167.6 L1373 164.9 L1368.3 162.2 L1363.6 159.5 L1359 156.7 L1354.5 153.9 L1350 151.1 L1345.6 148.3 L1341.2 145.4 L1336.9 142.5 L1332.6 139.6 L1328.4 136.7 L1324.2 133.8 L1320.1 130.8 L1316 127.8 L1312 124.9 L1308 121.9 L1304 118.9 L1300 115.9 L1296.1 112.8 L1292.2 109.8 L1288.3 106.8 L1284.4 103.8 L1280.5 100.8 L1276.5 97.7 L1272.5 94.7 L1268.5 91.8 L1264.5 88.8 L1260.3 85.8 L1256.1 82.9 L1251.8 80 L1247.4 77.2 L1242.9 74.4 L1238.3 71.6 L1233.5 68.9 L1228.6 66.3 L1223.6 63.7 L1218.4 61.2 L1213 58.8 L1202 54.2 L1196.3 52 L1190.4 49.9 L1184.4 47.9 L1178.2 46.1 L1171.9 44.3 L1165.4 42.8 L1158.8 41.3 L1152.1 40 L1145.3 38.9 L1138.3 37.9 L1131.3 37.1 L1124.2 36.5 L1117.1 36 L1110 35.6 L1102.8 35.4 L1095.6 35.4 L1088.4 35.5 L1081.2 35.7 L1074 36.1 L1066.9 36.6 L1059.8 37.2 L1052.7 37.9 L1045.7 38.7 L1038.7 39.6 L1031.8 40.6 L1025 41.7 L1018.1 42.8 L1011.3 44 L1004.6 45.3 L997.9 46.6 L991.2 48 L984.6 49.4 L978 50.8 L971.4 52.3 L964.9 53.8 L958.3 55.3 L951.8 56.8 L945.3 58.3 L938.8 59.9 L932.3 61.4 L925.7 62.9 L919.2 64.5 L912.7 66 L906.1 67.5 L899.6 68.9 L893 70.4 L886.4 71.8 L879.8 73.2 L873.1 74.6 L866.4 76 L859.7 77.3 L853 78.5 L846.2 79.8 L839.4 81 L832.6 82.1 L825.7 83.2 L818.9 84.3 L812 85.3 L805 86.2 L798 87.2 L791.1 88 L784 88.8 L777 89.6 L769.9 90.3 L762.9 91 L755.8 91.6 L748.7 92.2 L741.5 92.7 L734.4 93.2 L727.3 93.6 L720.1 94 L712.9 94.3 L705.8 94.6 L698.6 94.9 L691.4 95.1 L684.2 95.3 L677 95.5 L669.8 95.6 L662.6 95.7 L655.4 95.8 L648.2 95.8 L641 95.8 L633.8 95.8 L626.6 95.7 L619.4 95.7 L612.2 95.6 L605 95.4 L597.8 95.3 L590.6 95.1 L583.5 95 L576.3 94.8 L569.1 94.5 L561.9 94.3 L554.7 94 L547.5 93.8 L540.4 93.5 L533.2 93.2 L526 92.8 L518.8 92.5 L511.7 92.1 L504.5 91.8 L497.4 91.4 L490.2 91 L483.1 90.5 L475.9 90.1 L468.8 89.6 L461.6 89.2 L454.5 88.7 L447.4 88.2 L440.3 87.6 L433.1 87.1 L426 86.5 L418.9 85.9 L411.8 85.3 L404.7 84.7 L397.6 84.1 L390.6 83.4 L383.5 82.8 L376.4 82.1 L369.4 81.4 L362.3 80.6 L355.3 79.9 L348.2 79.1 L341.2 78.3 L334.2 77.5 L327.2 76.7 L320.2 75.9 L313.2 75 L306.2 74.1 L299.2 73.2 L292.3 72.3 L285.3 71.4 L278.4 70.4 L271.5 69.4 L264.5 68.4 L257.6 67.4 L250.7 66.4 L243.8 65.4 L236.9 64.3 L230.1 63.3 L223.2 62.2 L216.3 61.1 L209.5 60 L202.6 58.8 L195.8 57.7 L189 56.5 L182.2 55.4 L175.4 54.2 L168.6 53" stroke="#d6b3c0"/>
<path d="M1554.9 252.9 L1549.5 250.5 L1544.1 248.2 L1538.7 245.8 L1533.3 243.4 L1527.8 241.1 L1522.3 238.8 L1516.8 236.4 L1511.3 234.1 L1505.7 231.8 L1500.2 229.6 L1494.6 227.3 L1488.9 225.1 L1483.3 222.8 L1477.6 220.6 L1471.9 218.4 L1466.1 216.3 L1460.3 214.2 L1454.4 212.1 L1448.5 210 L1442.6 208 L1436.6 206 L1430.5 204 L1424.4 202.1 L1418.2 200.3 L1412 198.5 L1405.7 196.7 L1399.3 195.1 L1392.9 193.5 L1386.4 191.9 L1379.8 190.5 L1373.1 189.1 L1366.4 187.8 L1359.6 186.6 L1352.8 185.5 L1345.8 184.5 L1338.8 183.7 L1331.8 182.9 L1324.7 182.3 L1317.6 181.7 L1310.4 181.3 L1303.3 181.1 L1296.1 181 L1288.9 181 L1281.7 181.1 L1274.5 181.4 L1267.3 181.8 L1260.2 182.4 L1253.2 183.1 L1246.2 183.9 L1239.2 184.8 L1232.3 185.9 L1225.6 187.1 L1218.8 188.4 L1212.2 189.9 L1205.7 191.4 L1199.3 193 L1193 194.8 L1186.8 196.6 L1180.7 198.5 L1174.7 200.5 L1168.9 202.6 L1163.1 204.7 L1157.4 207 L1151.8 209.2 L1146.3 211.5 L1140.9 213.9 L1135.5 216.3 L1130.2 218.8 L1125 221.3 L1119.9 223.8 L1114.8 226.3 L1109.7 228.9 L1104.6 231.4 L1099.6 234 L1094.6 236.6 L1089.5 239.1 L1084.4 241.7 L1079.3 244.2 L1074.1 246.7 L1068.9 249.2 L1063.5 251.6 L1058.1 253.9 L1052.5 256.2 L1041.1 260.6 L1035.2 262.7 L1029.2 264.7 L1023.1 266.6 L1016.8 268.3 L1010.2 269.8 L1003.6 271.2 L996.8 272.3 L989.8 273.2 L982.7 273.9 L975.6 274.3 L968.4 274.4 L961.2 274.2 L954 273.8 L947 273 L940.1 272 L933.4 270.6 L927 269 L920.7 267.2 L914.8 265.2 L909.1 263 L903.8 260.6 L898.6 258 L893.8 255.4 L889.2 252.6 L884.8 249.7 L880.7 246.8 L876.7 243.8 L872.9 240.8 L869.2 237.7 L865.6 234.5 L862.2 231.4 L858.8 228.2 L855.5 225 L852.3 221.8 L849 218.6 L845.9 215.3 L842.7 212.1 L839.5 208.9 L836.3 205.7 L833 202.4 L829.8 199.2 L826.4 196 L823.1 192.9 L819.6 189.7 L816.1 186.6 L812.5 183.4 L808.8 180.3 L805 177.3 L801.2 174.2 L797.2 171.2 L793.1 168.3 L788.9 165.4 L784.5 162.5 L780.1 159.7 L775.5 156.9 L770.8 154.1 L766 151.5 L761.1 148.9 L756 146.3 L750.8 143.8 L745.5 141.4 L740 139 L734.5 136.7 L728.8 134.5 L723 132.4 L717.1 130.3 L711.1 128.3 L705.1 126.4 L698.9 124.5 L692.6 122.8 L686.3 121.1 L679.9 119.4 L673.4 117.9 L666.8 116.4 L660.2 115 L653.5 113.6 L646.8 112.3 L640 111.1 L633.2 109.9 L626.4 108.8 L619.5 107.7 L612.6 106.7 L605.7 105.7 L598.8 104.7 L591.8 103.8 L584.8 103 L577.8 102.1 L570.8 101.3 L563.7 100.6 L556.7 99.8 L549.6 99.1 L542.6 98.4 L535.5 97.7 L528.4 97 L521.4 96.3 L514.3 95.7 L507.2 95 L500.1 94.4 L493 93.8 L485.9 93.1 L478.9 92.5 L471.8 91.9 L464.7 91.3 L457.6 90.6 L450.5 90 L443.4 89.3 L436.3 88.7 L429.3 88 L422.2 87.4 L415.1 86.7 L408 86 L401 85.3 L393.9 84.6 L386.9 83.9 L379.8 83.1 L372.8 82.4 L365.8 81.6 L358.7 80.8 L351.7 80 L344.7 79.2 L337.7 78.4 L330.7 77.5 L323.7 76.7 L316.7 75.8 L309.7 74.9 L302.8 74 L295.8 73.1 L288.9 72.1 L281.9 71.2 L275 70.2 L268.1 69.2 L261.2 68.2 L254.3 67.1 L247.4 66.1 L240.5 65.1 L233.6 64 L226.8 62.9 L219.9 61.8 L213 60.7 L206.2 59.6 L199.4 58.4 L192.6 57.3 L185.7 56.1 L178.9 54.9 L172.1 53.8 L165.3 52.6 L158.5 51.4 L151.7 50.2 L145 49" stroke="#aab6d2"/>
<path d="M1556.4 253.6 L1551 251.3 L1545.6 248.9 L1540.2 246.5 L1534.7 244.2 L1529.3 241.8 L1523.8 239.5 L1518.3 237.2 L1512.7 234.9 L1507.2 232.6 L1501.6 230.3 L1496 228.1 L1490.3 225.8 L1484.6 223.6 L1478.9 221.4 L1473.1 219.3 L1467.3 217.2 L1461.5 215 L1455.6 213 L1449.7 210.9 L1443.7 209 L1437.6 207 L1431.5 205.1 L1425.3 203.2 L1419.1 201.4 L1412.8 199.7 L1406.4 198 L1400 196.4 L1393.5 194.9 L1386.9 193.5 L1380.2 192.1 L1373.4 190.8 L1366.6 189.7 L1359.8 188.6 L1352.8 187.7 L1345.8 186.8 L1338.7 186.1 L1331.6 185.5 L1324.5 185.1 L1317.3 184.8 L1310.1 184.6 L1302.9 184.6 L1295.7 184.7 L1288.6 184.9 L1281.4 185.4 L1274.3 185.9 L1267.2 186.6 L1260.2 187.5 L1253.3 188.5 L1246.5 189.6 L1239.7 190.9 L1233.1 192.3 L1226.6 193.8 L1220.2 195.5 L1214 197.3 L1207.8 199.1 L1201.8 201.1 L1196 203.2 L1190.3 205.4 L1184.7 207.7 L1179.3 210.1 L1174.1 212.6 L1169 215.1 L1164 217.7 L1159.2 220.4 L1154.6 223.2 L1150 226 L1145.7 228.8 L1141.4 231.7 L1137.3 234.7 L1133.4 237.7 L1129.5 240.7 L1125.8 243.8 L1122.3 246.9 L1118.8 250.1 L1115.5 253.3 L1112.2 256.5 L1109.1 259.8 L1106.1 263 L1103.2 266.3 L1100.5 269.7 L1097.8 273 L1095.2 276.4 L1092.7 279.7 L1090.3 283.1 L1088 286.5 L1085.8 290 L1083.6 293.4 L1081.6 296.8 L1079.6 300.3 L1077.7 303.8 L1075.9 307.3 L1074.2 310.8 L1072.5 314.3 L1070.9 317.8 L1069.4 321.3 L1067.9 324.8 L1066.6 328.4 L1065.2 331.9 L1064 335.4 L1062.8 339 L1061.6 342.5 L1060.6 346.1 L1059.6 349.7 L1058.6 353.2 L1057.7 356.8 L1056.9 360.4 L1056.1 364 L1055.4 367.5 L1054.7 371.1 L1054.1 374.7 L1053.6 378.3 L1053.1 381.9 L1052.7 385.5 L1052.4 389.1 L1052.1 392.7 L1051.9 396.3 L1051.7 399.9 L1051.6 403.5 L1051.7 407.1 L1051.7 410.7 L1051.9 414.3 L1052.2 417.9 L1052.6 421.5 L1053.1 425.1 L1054.3 432.2 L1055 435.8 L1055.8 439.4 L1056.8 443 L1057.9 446.5 L1059.2 450.1 L1060.6 453.6 L1062.2 457.1 L1064.1 460.6 L1066.1 464 L1068.3 467.5 L1070.8 470.8 L1073.5 474.2 L1076.5 477.4 L1079.8 480.6 L1083.4 483.8 L1087.3 486.8 L1091.6 489.7 L1096.2 492.5 L1101.1 495.1 L1106.4 497.5 L1112.1 499.8 L1118 501.8 L1124.3 503.6 L1130.8 505.1 L1137.6 506.3 L1144.6 507.2 L1151.7 507.8 L1158.9 508 L1166.1 507.9 L1173.2 507.5 L1180.3 506.7 L1187.1 505.7 L1193.8 504.3 L1200.2 502.7 L1206.3 500.8 L1212.1 498.6 L1217.6 496.3 L1222.8 493.8 L1227.7 491.2 L1232.3 488.4 L1236.6 485.5 L1240.6 482.5 L1244.4 479.5 L1247.9 476.3 L1251.3 473.1 L1254.5 469.9 L1257.5 466.7 L1260.5 463.4 L1263.3 460 L1266 456.7 L1268.7 453.4 L1271.3 450 L1273.9 446.7 L1276.5 443.3 L1279.1 439.9 L1281.7 436.6 L1284.3 433.2 L1287 429.9 L1289.8 426.6 L1292.7 423.3 L1295.6 420 L1298.7 416.7 L1301.8 413.5 L1305.1 410.3 L1308.6 407.1 L1312.1 404 L1315.9 400.9 L1319.7 397.9 L1323.8 394.9 L1328 392 L1332.4 389.2 L1337.1 386.4 L1341.9 383.7 L1346.8 381.1 L1352 378.6 L1357.4 376.2 L1363 374 L1368.8 371.8 L1374.7 369.8 L1380.8 367.9 L1387.1 366.1 L1393.6 364.5 L1400.2 363.1 L1406.9 361.8 L1413.8 360.7 L1420.7 359.8 L1427.7 359 L1434.8 358.4 L1442 358 L1449.2 357.7 L1456.4 357.6 L1463.6 357.7 L1470.8 357.9 L1477.9 358.2 L1485 358.7 L1492.1 359.4 L1499.2 360.2 L1506.1 361.1 L1513 362.1 L1519.9 363.2 L1526.7 364.4 L1533.4 365.7 L1540 367.1 L1546.5 368.6 L1553 370.2 L1559.5 371.8" stroke="#b0cdbf"/>
<path d="M1428.3 204.1 L1422.1 202.3 L1415.8 200.5 L1409.5 198.8 L1403 197.2 L1396.6 195.6 L1390 194.1 L1383.4 192.7 L1376.7 191.4 L1369.9 190.2 L1363 189.1 L1356.1 188.1 L1349.1 187.2 L1342.1 186.4 L1335 185.8 L1327.9 185.3 L1320.7 184.9 L1313.6 184.7 L1306.4 184.6 L1299.2 184.6 L1292 184.8 L1284.8 185.1 L1277.7 185.6 L1270.6 186.3 L1263.5 187 L1256.6 188 L1249.7 189 L1242.9 190.2 L1236.3 191.6 L1229.7 193.1 L1223.2 194.7 L1216.9 196.4 L1210.7 198.2 L1204.7 200.2 L1198.7 202.2 L1193 204.4 L1187.4 206.6 L1181.9 209 L1176.6 211.4 L1171.4 213.9 L1166.4 216.5 L1161.5 219.1 L1156.7 221.8 L1152.2 224.6 L1147.7 227.4 L1143.4 230.3 L1139.2 233.3 L1135.2 236.2 L1131.3 239.3 L1127.6 242.3 L1123.9 245.4 L1120.4 248.6 L1117 251.8 L1113.7 255 L1110.6 258.2 L1107.5 261.5 L1104.6 264.7 L1101.7 268 L1099 271.4 L1096.3 274.7 L1093.8 278.1 L1091.4 281.5 L1089 284.9 L1086.7 288.3 L1084.6 291.7 L1082.5 295.2 L1080.4 298.6 L1078.5 302.1 L1076.6 305.6 L1074.9 309.1 L1073.1 312.6 L1071.5 316.1 L1069.9 319.6 L1068.4 323.1 L1067 326.6 L1065.6 330.2 L1064.3 333.7 L1063.1 337.2 L1061.9 340.8 L1060.7 344.4 L1059.6 347.9 L1058.6 351.5 L1057.7 355 L1056.7 358.6 L1055.9 362.2 L1055.1 365.8 L1054.3 369.3 L1053.6 372.9 L1052.9 376.5 L1052.3 380.1 L1051.7 383.7 L1051.2 387.3 L1050.7 390.9 L1050.3 394.5 L1049.9 398.1 L1049.6 401.7 L1049.3 405.2 L1049 408.8 L1048.8 412.4 L1048.7 416 L1048.6 419.6 L1048.5 423.2 L1048.5 426.8 L1048.5 430.4 L1048.6 434 L1048.8 437.6 L1049 441.2 L1049.2 444.8 L1049.6 448.4 L1050 452 L1050.4 455.6 L1050.9 459.2 L1051.6 462.8 L1052.2 466.4 L1053 470 L1053.9 473.5 L1054.9 477.1 L1056 480.7 L1057.2 484.2 L1058.5 487.7 L1060 491.3 L1061.6 494.8 L1063.4 498.3 L1065.4 501.7 L1067.5 505.2 L1069.8 508.6 L1072.4 511.9 L1075.1 515.3 L1078.2 518.5 L1081.4 521.7 L1085 524.9 L1088.8 527.9 L1092.9 530.9 L1097.3 533.7 L1102 536.4 L1107.1 539 L1112.4 541.4 L1118.1 543.6 L1124.1 545.7 L1130.3 547.5 L1136.8 549 L1143.5 550.3 L1150.4 551.3 L1157.5 552 L1164.7 552.4 L1171.9 552.5 L1179 552.2 L1186.1 551.6 L1193.1 550.7 L1199.9 549.5 L1213 546.5 L1219.3 544.8 L1225.2 542.8 L1230.9 540.5 L1236.1 538 L1241 535.4 L1245.5 532.6 L1249.7 529.7 L1253.5 526.6 L1257 523.5 L1260.1 520.2 L1263 516.9 L1265.6 513.6 L1268 510.2 L1270.2 506.7 L1272.2 503.3 L1274 499.8 L1275.6 496.3 L1277.2 492.8 L1278.6 489.2 L1280 485.7 L1281.3 482.2 L1282.6 478.6 L1283.8 475.1 L1285 471.5 L1286.2 468 L1287.5 464.4 L1288.8 460.9 L1290.1 457.4 L1291.4 453.8 L1292.8 450.3 L1294.3 446.8 L1295.9 443.3 L1297.6 439.8 L1299.4 436.3 L1301.3 432.8 L1303.3 429.3 L1305.5 425.9 L1307.8 422.5 L1310.3 419.1 L1312.9 415.8 L1315.7 412.4 L1318.7 409.2 L1321.8 405.9 L1325.2 402.7 L1328.7 399.6 L1332.5 396.5 L1336.5 393.5 L1340.6 390.6 L1345 387.8 L1349.7 385 L1354.5 382.3 L1359.6 379.8 L1364.8 377.3 L1370.3 375 L1376 372.8 L1381.9 370.7 L1388 368.8 L1394.3 367 L1400.7 365.4 L1407.3 364 L1414.1 362.7 L1420.9 361.6 L1427.9 360.7 L1434.9 360 L1442.1 359.4 L1449.2 359 L1456.4 358.8 L1463.6 358.8 L1470.8 358.9 L1478 359.2 L1485.1 359.6 L1492.2 360.2 L1499.3 360.9 L1506.3 361.7 L1513.2 362.7 L1520.1 363.7 L1526.9 364.9 L1533.6 366.2 L1540.3 367.6 L1546.9 369 L1553.4 370.6 L1559.8 372.2" stroke="#d6cab2"/>
</g>
</svg>
