<svg xmlns="http://www.w3.org/2000/svg" width="1200" height="900" viewBox="0 0 1200 900" fill="none">
<g stroke-width="0.75">
<line x1="221.29" y1="170.99" x2="239.01" y2="187.99" stroke="#ffffff" stroke-opacity="0.224"/><line x1="221.29" y1="170.99" x2="263.79" y2="201.87" stroke="#ffffff" stroke-opacity="0.339"/><line x1="516.93" y1="342.94" x2="523.2" y2="348.25" stroke="#ffffff" stroke-opacity="0.453"/><line x1="516.93" y1="342.94" x2="537.33" y2="324.57" stroke="#ffffff" stroke-opacity="0.322"/><line x1="652.81" y1="489.26" x2="630.76" y2="544.29" stroke="#ffffff" stroke-opacity="0.254"/><line x1="652.81" y1="489.26" x2="718.33" y2="513.29" stroke="#ffffff" stroke-opacity="0.367"/><line x1="546.15" y1="355.62" x2="556.94" y2="368.9" stroke="#ffffff" stroke-opacity="0.334"/><line x1="546.15" y1="355.62" x2="523.2" y2="348.25" stroke="#ffffff" stroke-opacity="0.444"/><line x1="678.26" y1="835.11" x2="644.58" y2="754.25" stroke="#ffffff" stroke-opacity="0.247"/><line x1="678.26" y1="835.11" x2="589.14" y2="739.9" stroke="#ffffff" stroke-opacity="0.376"/><line x1="239.01" y1="187.99" x2="263.79" y2="201.87" stroke="#ffffff" stroke-opacity="0.288"/><line x1="494.19" y1="658.46" x2="494.84" y2="639.66" stroke="#ffffff" stroke-opacity="0.226"/><line x1="494.19" y1="658.46" x2="474.45" y2="764.53" stroke="#ffffff" stroke-opacity="0.348"/><line x1="146.93" y1="606.64" x2="189.79" y2="660.18" stroke="#ffffff" stroke-opacity="0.436"/><line x1="146.93" y1="606.64" x2="262.59" y2="669.88" stroke="#ffffff" stroke-opacity="0.256"/><line x1="241.14" y1="722.41" x2="186.8" y2="734.61" stroke="#ffffff" stroke-opacity="0.500"/><line x1="241.14" y1="722.41" x2="262.59" y2="669.88" stroke="#ffffff" stroke-opacity="0.406"/><line x1="171" y1="227.29" x2="191.56" y2="233.3" stroke="#ffffff" stroke-opacity="0.215"/><line x1="351.38" y1="513.98" x2="259.07" y2="399.02" stroke="#ffffff" stroke-opacity="0.383"/><line x1="351.38" y1="513.98" x2="218.78" y2="442.13" stroke="#ffffff" stroke-opacity="0.430"/><line x1="1031.17" y1="861.58" x2="1064.67" y2="892.64" stroke="#ffffff" stroke-opacity="0.305"/><line x1="1031.17" y1="861.58" x2="948.89" y2="881.55" stroke="#ffffff" stroke-opacity="0.220"/><line x1="311.47" y1="295.79" x2="330.84" y2="324.45" stroke="#ffffff" stroke-opacity="0.194"/><line x1="311.47" y1="295.79" x2="351.58" y2="253.07" stroke="#ffffff" stroke-opacity="0.329"/><line x1="189.79" y1="660.18" x2="262.59" y2="669.88" stroke="#ffffff" stroke-opacity="0.250"/><line x1="718.33" y1="513.29" x2="630.76" y2="544.29" stroke="#ffffff" stroke-opacity="0.436"/><line x1="318.14" y1="750.34" x2="262.59" y2="669.88" stroke="#ffffff" stroke-opacity="0.188"/><line x1="630.76" y1="544.29" x2="655.56" y2="616.65" stroke="#ffffff" stroke-opacity="0.317"/><line x1="1025.3" y1="126.12" x2="987.37" y2="212.39" stroke="#ffffff" stroke-opacity="0.190"/><line x1="1025.3" y1="126.12" x2="997.65" y2="258.33" stroke="#ffffff" stroke-opacity="0.318"/><line x1="376.4" y1="356.12" x2="330.84" y2="324.45" stroke="#ffffff" stroke-opacity="0.330"/><line x1="1161.23" y1="578.95" x2="1080.79" y2="725.96" stroke="#ffffff" stroke-opacity="0.291"/><line x1="1161.23" y1="578.95" x2="1143.51" y2="392.62" stroke="#ffffff" stroke-opacity="0.451"/><line x1="415.1" y1="13.55" x2="376.89" y2="23.83" stroke="#ffffff" stroke-opacity="0.467"/><line x1="415.1" y1="13.55" x2="369.46" y2="15.94" stroke="#ffffff" stroke-opacity="0.425"/><line x1="1080.5" y1="304.66" x2="1068.95" y2="357.47" stroke="#ffffff" stroke-opacity="0.458"/><line x1="1080.5" y1="304.66" x2="997.65" y2="258.33" stroke="#ffffff" stroke-opacity="0.335"/><line x1="218.78" y1="442.13" x2="259.07" y2="399.02" stroke="#ffffff" stroke-opacity="0.296"/><line x1="218.78" y1="442.13" x2="120.01" y2="429.73" stroke="#ffffff" stroke-opacity="0.347"/><line x1="872.37" y1="51.05" x2="843.48" y2="42.73" stroke="#ffffff" stroke-opacity="0.237"/><line x1="826.31" y1="542.11" x2="832.96" y2="559.52" stroke="#ffffff" stroke-opacity="0.229"/><line x1="826.31" y1="542.11" x2="783.22" y2="443.63" stroke="#ffffff" stroke-opacity="0.447"/><line x1="830.93" y1="419.93" x2="783.22" y2="443.63" stroke="#ffffff" stroke-opacity="0.309"/><line x1="830.93" y1="419.93" x2="771.61" y2="406.4" stroke="#ffffff" stroke-opacity="0.307"/><line x1="259.07" y1="399.02" x2="330.84" y2="324.45" stroke="#ffffff" stroke-opacity="0.446"/><line x1="474.45" y1="764.53" x2="494.83" y2="877.77" stroke="#ffffff" stroke-opacity="0.272"/><line x1="1080.79" y1="725.96" x2="1064.67" y2="892.64" stroke="#ffffff" stroke-opacity="0.286"/><line x1="612.53" y1="100.56" x2="662.42" y2="20.75" stroke="#ffffff" stroke-opacity="0.180"/><line x1="612.53" y1="100.56" x2="586.74" y2="311.25" stroke="#ffffff" stroke-opacity="0.277"/><line x1="783.22" y1="443.63" x2="771.61" y2="406.4" stroke="#ffffff" stroke-opacity="0.182"/><line x1="376.89" y1="23.83" x2="369.46" y2="15.94" stroke="#ffffff" stroke-opacity="0.306"/><line x1="924.65" y1="263.64" x2="997.65" y2="258.33" stroke="#ffffff" stroke-opacity="0.496"/><line x1="924.65" y1="263.64" x2="987.37" y2="212.39" stroke="#ffffff" stroke-opacity="0.304"/><line x1="997.65" y1="258.33" x2="987.37" y2="212.39" stroke="#ffffff" stroke-opacity="0.216"/><line x1="282.07" y1="115.28" x2="333.44" y2="174.56" stroke="#ffffff" stroke-opacity="0.487"/><line x1="81.57" y1="780.83" x2="186.8" y2="734.61" stroke="#ffffff" stroke-opacity="0.410"/><line x1="662.42" y1="20.75" x2="843.48" y2="42.73" stroke="#ffffff" stroke-opacity="0.395"/><line x1="1143.51" y1="392.62" x2="1173.5" y2="373.58" stroke="#ffffff" stroke-opacity="0.309"/><line x1="1143.51" y1="392.62" x2="1068.95" y2="357.47" stroke="#ffffff" stroke-opacity="0.260"/><line x1="991.3" y1="435.65" x2="1068.95" y2="357.47" stroke="#ffffff" stroke-opacity="0.479"/><line x1="644.58" y1="754.25" x2="589.14" y2="739.9" stroke="#ffffff" stroke-opacity="0.381"/><line x1="948.89" y1="881.55" x2="1064.67" y2="892.64" stroke="#ffffff" stroke-opacity="0.194"/><line x1="494.83" y1="877.77" x2="374.34" y2="896.73" stroke="#ffffff" stroke-opacity="0.234"/><line x1="120.01" y1="429.73" x2="52.28" y2="395.87" stroke="#ffffff" stroke-opacity="0.193"/><line x1="23.46" y1="503.87" x2="52.28" y2="395.87" stroke="#ffffff" stroke-opacity="0.399"/><circle cx="221.29" cy="170.99" r="2.06" fill="#ffffff" fill-opacity="0.616"/><circle cx="516.93" cy="342.94" r="1.55" fill="#ffffff" fill-opacity="0.541"/><circle cx="652.81" cy="489.26" r="1.79" fill="#ffffff" fill-opacity="0.436"/><circle cx="546.15" cy="355.62" r="0.96" fill="#ffffff" fill-opacity="0.597"/><circle cx="678.26" cy="835.11" r="1.74" fill="#ffffff" fill-opacity="0.513"/><circle cx="239.01" cy="187.99" r="1.41" fill="#ffffff" fill-opacity="0.508"/><circle cx="494.19" cy="658.46" r="1.91" fill="#ffffff" fill-opacity="0.514"/><circle cx="146.93" cy="606.64" r="0.93" fill="#ffffff" fill-opacity="0.474"/><circle cx="241.14" cy="722.41" r="0.66" fill="#ffffff" fill-opacity="0.414"/><circle cx="523.2" cy="348.25" r="1.09" fill="#ffffff" fill-opacity="0.535"/><circle cx="171" cy="227.29" r="1.19" fill="#ffffff" fill-opacity="0.634"/><circle cx="351.38" cy="513.98" r="1.4" fill="#ffffff" fill-opacity="0.405"/><circle cx="1031.17" cy="861.58" r="1.83" fill="#ffffff" fill-opacity="0.471"/><circle cx="191.56" cy="233.3" r="0.83" fill="#ffffff" fill-opacity="0.551"/><circle cx="311.47" cy="295.79" r="1.01" fill="#ffffff" fill-opacity="0.369"/><circle cx="189.79" cy="660.18" r="1.57" fill="#ffffff" fill-opacity="0.473"/><circle cx="718.33" cy="513.29" r="0.7" fill="#ffffff" fill-opacity="0.381"/><circle cx="318.14" cy="750.34" r="1" fill="#ffffff" fill-opacity="0.436"/><circle cx="630.76" cy="544.29" r="1.68" fill="#ffffff" fill-opacity="0.661"/><circle cx="1025.3" cy="126.12" r="2.16" fill="#ffffff" fill-opacity="0.658"/><circle cx="376.4" cy="356.12" r="2" fill="#ffffff" fill-opacity="0.461"/><circle cx="1161.23" cy="578.95" r="1.65" fill="#ffffff" fill-opacity="0.494"/><circle cx="415.1" cy="13.55" r="1.28" fill="#ffffff" fill-opacity="0.509"/><circle cx="1080.5" cy="304.66" r="1.71" fill="#ffffff" fill-opacity="0.436"/><circle cx="218.78" cy="442.13" r="7.97" fill="none" stroke="#ffffff" stroke-opacity="0.320"/><circle cx="218.78" cy="442.13" r="3.32" fill="#ffffff" fill-opacity="0.800"/><circle cx="71.7" cy="27.92" r="1.47" fill="#ffffff" fill-opacity="0.420"/><circle cx="655.56" cy="616.65" r="1.26" fill="#ffffff" fill-opacity="0.470"/><circle cx="556.94" cy="368.9" r="1.82" fill="#ffffff" fill-opacity="0.460"/><circle cx="872.37" cy="51.05" r="0.82" fill="#ffffff" fill-opacity="0.584"/><circle cx="826.31" cy="542.11" r="1.65" fill="#ffffff" fill-opacity="0.437"/><circle cx="830.93" cy="419.93" r="1.99" fill="#ffffff" fill-opacity="0.548"/><circle cx="488.64" cy="382.44" r="2.19" fill="#ffffff" fill-opacity="0.469"/><circle cx="259.07" cy="399.02" r="7.12" fill="none" stroke="#ffffff" stroke-opacity="0.320"/><circle cx="259.07" cy="399.02" r="2.97" fill="#ffffff" fill-opacity="0.800"/><circle cx="474.45" cy="764.53" r="1.25" fill="#ffffff" fill-opacity="0.554"/><circle cx="1080.79" cy="725.96" r="1.27" fill="#ffffff" fill-opacity="0.503"/><circle cx="612.53" cy="100.56" r="1.13" fill="#ffffff" fill-opacity="0.636"/><circle cx="783.22" cy="443.63" r="0.76" fill="#ffffff" fill-opacity="0.363"/><circle cx="376.89" cy="23.83" r="2.05" fill="#ffffff" fill-opacity="0.537"/><circle cx="924.65" cy="263.64" r="2.13" fill="#ffffff" fill-opacity="0.573"/><circle cx="263.79" cy="201.87" r="1.75" fill="#ffffff" fill-opacity="0.388"/><circle cx="997.65" cy="258.33" r="2.1" fill="#ffffff" fill-opacity="0.651"/><circle cx="282.07" cy="115.28" r="1.98" fill="#ffffff" fill-opacity="0.663"/><circle cx="832.96" cy="559.52" r="1.51" fill="#ffffff" fill-opacity="0.476"/><circle cx="81.57" cy="780.83" r="2.26" fill="#ffffff" fill-opacity="0.389"/><circle cx="369.46" cy="15.94" r="1.47" fill="#ffffff" fill-opacity="0.540"/><circle cx="771.61" cy="406.4" r="2.38" fill="#ffffff" fill-opacity="0.464"/><circle cx="662.42" cy="20.75" r="2.18" fill="#ffffff" fill-opacity="0.559"/><circle cx="537.33" cy="324.57" r="1.82" fill="#ffffff" fill-opacity="0.606"/><circle cx="333.44" cy="174.56" r="1.19" fill="#ffffff" fill-opacity="0.569"/><circle cx="1143.51" cy="392.62" r="1.02" fill="#ffffff" fill-opacity="0.631"/><circle cx="991.3" cy="435.65" r="2.16" fill="#ffffff" fill-opacity="0.468"/><circle cx="494.84" cy="639.66" r="1.1" fill="#ffffff" fill-opacity="0.466"/><circle cx="644.58" cy="754.25" r="1.26" fill="#ffffff" fill-opacity="0.499"/><circle cx="948.89" cy="881.55" r="1.77" fill="#ffffff" fill-opacity="0.365"/><circle cx="987.37" cy="212.39" r="1.2" fill="#ffffff" fill-opacity="0.584"/><circle cx="586.74" cy="311.25" r="2.3" fill="#ffffff" fill-opacity="0.632"/><circle cx="843.48" cy="42.73" r="1.68" fill="#ffffff" fill-opacity="0.629"/><circle cx="1068.95" cy="357.47" r="4.83" fill="none" stroke="#ffffff" stroke-opacity="0.320"/><circle cx="1068.95" cy="357.47" r="2.01" fill="#ffffff" fill-opacity="0.800"/><circle cx="262.59" cy="669.88" r="1.77" fill="#ffffff" fill-opacity="0.398"/><circle cx="589.14" cy="739.9" r="0.69" fill="#ffffff" fill-opacity="0.568"/><circle cx="1064.67" cy="892.64" r="6.49" fill="none" stroke="#ffffff" stroke-opacity="0.320"/><circle cx="1064.67" cy="892.64" r="2.71" fill="#ffffff" fill-opacity="0.800"/><circle cx="494.83" cy="877.77" r="0.89" fill="#ffffff" fill-opacity="0.666"/><circle cx="120.01" cy="429.73" r="1.58" fill="#ffffff" fill-opacity="0.386"/><circle cx="1173.5" cy="373.58" r="2.01" fill="#ffffff" fill-opacity="0.552"/><circle cx="330.84" cy="324.45" r="0.77" fill="#ffffff" fill-opacity="0.484"/><circle cx="23.46" cy="503.87" r="1.7" fill="#ffffff" fill-opacity="0.597"/><circle cx="351.58" cy="253.07" r="1.08" fill="#ffffff" fill-opacity="0.616"/><circle cx="186.8" cy="734.61" r="1.77" fill="#ffffff" fill-opacity="0.456"/><circle cx="52.28" cy="395.87" r="6.53" fill="none" stroke="#ffffff" stroke-opacity="0.320"/><circle cx="52.28" cy="395.87" r="2.72" fill="#ffffff" fill-opacity="0.800"/><circle cx="374.34" cy="896.73" r="1.4" fill="#ffffff" fill-opacity="0.447"/>
</g>
</svg>
