<svg xmlns="http://www.w3.org/2000/svg" width="1600" height="500" viewBox="0 0 1600 500" fill="none">
<g stroke-width="0.75">
<line x1="120" y1="179.43" x2="120" y2="470.69" stroke="#ffffff" stroke-opacity="0.039"/><line x1="240" y1="124.15" x2="240" y2="355.11" stroke="#ffffff" stroke-opacity="0.049"/><line x1="600" y1="3.76" x2="600" y2="336.66" stroke="#ffffff" stroke-opacity="0.046"/><line x1="720" y1="154.13" x2="720" y2="353.01" stroke="#ffffff" stroke-opacity="0.057"/><line x1="840" y1="148.29" x2="840" y2="424.88" stroke="#ffffff" stroke-opacity="0.054"/><line x1="960" y1="61.69" x2="960" y2="443.82" stroke="#ffffff" stroke-opacity="0.055"/><line x1="1080" y1="150.36" x2="1080" y2="477.88" stroke="#ffffff" stroke-opacity="0.071"/><line x1="1320" y1="128.81" x2="1320" y2="472.48" stroke="#ffffff" stroke-opacity="0.066"/><line x1="1440" y1="66.63" x2="1440" y2="304.34" stroke="#ffffff" stroke-opacity="0.066"/><line x1="1560" y1="79.61" x2="1560" y2="349.14" stroke="#ffffff" stroke-opacity="0.079"/><line x1="410.82" y1="120" x2="1488.97" y2="120" stroke="#ffffff" stroke-opacity="0.054"/><line x1="503.54" y1="240" x2="1239.74" y2="240" stroke="#ffffff" stroke-opacity="0.060"/><line x1="309.7" y1="480" x2="1016.92" y2="480" stroke="#ffffff" stroke-opacity="0.052"/><line x1="1576.31" y1="249.68" x2="1504.23" y2="295.84" stroke="#ffffff" stroke-opacity="0.400"/><line x1="1576.31" y1="249.68" x2="1540.27" y2="168.62" stroke="#ffffff" stroke-opacity="0.226"/><line x1="1243.61" y1="414.7" x2="1262.53" y2="377.8" stroke="#ffffff" stroke-opacity="0.391"/><line x1="1243.61" y1="414.7" x2="1205.61" y2="372.3" stroke="#ffffff" stroke-opacity="0.241"/><line x1="1458.73" y1="62.28" x2="1474.35" y2="74.21" stroke="#ffffff" stroke-opacity="0.176"/><line x1="1458.73" y1="62.28" x2="1472.65" y2="28.84" stroke="#ffffff" stroke-opacity="0.268"/><line x1="499.8" y1="447.38" x2="547.63" y2="467.15" stroke="#ffffff" stroke-opacity="0.231"/><line x1="499.8" y1="447.38" x2="441.3" y2="402.37" stroke="#ffffff" stroke-opacity="0.384"/><line x1="1068.43" y1="35.69" x2="991.8" y2="13.17" stroke="#ffffff" stroke-opacity="0.155"/><line x1="1068.43" y1="35.69" x2="1160.57" y2="103.48" stroke="#ffffff" stroke-opacity="0.306"/><line x1="1107.3" y1="297.87" x2="1089.01" y2="293.36" stroke="#ffffff" stroke-opacity="0.318"/><line x1="1107.3" y1="297.87" x2="1136.3" y2="282.99" stroke="#ffffff" stroke-opacity="0.217"/><line x1="14.69" y1="444.48" x2="59.35" y2="405.73" stroke="#ffffff" stroke-opacity="0.179"/><line x1="14.69" y1="444.48" x2="104.99" y2="417.3" stroke="#ffffff" stroke-opacity="0.161"/><line x1="455.75" y1="79.3" x2="482" y2="54.85" stroke="#ffffff" stroke-opacity="0.350"/><line x1="455.75" y1="79.3" x2="431.92" y2="37.4" stroke="#ffffff" stroke-opacity="0.328"/><line x1="6.92" y1="56" x2="178.26" y2="199.48" stroke="#ffffff" stroke-opacity="0.248"/><line x1="6.92" y1="56" x2="253.01" y2="173.04" stroke="#ffffff" stroke-opacity="0.149"/><line x1="1089.01" y1="293.36" x2="1136.3" y2="282.99" stroke="#ffffff" stroke-opacity="0.187"/><line x1="1454.72" y1="171.41" x2="1487.43" y2="131.35" stroke="#ffffff" stroke-opacity="0.392"/><line x1="1454.72" y1="171.41" x2="1540.27" y2="168.62" stroke="#ffffff" stroke-opacity="0.386"/><line x1="991.8" y1="13.17" x2="990.54" y2="172.02" stroke="#ffffff" stroke-opacity="0.363"/><line x1="1472.65" y1="28.84" x2="1474.35" y2="74.21" stroke="#ffffff" stroke-opacity="0.241"/><line x1="1487.43" y1="131.35" x2="1474.35" y2="74.21" stroke="#ffffff" stroke-opacity="0.386"/><line x1="644.96" y1="383.53" x2="621.34" y2="331.53" stroke="#ffffff" stroke-opacity="0.140"/><line x1="644.96" y1="383.53" x2="595.83" y2="270.36" stroke="#ffffff" stroke-opacity="0.259"/><line x1="547.63" y1="467.15" x2="441.3" y2="402.37" stroke="#ffffff" stroke-opacity="0.150"/><line x1="900.79" y1="451.61" x2="934.55" y2="481.37" stroke="#ffffff" stroke-opacity="0.314"/><line x1="900.79" y1="451.61" x2="871.37" y2="384.99" stroke="#ffffff" stroke-opacity="0.173"/><line x1="797.2" y1="341.51" x2="871.37" y2="384.99" stroke="#ffffff" stroke-opacity="0.215"/><line x1="797.2" y1="341.51" x2="840.28" y2="256.49" stroke="#ffffff" stroke-opacity="0.395"/><line x1="376.86" y1="236.17" x2="393.13" y2="154.26" stroke="#ffffff" stroke-opacity="0.179"/><line x1="376.86" y1="236.17" x2="369.41" y2="142.28" stroke="#ffffff" stroke-opacity="0.150"/><line x1="1388.97" y1="346.6" x2="1476.45" y2="390.84" stroke="#ffffff" stroke-opacity="0.373"/><line x1="1388.97" y1="346.6" x2="1290.46" y2="379.29" stroke="#ffffff" stroke-opacity="0.144"/><line x1="1108.21" y1="430.21" x2="1205.61" y2="372.3" stroke="#ffffff" stroke-opacity="0.312"/><line x1="1108.21" y1="430.21" x2="985.29" y2="397.2" stroke="#ffffff" stroke-opacity="0.377"/><line x1="1462.83" y1="446.27" x2="1476.45" y2="390.84" stroke="#ffffff" stroke-opacity="0.370"/><line x1="1462.83" y1="446.27" x2="1511" y2="369.07" stroke="#ffffff" stroke-opacity="0.354"/><line x1="178.26" y1="199.48" x2="253.01" y2="173.04" stroke="#ffffff" stroke-opacity="0.348"/><line x1="178.26" y1="199.48" x2="253.12" y2="231.23" stroke="#ffffff" stroke-opacity="0.162"/><line x1="867.2" y1="276.05" x2="840.28" y2="256.49" stroke="#ffffff" stroke-opacity="0.311"/><line x1="1504.23" y1="295.84" x2="1479.63" y2="257.71" stroke="#ffffff" stroke-opacity="0.197"/><line x1="1504.23" y1="295.84" x2="1511" y2="369.07" stroke="#ffffff" stroke-opacity="0.348"/><line x1="393.13" y1="154.26" x2="369.41" y2="142.28" stroke="#ffffff" stroke-opacity="0.167"/><line x1="1205.61" y1="372.3" x2="1262.53" y2="377.8" stroke="#ffffff" stroke-opacity="0.259"/><line x1="1290.46" y1="379.29" x2="1262.53" y2="377.8" stroke="#ffffff" stroke-opacity="0.281"/><line x1="177.41" y1="441.02" x2="104.99" y2="417.3" stroke="#ffffff" stroke-opacity="0.265"/><line x1="177.41" y1="441.02" x2="59.35" y2="405.73" stroke="#ffffff" stroke-opacity="0.173"/><line x1="1160.57" y1="103.48" x2="1066.41" y2="163.24" stroke="#ffffff" stroke-opacity="0.295"/><line x1="1033.64" y1="292.79" x2="1013.51" y2="307.8" stroke="#ffffff" stroke-opacity="0.333"/><line x1="1033.64" y1="292.79" x2="1038.42" y2="260.03" stroke="#ffffff" stroke-opacity="0.218"/><line x1="1013.51" y1="307.8" x2="1038.42" y2="260.03" stroke="#ffffff" stroke-opacity="0.170"/><line x1="346.99" y1="400.79" x2="336.82" y2="323.33" stroke="#ffffff" stroke-opacity="0.195"/><line x1="346.99" y1="400.79" x2="441.3" y2="402.37" stroke="#ffffff" stroke-opacity="0.175"/><line x1="1066.41" y1="163.24" x2="990.54" y2="172.02" stroke="#ffffff" stroke-opacity="0.379"/><line x1="1066.41" y1="163.24" x2="1038.42" y2="260.03" stroke="#ffffff" stroke-opacity="0.182"/><line x1="253.01" y1="173.04" x2="253.12" y2="231.23" stroke="#ffffff" stroke-opacity="0.221"/><line x1="369.41" y1="142.28" x2="341.66" y2="60.23" stroke="#ffffff" stroke-opacity="0.257"/><line x1="104.99" y1="417.3" x2="59.35" y2="405.73" stroke="#ffffff" stroke-opacity="0.248"/><line x1="934.55" y1="481.37" x2="985.29" y2="397.2" stroke="#ffffff" stroke-opacity="0.322"/><line x1="341.66" y1="60.23" x2="326.86" y2="18.89" stroke="#ffffff" stroke-opacity="0.241"/><line x1="1476.45" y1="390.84" x2="1511" y2="369.07" stroke="#ffffff" stroke-opacity="0.196"/><line x1="1511" y1="369.07" x2="1569.78" y2="409.98" stroke="#ffffff" stroke-opacity="0.362"/><line x1="326.86" y1="18.89" x2="431.92" y2="37.4" stroke="#ffffff" stroke-opacity="0.163"/><line x1="621.34" y1="331.53" x2="595.83" y2="270.36" stroke="#ffffff" stroke-opacity="0.182"/><line x1="598.18" y1="241.11" x2="595.83" y2="270.36" stroke="#ffffff" stroke-opacity="0.183"/><line x1="784.32" y1="123.15" x2="840.28" y2="256.49" stroke="#ffffff" stroke-opacity="0.341"/><line x1="431.92" y1="37.4" x2="482" y2="54.85" stroke="#ffffff" stroke-opacity="0.203"/><circle cx="1576.31" cy="249.68" r="2.89" fill="none" stroke="#ffffff" stroke-opacity="0.320"/><circle cx="1576.31" cy="249.68" r="1.2" fill="#ffffff" fill-opacity="0.800"/><circle cx="1243.61" cy="414.7" r="1.21" fill="#ffffff" fill-opacity="0.509"/><circle cx="1458.73" cy="62.28" r="1.66" fill="#ffffff" fill-opacity="0.603"/><circle cx="499.8" cy="447.38" r="1.91" fill="#ffffff" fill-opacity="0.542"/><circle cx="1068.43" cy="35.69" r="2.29" fill="#ffffff" fill-opacity="0.438"/><circle cx="1107.3" cy="297.87" r="2.2" fill="#ffffff" fill-opacity="0.604"/><circle cx="14.69" cy="444.48" r="1.83" fill="#ffffff" fill-opacity="0.543"/><circle cx="455.75" cy="79.3" r="7.44" fill="none" stroke="#ffffff" stroke-opacity="0.320"/><circle cx="455.75" cy="79.3" r="3.1" fill="#ffffff" fill-opacity="0.800"/><circle cx="6.92" cy="56" r="1.13" fill="#ffffff" fill-opacity="0.365"/><circle cx="1089.01" cy="293.36" r="1.11" fill="#ffffff" fill-opacity="0.603"/><circle cx="1454.72" cy="171.41" r="1.67" fill="#ffffff" fill-opacity="0.451"/><circle cx="991.8" cy="13.17" r="2.27" fill="#ffffff" fill-opacity="0.587"/><circle cx="1472.65" cy="28.84" r="2.34" fill="#ffffff" fill-opacity="0.502"/><circle cx="1487.43" cy="131.35" r="1.46" fill="#ffffff" fill-opacity="0.432"/><circle cx="644.96" cy="383.53" r="2.26" fill="#ffffff" fill-opacity="0.651"/><circle cx="547.63" cy="467.15" r="2.22" fill="#ffffff" fill-opacity="0.515"/><circle cx="900.79" cy="451.61" r="1.58" fill="#ffffff" fill-opacity="0.508"/><circle cx="797.2" cy="341.51" r="1.96" fill="#ffffff" fill-opacity="0.568"/><circle cx="376.86" cy="236.17" r="0.71" fill="#ffffff" fill-opacity="0.480"/><circle cx="1388.97" cy="346.6" r="1.75" fill="#ffffff" fill-opacity="0.507"/><circle cx="1108.21" cy="430.21" r="7.24" fill="none" stroke="#ffffff" stroke-opacity="0.320"/><circle cx="1108.21" cy="430.21" r="3.02" fill="#ffffff" fill-opacity="0.800"/><circle cx="1462.83" cy="446.27" r="6.85" fill="none" stroke="#ffffff" stroke-opacity="0.320"/><circle cx="1462.83" cy="446.27" r="2.85" fill="#ffffff" fill-opacity="0.800"/><circle cx="178.26" cy="199.48" r="1.5" fill="#ffffff" fill-opacity="0.431"/><circle cx="867.2" cy="276.05" r="2.22" fill="#ffffff" fill-opacity="0.403"/><circle cx="1136.3" cy="282.99" r="2.11" fill="#ffffff" fill-opacity="0.412"/><circle cx="1504.23" cy="295.84" r="1.24" fill="#ffffff" fill-opacity="0.461"/><circle cx="871.37" cy="384.99" r="2.18" fill="#ffffff" fill-opacity="0.535"/><circle cx="393.13" cy="154.26" r="1.84" fill="#ffffff" fill-opacity="0.574"/><circle cx="1205.61" cy="372.3" r="1.13" fill="#ffffff" fill-opacity="0.609"/><circle cx="1290.46" cy="379.29" r="1" fill="#ffffff" fill-opacity="0.658"/><circle cx="177.41" cy="441.02" r="2.02" fill="#ffffff" fill-opacity="0.541"/><circle cx="1474.35" cy="74.21" r="8.72" fill="none" stroke="#ffffff" stroke-opacity="0.320"/><circle cx="1474.35" cy="74.21" r="3.63" fill="#ffffff" fill-opacity="0.800"/><circle cx="1160.57" cy="103.48" r="2.21" fill="#ffffff" fill-opacity="0.470"/><circle cx="1033.64" cy="292.79" r="1.73" fill="#ffffff" fill-opacity="0.666"/><circle cx="1013.51" cy="307.8" r="1.31" fill="#ffffff" fill-opacity="0.478"/><circle cx="346.99" cy="400.79" r="6.54" fill="none" stroke="#ffffff" stroke-opacity="0.320"/><circle cx="346.99" cy="400.79" r="2.72" fill="#ffffff" fill-opacity="0.800"/><circle cx="1066.41" cy="163.24" r="7.47" fill="none" stroke="#ffffff" stroke-opacity="0.320"/><circle cx="1066.41" cy="163.24" r="3.11" fill="#ffffff" fill-opacity="0.800"/><circle cx="1540.27" cy="168.62" r="1.57" fill="#ffffff" fill-opacity="0.598"/><circle cx="253.01" cy="173.04" r="2.24" fill="#ffffff" fill-opacity="0.643"/><circle cx="1479.63" cy="257.71" r="1.11" fill="#ffffff" fill-opacity="0.402"/><circle cx="369.41" cy="142.28" r="0.66" fill="#ffffff" fill-opacity="0.519"/><circle cx="104.99" cy="417.3" r="0.81" fill="#ffffff" fill-opacity="0.562"/><circle cx="934.55" cy="481.37" r="1.4" fill="#ffffff" fill-opacity="0.442"/><circle cx="341.66" cy="60.23" r="2.31" fill="#ffffff" fill-opacity="0.654"/><circle cx="1038.42" cy="260.03" r="1.3" fill="#ffffff" fill-opacity="0.432"/><circle cx="1476.45" cy="390.84" r="2.14" fill="#ffffff" fill-opacity="0.643"/><circle cx="1511" cy="369.07" r="1.16" fill="#ffffff" fill-opacity="0.646"/><circle cx="326.86" cy="18.89" r="1.4" fill="#ffffff" fill-opacity="0.403"/><circle cx="621.34" cy="331.53" r="8.87" fill="none" stroke="#ffffff" stroke-opacity="0.320"/><circle cx="621.34" cy="331.53" r="3.7" fill="#ffffff" fill-opacity="0.800"/><circle cx="253.12" cy="231.23" r="1.31" fill="#ffffff" fill-opacity="0.558"/><circle cx="1281.05" cy="189.93" r="6.75" fill="none" stroke="#ffffff" stroke-opacity="0.320"/><circle cx="1281.05" cy="189.93" r="2.81" fill="#ffffff" fill-opacity="0.800"/><circle cx="59.35" cy="405.73" r="2.14" fill="#ffffff" fill-opacity="0.548"/><circle cx="598.18" cy="241.11" r="2.35" fill="#ffffff" fill-opacity="0.590"/><circle cx="990.54" cy="172.02" r="2.29" fill="#ffffff" fill-opacity="0.388"/><circle cx="784.32" cy="123.15" r="2.34" fill="#ffffff" fill-opacity="0.386"/><circle cx="441.3" cy="402.37" r="1.79" fill="#ffffff" fill-opacity="0.564"/><circle cx="1262.53" cy="377.8" r="1.89" fill="#ffffff" fill-opacity="0.537"/><circle cx="985.29" cy="397.2" r="1.73" fill="#ffffff" fill-opacity="0.668"/><circle cx="840.28" cy="256.49" r="1.84" fill="#ffffff" fill-opacity="0.395"/><circle cx="431.92" cy="37.4" r="2.13" fill="#ffffff" fill-opacity="0.368"/><circle cx="595.83" cy="270.36" r="2.09" fill="#ffffff" fill-opacity="0.639"/><circle cx="482" cy="54.85" r="0.87" fill="#ffffff" fill-opacity="0.422"/><circle cx="336.82" cy="323.33" r="1.82" fill="#ffffff" fill-opacity="0.502"/><circle cx="1569.78" cy="409.98" r="1.74" fill="#ffffff" fill-opacity="0.528"/>
</g>
</svg>
