<svg xmlns="http://www.w3.org/2000/svg" width="1280" height="320" viewBox="0 0 1280 320" fill="none">
<rect x="0" y="0" width="1280" height="320" fill="#0a0a0c"/>
<g stroke-width="0.75"><line x1="80" y1="67.83" x2="80" y2="242.16" stroke="#ffffff" stroke-opacity="0.053"/><line x1="160" y1="68.87" x2="160" y2="309.76" stroke="#ffffff" stroke-opacity="0.050"/><line x1="240" y1="57.64" x2="240" y2="258.55" stroke="#ffffff" stroke-opacity="0.063"/><line x1="320" y1="85.79" x2="320" y2="232.76" stroke="#ffffff" stroke-opacity="0.035"/><line x1="560" y1="48.25" x2="560" y2="245.44" stroke="#ffffff" stroke-opacity="0.033"/><line x1="640" y1="73.8" x2="640" y2="266.44" stroke="#ffffff" stroke-opacity="0.063"/><line x1="720" y1="98.41" x2="720" y2="279.35" stroke="#ffffff" stroke-opacity="0.054"/><line x1="960" y1="125.14" x2="960" y2="282" stroke="#ffffff" stroke-opacity="0.034"/><line x1="1040" y1="44.44" x2="1040" y2="249.16" stroke="#ffffff" stroke-opacity="0.052"/><line x1="1120" y1="18.33" x2="1120" y2="211.24" stroke="#ffffff" stroke-opacity="0.062"/><line x1="1200" y1="3.25" x2="1200" y2="310.18" stroke="#ffffff" stroke-opacity="0.063"/><line x1="269.37" y1="80" x2="1141.54" y2="80" stroke="#ffffff" stroke-opacity="0.049"/><line x1="45.52" y1="160" x2="950.22" y2="160" stroke="#ffffff" stroke-opacity="0.030"/><line x1="325.01" y1="240" x2="776" y2="240" stroke="#ffffff" stroke-opacity="0.046"/><line x1="1265.25" y1="58.51" x2="1247.53" y2="18.33" stroke="#ffffff" stroke-opacity="0.228"/><line x1="1265.25" y1="58.51" x2="1240.37" y2="1.91" stroke="#ffffff" stroke-opacity="0.492"/><line x1="666.39" y1="132.44" x2="695.69" y2="158.17" stroke="#ffffff" stroke-opacity="0.416"/><line x1="666.39" y1="132.44" x2="681.41" y2="171.71" stroke="#ffffff" stroke-opacity="0.364"/><line x1="1230.65" y1="280.45" x2="1226.31" y2="286.94" stroke="#ffffff" stroke-opacity="0.298"/><line x1="1230.65" y1="280.45" x2="1274.31" y2="232.25" stroke="#ffffff" stroke-opacity="0.473"/><line x1="974.12" y1="68.38" x2="970.84" y2="142.57" stroke="#ffffff" stroke-opacity="0.241"/><line x1="974.12" y1="68.38" x2="1039.09" y2="27.14" stroke="#ffffff" stroke-opacity="0.434"/><line x1="481.44" y1="130.11" x2="492.8" y2="107.8" stroke="#ffffff" stroke-opacity="0.329"/><line x1="481.44" y1="130.11" x2="457.72" y2="119.9" stroke="#ffffff" stroke-opacity="0.448"/><line x1="277.08" y1="47.69" x2="255.76" y2="114.33" stroke="#ffffff" stroke-opacity="0.208"/><line x1="277.08" y1="47.69" x2="346.61" y2="57.39" stroke="#ffffff" stroke-opacity="0.369"/><line x1="879.16" y1="314.05" x2="825.95" y2="281.63" stroke="#ffffff" stroke-opacity="0.397"/><line x1="879.16" y1="314.05" x2="795.57" y2="291.29" stroke="#ffffff" stroke-opacity="0.228"/><line x1="1151.59" y1="239.62" x2="1127.85" y2="204.11" stroke="#ffffff" stroke-opacity="0.405"/><line x1="1151.59" y1="239.62" x2="1128.1" y2="300.67" stroke="#ffffff" stroke-opacity="0.336"/><line x1="364.38" y1="173.38" x2="363.52" y2="217.25" stroke="#ffffff" stroke-opacity="0.397"/><line x1="364.38" y1="173.38" x2="311.85" y2="154.82" stroke="#ffffff" stroke-opacity="0.397"/><line x1="112.04" y1="187.36" x2="104.85" y2="177.51" stroke="#ffffff" stroke-opacity="0.232"/><line x1="112.04" y1="187.36" x2="106.08" y2="201.68" stroke="#ffffff" stroke-opacity="0.446"/><line x1="1061.74" y1="255.13" x2="1049.57" y2="211.69" stroke="#ffffff" stroke-opacity="0.377"/><line x1="1061.74" y1="255.13" x2="1006.84" y2="281.3" stroke="#ffffff" stroke-opacity="0.459"/><line x1="311.85" y1="154.82" x2="299.53" y2="193.18" stroke="#ffffff" stroke-opacity="0.225"/><line x1="311.85" y1="154.82" x2="317.84" y2="205.12" stroke="#ffffff" stroke-opacity="0.362"/><line x1="670.36" y1="185.05" x2="681.41" y2="171.71" stroke="#ffffff" stroke-opacity="0.435"/><line x1="670.36" y1="185.05" x2="695.69" y2="158.17" stroke="#ffffff" stroke-opacity="0.459"/><line x1="362.48" y1="100.56" x2="360.25" y2="77.93" stroke="#ffffff" stroke-opacity="0.289"/><line x1="362.48" y1="100.56" x2="346.61" y2="57.39" stroke="#ffffff" stroke-opacity="0.300"/><line x1="75.67" y1="235.46" x2="106.08" y2="201.68" stroke="#ffffff" stroke-opacity="0.397"/><line x1="75.67" y1="235.46" x2="86.79" y2="186.52" stroke="#ffffff" stroke-opacity="0.368"/><line x1="340.22" y1="277.79" x2="331.26" y2="257.87" stroke="#ffffff" stroke-opacity="0.250"/><line x1="340.22" y1="277.79" x2="378.11" y2="245.25" stroke="#ffffff" stroke-opacity="0.281"/><line x1="158.04" y1="35.64" x2="176.49" y2="75.16" stroke="#ffffff" stroke-opacity="0.345"/><line x1="158.04" y1="35.64" x2="192.91" y2="68.95" stroke="#ffffff" stroke-opacity="0.430"/><line x1="1247.53" y1="18.33" x2="1240.37" y2="1.91" stroke="#ffffff" stroke-opacity="0.386"/><line x1="1128.37" y1="32.18" x2="1096.2" y2="39.98" stroke="#ffffff" stroke-opacity="0.219"/><line x1="1128.37" y1="32.18" x2="1162.23" y2="18.73" stroke="#ffffff" stroke-opacity="0.289"/><line x1="976.35" y1="246.2" x2="958.61" y2="264.94" stroke="#ffffff" stroke-opacity="0.192"/><line x1="976.35" y1="246.2" x2="1006.84" y2="281.3" stroke="#ffffff" stroke-opacity="0.182"/><line x1="86.79" y1="186.52" x2="104.85" y2="177.51" stroke="#ffffff" stroke-opacity="0.441"/><line x1="86.79" y1="186.52" x2="106.08" y2="201.68" stroke="#ffffff" stroke-opacity="0.482"/><line x1="795.57" y1="291.29" x2="825.95" y2="281.63" stroke="#ffffff" stroke-opacity="0.252"/><line x1="1127.85" y1="204.11" x2="1106.35" y2="145.62" stroke="#ffffff" stroke-opacity="0.245"/><line x1="734.24" y1="225.11" x2="747.19" y2="191.05" stroke="#ffffff" stroke-opacity="0.184"/><line x1="734.24" y1="225.11" x2="696.58" y2="228.69" stroke="#ffffff" stroke-opacity="0.412"/><line x1="224" y1="224.11" x2="227.13" y2="274.99" stroke="#ffffff" stroke-opacity="0.305"/><line x1="224" y1="224.11" x2="274.19" y2="241.13" stroke="#ffffff" stroke-opacity="0.317"/><line x1="622.07" y1="43.54" x2="643.06" y2="36.26" stroke="#ffffff" stroke-opacity="0.344"/><line x1="622.07" y1="43.54" x2="657.6" y2="20.7" stroke="#ffffff" stroke-opacity="0.461"/><line x1="192.91" y1="68.95" x2="176.49" y2="75.16" stroke="#ffffff" stroke-opacity="0.488"/><line x1="870.82" y1="28.29" x2="826.65" y2="103.13" stroke="#ffffff" stroke-opacity="0.186"/><line x1="870.82" y1="28.29" x2="820.56" y2="105.26" stroke="#ffffff" stroke-opacity="0.300"/><line x1="1226.31" y1="286.94" x2="1274.31" y2="232.25" stroke="#ffffff" stroke-opacity="0.201"/><line x1="176.49" y1="75.16" x2="165.5" y2="116.6" stroke="#ffffff" stroke-opacity="0.457"/><line x1="346.61" y1="57.39" x2="360.25" y2="77.93" stroke="#ffffff" stroke-opacity="0.206"/><line x1="560.36" y1="146.55" x2="559.27" y2="69.78" stroke="#ffffff" stroke-opacity="0.177"/><line x1="560.36" y1="146.55" x2="492.8" y2="107.8" stroke="#ffffff" stroke-opacity="0.388"/><line x1="140.23" y1="151.36" x2="165.5" y2="116.6" stroke="#ffffff" stroke-opacity="0.416"/><line x1="140.23" y1="151.36" x2="104.85" y2="177.51" stroke="#ffffff" stroke-opacity="0.284"/><line x1="958.61" y1="264.94" x2="1006.84" y2="281.3" stroke="#ffffff" stroke-opacity="0.287"/><line x1="970.84" y1="142.57" x2="905.04" y2="154.75" stroke="#ffffff" stroke-opacity="0.189"/><line x1="378.11" y1="245.25" x2="363.52" y2="217.25" stroke="#ffffff" stroke-opacity="0.277"/><line x1="378.11" y1="245.25" x2="331.26" y2="257.87" stroke="#ffffff" stroke-opacity="0.435"/><line x1="805.18" y1="96.87" x2="820.56" y2="105.26" stroke="#ffffff" stroke-opacity="0.487"/><line x1="805.18" y1="96.87" x2="826.65" y2="103.13" stroke="#ffffff" stroke-opacity="0.251"/><line x1="703.82" y1="34.88" x2="657.6" y2="20.7" stroke="#ffffff" stroke-opacity="0.186"/><line x1="703.82" y1="34.88" x2="753.18" y2="35.58" stroke="#ffffff" stroke-opacity="0.463"/><line x1="317.84" y1="205.12" x2="310.42" y2="215.02" stroke="#ffffff" stroke-opacity="0.459"/><line x1="317.84" y1="205.12" x2="299.53" y2="193.18" stroke="#ffffff" stroke-opacity="0.206"/><line x1="331.26" y1="257.87" x2="310.42" y2="215.02" stroke="#ffffff" stroke-opacity="0.381"/><line x1="527.83" y1="271.66" x2="511.69" y2="276.28" stroke="#ffffff" stroke-opacity="0.394"/><line x1="826.65" y1="103.13" x2="820.56" y2="105.26" stroke="#ffffff" stroke-opacity="0.483"/><line x1="559.27" y1="69.78" x2="516.68" y2="35.21" stroke="#ffffff" stroke-opacity="0.244"/><line x1="643.06" y1="36.26" x2="657.6" y2="20.7" stroke="#ffffff" stroke-opacity="0.269"/><line x1="681.41" y1="171.71" x2="695.69" y2="158.17" stroke="#ffffff" stroke-opacity="0.254"/><line x1="1162.23" y1="18.73" x2="1096.2" y2="39.98" stroke="#ffffff" stroke-opacity="0.387"/><line x1="33.03" y1="132.32" x2="104.85" y2="177.51" stroke="#ffffff" stroke-opacity="0.365"/><line x1="227.13" y1="274.99" x2="226.97" y2="298.74" stroke="#ffffff" stroke-opacity="0.404"/><line x1="227.13" y1="274.99" x2="190.04" y2="268.05" stroke="#ffffff" stroke-opacity="0.494"/><line x1="190.04" y1="268.05" x2="226.97" y2="298.74" stroke="#ffffff" stroke-opacity="0.317"/><line x1="747.19" y1="191.05" x2="737.33" y2="148.73" stroke="#ffffff" stroke-opacity="0.428"/><line x1="657.6" y1="20.7" x2="652.22" y2="9.93" stroke="#ffffff" stroke-opacity="0.375"/><line x1="1039.09" y1="27.14" x2="1096.2" y2="39.98" stroke="#ffffff" stroke-opacity="0.287"/><line x1="737.33" y1="148.73" x2="695.69" y2="158.17" stroke="#ffffff" stroke-opacity="0.177"/><line x1="471.02" y1="36.12" x2="516.68" y2="35.21" stroke="#ffffff" stroke-opacity="0.214"/><line x1="471.02" y1="36.12" x2="492.8" y2="107.8" stroke="#ffffff" stroke-opacity="0.184"/><line x1="696.58" y1="228.69" x2="677.42" y2="259.64" stroke="#ffffff" stroke-opacity="0.399"/><line x1="1084.38" y1="101.98" x2="1106.35" y2="145.62" stroke="#ffffff" stroke-opacity="0.250"/><line x1="1084.38" y1="101.98" x2="1096.2" y2="39.98" stroke="#ffffff" stroke-opacity="0.194"/><line x1="492.8" y1="107.8" x2="457.72" y2="119.9" stroke="#ffffff" stroke-opacity="0.310"/><line x1="1106.35" y1="145.62" x2="1158.13" y2="133.87" stroke="#ffffff" stroke-opacity="0.370"/><line x1="310.42" y1="215.02" x2="299.53" y2="193.18" stroke="#ffffff" stroke-opacity="0.235"/><line x1="1205.97" y1="150.71" x2="1204.25" y2="172.48" stroke="#ffffff" stroke-opacity="0.407"/><line x1="1205.97" y1="150.71" x2="1158.13" y2="133.87" stroke="#ffffff" stroke-opacity="0.196"/><line x1="1204.25" y1="172.48" x2="1158.13" y2="133.87" stroke="#ffffff" stroke-opacity="0.438"/><circle cx="1265.25" cy="58.51" r="1.66" fill="#ffffff" fill-opacity="0.418"/><circle cx="666.39" cy="132.44" r="0.74" fill="#ffffff" fill-opacity="0.368"/><circle cx="1230.65" cy="280.45" r="5.56" fill="none" stroke="#ffffff" stroke-opacity="0.320"/><circle cx="1230.65" cy="280.45" r="2.31" fill="#ffffff" fill-opacity="0.800"/><circle cx="974.12" cy="68.38" r="0.91" fill="#ffffff" fill-opacity="0.533"/><circle cx="481.44" cy="130.11" r="8.21" fill="none" stroke="#ffffff" stroke-opacity="0.320"/><circle cx="481.44" cy="130.11" r="3.42" fill="#ffffff" fill-opacity="0.800"/><circle cx="277.08" cy="47.69" r="8.18" fill="none" stroke="#ffffff" stroke-opacity="0.320"/><circle cx="277.08" cy="47.69" r="3.41" fill="#ffffff" fill-opacity="0.800"/><circle cx="879.16" cy="314.05" r="1.93" fill="#ffffff" fill-opacity="0.576"/><circle cx="1151.59" cy="239.62" r="2.04" fill="#ffffff" fill-opacity="0.427"/><circle cx="364.38" cy="173.38" r="2.06" fill="#ffffff" fill-opacity="0.501"/><circle cx="112.04" cy="187.36" r="1.93" fill="#ffffff" fill-opacity="0.362"/><circle cx="1061.74" cy="255.13" r="0.76" fill="#ffffff" fill-opacity="0.383"/><circle cx="311.85" cy="154.82" r="1.98" fill="#ffffff" fill-opacity="0.526"/><circle cx="670.36" cy="185.05" r="2.16" fill="#ffffff" fill-opacity="0.601"/><circle cx="362.48" cy="100.56" r="5.2" fill="none" stroke="#ffffff" stroke-opacity="0.320"/><circle cx="362.48" cy="100.56" r="2.17" fill="#ffffff" fill-opacity="0.800"/><circle cx="75.67" cy="235.46" r="1.86" fill="#ffffff" fill-opacity="0.602"/><circle cx="340.22" cy="277.79" r="2.08" fill="#ffffff" fill-opacity="0.569"/><circle cx="158.04" cy="35.64" r="0.99" fill="#ffffff" fill-opacity="0.602"/><circle cx="1247.53" cy="18.33" r="1.75" fill="#ffffff" fill-opacity="0.570"/><circle cx="1128.37" cy="32.18" r="2.3" fill="#ffffff" fill-opacity="0.550"/><circle cx="976.35" cy="246.2" r="1.12" fill="#ffffff" fill-opacity="0.663"/><circle cx="86.79" cy="186.52" r="2.1" fill="#ffffff" fill-opacity="0.646"/><circle cx="255.76" cy="114.33" r="2.34" fill="#ffffff" fill-opacity="0.444"/><circle cx="12.27" cy="263.16" r="1.84" fill="#ffffff" fill-opacity="0.562"/><circle cx="1240.37" cy="1.91" r="0.94" fill="#ffffff" fill-opacity="0.410"/><circle cx="795.57" cy="291.29" r="0.81" fill="#ffffff" fill-opacity="0.549"/><circle cx="1127.85" cy="204.11" r="2.15" fill="#ffffff" fill-opacity="0.444"/><circle cx="734.24" cy="225.11" r="8.55" fill="none" stroke="#ffffff" stroke-opacity="0.320"/><circle cx="734.24" cy="225.11" r="3.56" fill="#ffffff" fill-opacity="0.800"/><circle cx="224" cy="224.11" r="1.79" fill="#ffffff" fill-opacity="0.589"/><circle cx="622.07" cy="43.54" r="7.69" fill="none" stroke="#ffffff" stroke-opacity="0.320"/><circle cx="622.07" cy="43.54" r="3.2" fill="#ffffff" fill-opacity="0.800"/><circle cx="1049.57" cy="211.69" r="1.34" fill="#ffffff" fill-opacity="0.571"/><circle cx="192.91" cy="68.95" r="1.55" fill="#ffffff" fill-opacity="0.632"/><circle cx="870.82" cy="28.29" r="1.2" fill="#ffffff" fill-opacity="0.464"/><circle cx="1226.31" cy="286.94" r="2.14" fill="#ffffff" fill-opacity="0.377"/><circle cx="176.49" cy="75.16" r="1.32" fill="#ffffff" fill-opacity="0.427"/><circle cx="346.61" cy="57.39" r="1.79" fill="#ffffff" fill-opacity="0.421"/><circle cx="560.36" cy="146.55" r="0.79" fill="#ffffff" fill-opacity="0.367"/><circle cx="140.23" cy="151.36" r="2.15" fill="#ffffff" fill-opacity="0.576"/><circle cx="958.61" cy="264.94" r="1.44" fill="#ffffff" fill-opacity="0.616"/><circle cx="970.84" cy="142.57" r="1.27" fill="#ffffff" fill-opacity="0.372"/><circle cx="378.11" cy="245.25" r="0.96" fill="#ffffff" fill-opacity="0.439"/><circle cx="805.18" cy="96.87" r="1.5" fill="#ffffff" fill-opacity="0.492"/><circle cx="363.52" cy="217.25" r="2.24" fill="#ffffff" fill-opacity="0.479"/><circle cx="703.82" cy="34.88" r="1.28" fill="#ffffff" fill-opacity="0.578"/><circle cx="317.84" cy="205.12" r="1.96" fill="#ffffff" fill-opacity="0.527"/><circle cx="360.25" cy="77.93" r="2.32" fill="#ffffff" fill-opacity="0.592"/><circle cx="331.26" cy="257.87" r="0.68" fill="#ffffff" fill-opacity="0.363"/><circle cx="753.18" cy="35.58" r="2.27" fill="#ffffff" fill-opacity="0.625"/><circle cx="1006.84" cy="281.3" r="0.86" fill="#ffffff" fill-opacity="0.547"/><circle cx="527.83" cy="271.66" r="0.91" fill="#ffffff" fill-opacity="0.678"/><circle cx="165.5" cy="116.6" r="2.27" fill="#ffffff" fill-opacity="0.418"/><circle cx="826.65" cy="103.13" r="2.37" fill="#ffffff" fill-opacity="0.496"/><circle cx="559.27" cy="69.78" r="8.48" fill="none" stroke="#ffffff" stroke-opacity="0.320"/><circle cx="559.27" cy="69.78" r="3.53" fill="#ffffff" fill-opacity="0.800"/><circle cx="643.06" cy="36.26" r="1.47" fill="#ffffff" fill-opacity="0.414"/><circle cx="681.41" cy="171.71" r="1.99" fill="#ffffff" fill-opacity="0.403"/><circle cx="1162.23" cy="18.73" r="2.17" fill="#ffffff" fill-opacity="0.676"/><circle cx="33.03" cy="132.32" r="0.69" fill="#ffffff" fill-opacity="0.552"/><circle cx="227.13" cy="274.99" r="2.23" fill="#ffffff" fill-opacity="0.403"/><circle cx="905.04" cy="154.75" r="0.79" fill="#ffffff" fill-opacity="0.400"/><circle cx="190.04" cy="268.05" r="0.84" fill="#ffffff" fill-opacity="0.650"/><circle cx="747.19" cy="191.05" r="1.54" fill="#ffffff" fill-opacity="0.473"/><circle cx="1274.31" cy="232.25" r="1.87" fill="#ffffff" fill-opacity="0.657"/><circle cx="657.6" cy="20.7" r="1.22" fill="#ffffff" fill-opacity="0.602"/><circle cx="1039.09" cy="27.14" r="2.36" fill="#ffffff" fill-opacity="0.665"/><circle cx="737.33" cy="148.73" r="1.25" fill="#ffffff" fill-opacity="0.428"/><circle cx="511.69" cy="276.28" r="0.61" fill="#ffffff" fill-opacity="0.540"/><circle cx="1128.1" cy="300.67" r="2.82" fill="none" stroke="#ffffff" stroke-opacity="0.320"/><circle cx="1128.1" cy="300.67" r="1.17" fill="#ffffff" fill-opacity="0.800"/><circle cx="825.95" cy="281.63" r="1.26" fill="#ffffff" fill-opacity="0.386"/><circle cx="471.02" cy="36.12" r="0.94" fill="#ffffff" fill-opacity="0.497"/><circle cx="104.85" cy="177.51" r="1.72" fill="#ffffff" fill-opacity="0.673"/><circle cx="696.58" cy="228.69" r="1.9" fill="#ffffff" fill-opacity="0.595"/><circle cx="125.31" cy="276.76" r="1.06" fill="#ffffff" fill-opacity="0.498"/><circle cx="1084.38" cy="101.98" r="1.49" fill="#ffffff" fill-opacity="0.520"/><circle cx="492.8" cy="107.8" r="1.8" fill="#ffffff" fill-opacity="0.493"/><circle cx="516.68" cy="35.21" r="1.8" fill="#ffffff" fill-opacity="0.664"/><circle cx="1106.35" cy="145.62" r="1.35" fill="#ffffff" fill-opacity="0.524"/><circle cx="652.22" cy="9.93" r="3.27" fill="none" stroke="#ffffff" stroke-opacity="0.320"/><circle cx="652.22" cy="9.93" r="1.36" fill="#ffffff" fill-opacity="0.800"/><circle cx="310.42" cy="215.02" r="1.89" fill="#ffffff" fill-opacity="0.423"/><circle cx="62.23" cy="10.51" r="0.88" fill="#ffffff" fill-opacity="0.480"/><circle cx="695.69" cy="158.17" r="0.68" fill="#ffffff" fill-opacity="0.635"/><circle cx="274.19" cy="241.13" r="1.76" fill="#ffffff" fill-opacity="0.557"/><circle cx="1205.97" cy="150.71" r="1.68" fill="#ffffff" fill-opacity="0.611"/><circle cx="226.97" cy="298.74" r="1.42" fill="#ffffff" fill-opacity="0.633"/><circle cx="820.56" cy="105.26" r="1.89" fill="#ffffff" fill-opacity="0.417"/><circle cx="1096.2" cy="39.98" r="1.66" fill="#ffffff" fill-opacity="0.379"/><circle cx="457.72" cy="119.9" r="1.08" fill="#ffffff" fill-opacity="0.672"/><circle cx="299.53" cy="193.18" r="0.87" fill="#ffffff" fill-opacity="0.430"/><circle cx="677.42" cy="259.64" r="2.21" fill="#ffffff" fill-opacity="0.419"/><circle cx="1204.25" cy="172.48" r="2.25" fill="#ffffff" fill-opacity="0.381"/><circle cx="106.08" cy="201.68" r="9.15" fill="none" stroke="#ffffff" stroke-opacity="0.320"/><circle cx="106.08" cy="201.68" r="3.81" fill="#ffffff" fill-opacity="0.800"/><circle cx="1158.13" cy="133.87" r="0.64" fill="#ffffff" fill-opacity="0.653"/></g>
<text x="56" y="170" font-family="ui-monospace, SFMono-Regular, Menlo, Consolas, monospace" font-size="76" font-weight="800" letter-spacing="-3" fill="#ececee">SYSTEMS<tspan fill="#5fb0d4">.</tspan></text>
<text x="60" y="208" font-family="ui-monospace, SFMono-Regular, Menlo, Consolas, monospace" font-size="20" letter-spacing="6" fill="#585c66">BY ACRONYM</text>
<text x="60" y="250" font-family="-apple-system, system-ui, sans-serif" font-size="18" fill="#9296a0">Private deployment infrastructure</text>
</svg>
